%TF.GenerationSoftware,KiCad,Pcbnew,9.0.1-9.0.1-0~ubuntu24.04.1*%
%TF.CreationDate,2025-04-20T16:10:43+07:00*%
%TF.ProjectId,Gateway PCB v2,47617465-7761-4792-9050-43422076322e,rev?*%
%TF.SameCoordinates,Original*%
%TF.FileFunction,Soldermask,Top*%
%TF.FilePolarity,Negative*%
%FSLAX46Y46*%
G04 Gerber Fmt 4.6, Leading zero omitted, Abs format (unit mm)*
G04 Created by KiCad (PCBNEW 9.0.1-9.0.1-0~ubuntu24.04.1) date 2025-04-20 16:10:43*
%MOMM*%
%LPD*%
G01*
G04 APERTURE LIST*
G04 Aperture macros list*
%AMRoundRect*
0 Rectangle with rounded corners*
0 $1 Rounding radius*
0 $2 $3 $4 $5 $6 $7 $8 $9 X,Y pos of 4 corners*
0 Add a 4 corners polygon primitive as box body*
4,1,4,$2,$3,$4,$5,$6,$7,$8,$9,$2,$3,0*
0 Add four circle primitives for the rounded corners*
1,1,$1+$1,$2,$3*
1,1,$1+$1,$4,$5*
1,1,$1+$1,$6,$7*
1,1,$1+$1,$8,$9*
0 Add four rect primitives between the rounded corners*
20,1,$1+$1,$2,$3,$4,$5,0*
20,1,$1+$1,$4,$5,$6,$7,0*
20,1,$1+$1,$6,$7,$8,$9,0*
20,1,$1+$1,$8,$9,$2,$3,0*%
G04 Aperture macros list end*
%ADD10RoundRect,0.250000X-0.350000X0.275000X-0.350000X-0.275000X0.350000X-0.275000X0.350000X0.275000X0*%
%ADD11RoundRect,0.155000X-0.155000X0.212500X-0.155000X-0.212500X0.155000X-0.212500X0.155000X0.212500X0*%
%ADD12R,1.700000X1.700000*%
%ADD13C,1.700000*%
%ADD14RoundRect,0.160000X-0.197500X-0.160000X0.197500X-0.160000X0.197500X0.160000X-0.197500X0.160000X0*%
%ADD15RoundRect,0.155000X-0.212500X-0.155000X0.212500X-0.155000X0.212500X0.155000X-0.212500X0.155000X0*%
%ADD16RoundRect,0.147500X0.172500X-0.147500X0.172500X0.147500X-0.172500X0.147500X-0.172500X-0.147500X0*%
%ADD17R,0.250000X0.325000*%
%ADD18RoundRect,0.250001X-0.849999X0.462499X-0.849999X-0.462499X0.849999X-0.462499X0.849999X0.462499X0*%
%ADD19RoundRect,0.155000X0.212500X0.155000X-0.212500X0.155000X-0.212500X-0.155000X0.212500X-0.155000X0*%
%ADD20RoundRect,0.062500X-0.062500X0.375000X-0.062500X-0.375000X0.062500X-0.375000X0.062500X0.375000X0*%
%ADD21RoundRect,0.062500X-0.375000X0.062500X-0.375000X-0.062500X0.375000X-0.062500X0.375000X0.062500X0*%
%ADD22R,2.500000X2.500000*%
%ADD23RoundRect,0.237500X-0.237500X0.287500X-0.237500X-0.287500X0.237500X-0.287500X0.237500X0.287500X0*%
%ADD24RoundRect,0.237500X0.300000X0.237500X-0.300000X0.237500X-0.300000X-0.237500X0.300000X-0.237500X0*%
%ADD25RoundRect,0.160000X0.160000X-0.222500X0.160000X0.222500X-0.160000X0.222500X-0.160000X-0.222500X0*%
%ADD26RoundRect,0.155000X-0.040659X-0.259862X0.259862X0.040659X0.040659X0.259862X-0.259862X-0.040659X0*%
%ADD27RoundRect,0.160000X0.160000X-0.197500X0.160000X0.197500X-0.160000X0.197500X-0.160000X-0.197500X0*%
%ADD28RoundRect,0.155000X0.155000X-0.212500X0.155000X0.212500X-0.155000X0.212500X-0.155000X-0.212500X0*%
%ADD29RoundRect,0.160000X-0.222500X-0.160000X0.222500X-0.160000X0.222500X0.160000X-0.222500X0.160000X0*%
%ADD30RoundRect,0.062500X-0.350000X-0.062500X0.350000X-0.062500X0.350000X0.062500X-0.350000X0.062500X0*%
%ADD31R,1.200000X2.000000*%
%ADD32RoundRect,0.237500X-0.237500X0.300000X-0.237500X-0.300000X0.237500X-0.300000X0.237500X0.300000X0*%
%ADD33O,1.700000X1.700000*%
%ADD34RoundRect,0.155000X-0.259862X0.040659X0.040659X-0.259862X0.259862X-0.040659X-0.040659X0.259862X0*%
%ADD35RoundRect,0.200000X-0.300000X-0.200000X0.300000X-0.200000X0.300000X0.200000X-0.300000X0.200000X0*%
%ADD36RoundRect,0.112500X-0.187500X-0.112500X0.187500X-0.112500X0.187500X0.112500X-0.187500X0.112500X0*%
%ADD37RoundRect,0.062500X-0.325000X-0.062500X0.325000X-0.062500X0.325000X0.062500X-0.325000X0.062500X0*%
%ADD38RoundRect,0.062500X-0.062500X-0.325000X0.062500X-0.325000X0.062500X0.325000X-0.062500X0.325000X0*%
%ADD39R,1.750000X1.750000*%
%ADD40R,0.736600X0.177800*%
%ADD41R,0.762000X0.177800*%
%ADD42R,0.177800X0.736600*%
%ADD43R,0.177800X0.762000*%
%ADD44R,5.613400X5.613400*%
%ADD45RoundRect,0.160000X0.197500X0.160000X-0.197500X0.160000X-0.197500X-0.160000X0.197500X-0.160000X0*%
%ADD46RoundRect,0.160000X-0.160000X0.222500X-0.160000X-0.222500X0.160000X-0.222500X0.160000X0.222500X0*%
%ADD47RoundRect,0.200100X-0.949900X0.949900X-0.949900X-0.949900X0.949900X-0.949900X0.949900X0.949900X0*%
%ADD48C,2.200000*%
%ADD49RoundRect,0.087500X-0.087500X0.250000X-0.087500X-0.250000X0.087500X-0.250000X0.087500X0.250000X0*%
%ADD50RoundRect,0.160000X-0.160000X0.197500X-0.160000X-0.197500X0.160000X-0.197500X0.160000X0.197500X0*%
G04 APERTURE END LIST*
D10*
%TO.C,L10*%
X90462500Y-87012500D03*
X90462500Y-89312500D03*
%TD*%
D11*
%TO.C,C45*%
X82127500Y-88655000D03*
X82127500Y-89790000D03*
%TD*%
D12*
%TO.C,J3*%
X65850000Y-82595000D03*
D13*
X65850000Y-80055000D03*
X65850000Y-77515000D03*
X65850000Y-74975000D03*
X65850000Y-72435000D03*
X65850000Y-69895000D03*
%TD*%
D14*
%TO.C,R8*%
X72587500Y-84645000D03*
X73782500Y-84645000D03*
%TD*%
D15*
%TO.C,C35*%
X110190000Y-90977500D03*
X111325000Y-90977500D03*
%TD*%
D16*
%TO.C,FL4*%
X118507500Y-74780000D03*
X118507500Y-73810000D03*
%TD*%
D11*
%TO.C,C22*%
X125750000Y-82445000D03*
X125750000Y-83580000D03*
%TD*%
D14*
%TO.C,R11*%
X109980000Y-91930000D03*
X111175000Y-91930000D03*
%TD*%
D17*
%TO.C,FL2*%
X109085000Y-76282500D03*
X109585000Y-76570000D03*
X110085000Y-76570000D03*
X110085000Y-75995000D03*
X109585000Y-75995000D03*
%TD*%
D18*
%TO.C,PL1*%
X73787500Y-71487500D03*
X73787500Y-73812500D03*
%TD*%
D14*
%TO.C,R9*%
X109950000Y-90045000D03*
X111145000Y-90045000D03*
%TD*%
D19*
%TO.C,C48*%
X73757500Y-87097500D03*
X72622500Y-87097500D03*
%TD*%
D20*
%TO.C,U3*%
X95987500Y-88680000D03*
X95487500Y-88680000D03*
X94987500Y-88680000D03*
X94487500Y-88680000D03*
X93987500Y-88680000D03*
X93487500Y-88680000D03*
D21*
X92800000Y-89367500D03*
X92800000Y-89867500D03*
X92800000Y-90367500D03*
X92800000Y-90867500D03*
X92800000Y-91367500D03*
X92800000Y-91867500D03*
D20*
X93487500Y-92555000D03*
X93987500Y-92555000D03*
X94487500Y-92555000D03*
X94987500Y-92555000D03*
X95487500Y-92555000D03*
X95987500Y-92555000D03*
D21*
X96675000Y-91867500D03*
X96675000Y-91367500D03*
X96675000Y-90867500D03*
X96675000Y-90367500D03*
X96675000Y-89867500D03*
X96675000Y-89367500D03*
D22*
X94737500Y-90617500D03*
%TD*%
D23*
%TO.C,D3*%
X89500000Y-63270000D03*
X89500000Y-65020000D03*
%TD*%
D24*
%TO.C,C40*%
X77800000Y-74145000D03*
X76075000Y-74145000D03*
%TD*%
D19*
%TO.C,C52*%
X73765000Y-81306250D03*
X72630000Y-81306250D03*
%TD*%
D25*
%TO.C,L14*%
X120207500Y-78365000D03*
X120207500Y-77220000D03*
%TD*%
D26*
%TO.C,C34*%
X112786217Y-85212500D03*
X113588783Y-84409934D03*
%TD*%
D19*
%TO.C,C50*%
X73767500Y-86087500D03*
X72632500Y-86087500D03*
%TD*%
D14*
%TO.C,R18*%
X72587500Y-83232300D03*
X73782500Y-83232300D03*
%TD*%
D15*
%TO.C,C4*%
X102920000Y-77580000D03*
X104055000Y-77580000D03*
%TD*%
%TO.C,C3*%
X100700000Y-77580000D03*
X101835000Y-77580000D03*
%TD*%
%TO.C,C13*%
X101095000Y-89542500D03*
X102230000Y-89542500D03*
%TD*%
D27*
%TO.C,R15*%
X123987500Y-73110000D03*
X123987500Y-71915000D03*
%TD*%
D28*
%TO.C,C53*%
X81087500Y-78012875D03*
X81087500Y-76877875D03*
%TD*%
D15*
%TO.C,C54*%
X85487500Y-84312500D03*
X86622500Y-84312500D03*
%TD*%
D28*
%TO.C,C57*%
X99087500Y-82927500D03*
X99087500Y-81792500D03*
%TD*%
D19*
%TO.C,C19*%
X117277500Y-74780000D03*
X116142500Y-74780000D03*
%TD*%
%TO.C,C20*%
X117307500Y-73580000D03*
X116172500Y-73580000D03*
%TD*%
D15*
%TO.C,C26*%
X120120000Y-75980000D03*
X121255000Y-75980000D03*
%TD*%
D29*
%TO.C,L4*%
X105315000Y-76280000D03*
X106460000Y-76280000D03*
%TD*%
D28*
%TO.C,C60*%
X91887500Y-87412500D03*
X91887500Y-86277500D03*
%TD*%
D15*
%TO.C,C2*%
X98080000Y-73880000D03*
X99215000Y-73880000D03*
%TD*%
D14*
%TO.C,R10*%
X109940000Y-93845000D03*
X111135000Y-93845000D03*
%TD*%
D11*
%TO.C,C14*%
X103387500Y-89485000D03*
X103387500Y-90620000D03*
%TD*%
D14*
%TO.C,R16*%
X72570001Y-79714000D03*
X73765001Y-79714000D03*
%TD*%
D15*
%TO.C,C46*%
X85413250Y-81212500D03*
X86548250Y-81212500D03*
%TD*%
%TO.C,C24*%
X123515000Y-83662500D03*
X124650000Y-83662500D03*
%TD*%
D28*
%TO.C,C42*%
X122487500Y-72980000D03*
X122487500Y-71845000D03*
%TD*%
D15*
%TO.C,C17*%
X95727500Y-87042500D03*
X96862500Y-87042500D03*
%TD*%
D28*
%TO.C,C10*%
X90987500Y-75500000D03*
X90987500Y-74365000D03*
%TD*%
D30*
%TO.C,U6*%
X126202500Y-70805000D03*
X126202500Y-71305000D03*
X126202500Y-71805000D03*
X126202500Y-72305000D03*
X126202500Y-72805000D03*
X128627500Y-72805000D03*
X128627500Y-72305000D03*
X128627500Y-71805000D03*
X128627500Y-71305000D03*
X128627500Y-70805000D03*
D31*
X127415000Y-71805000D03*
%TD*%
D27*
%TO.C,R14*%
X121290000Y-73110000D03*
X121290000Y-71915000D03*
%TD*%
D15*
%TO.C,C25*%
X120120000Y-74780000D03*
X121255000Y-74780000D03*
%TD*%
D19*
%TO.C,C8*%
X90175000Y-78412500D03*
X89040000Y-78412500D03*
%TD*%
D32*
%TO.C,C38*%
X130987500Y-68850000D03*
X130987500Y-70575000D03*
%TD*%
D17*
%TO.C,FL3*%
X110202500Y-85230000D03*
X109702500Y-84942500D03*
X109202500Y-84942500D03*
X109202500Y-85517500D03*
X109702500Y-85517500D03*
%TD*%
D11*
%TO.C,C30*%
X111287500Y-76012500D03*
X111287500Y-77147500D03*
%TD*%
D12*
%TO.C,J2*%
X72320000Y-64100000D03*
D33*
X69780000Y-64100000D03*
X67240000Y-64100000D03*
X64700000Y-64100000D03*
%TD*%
D28*
%TO.C,C9*%
X95387500Y-75067500D03*
X95387500Y-73932500D03*
%TD*%
D15*
%TO.C,C28*%
X124862500Y-75985000D03*
X125997500Y-75985000D03*
%TD*%
D34*
%TO.C,C32*%
X113535628Y-80290628D03*
X114338194Y-81093194D03*
%TD*%
D15*
%TO.C,C33*%
X102920000Y-76280000D03*
X104055000Y-76280000D03*
%TD*%
D19*
%TO.C,C44*%
X127302500Y-67665000D03*
X126167500Y-67665000D03*
%TD*%
D29*
%TO.C,L13*%
X126905000Y-82560000D03*
X128050000Y-82560000D03*
%TD*%
D19*
%TO.C,C51*%
X73747500Y-82266250D03*
X72612500Y-82266250D03*
%TD*%
D35*
%TO.C,X1*%
X84050000Y-74350000D03*
X84050000Y-76450000D03*
X85450000Y-76450000D03*
X85450000Y-74350000D03*
%TD*%
D36*
%TO.C,D4*%
X80637500Y-68512500D03*
X82737500Y-68512500D03*
%TD*%
D37*
%TO.C,U4*%
X117675000Y-81032500D03*
X117675000Y-81532500D03*
X117675000Y-82032500D03*
X117675000Y-82532500D03*
D38*
X118387500Y-83245000D03*
X118887500Y-83245000D03*
X119387500Y-83245000D03*
X119887500Y-83245000D03*
D37*
X120600000Y-82532500D03*
X120600000Y-82032500D03*
X120600000Y-81532500D03*
X120600000Y-81032500D03*
D38*
X119887500Y-80320000D03*
X119387500Y-80320000D03*
X118887500Y-80320000D03*
X118387500Y-80320000D03*
D39*
X119137500Y-81782500D03*
%TD*%
D40*
%TO.C,U1*%
X76285800Y-80382501D03*
D41*
X76298500Y-80732500D03*
X76298500Y-81082499D03*
X76298500Y-81432498D03*
X76298500Y-81782500D03*
X76298500Y-82132500D03*
X76298500Y-82482499D03*
X76298500Y-82832501D03*
X76298500Y-83182500D03*
X76298500Y-83532499D03*
X76298500Y-83882501D03*
X76298500Y-84232500D03*
X76298500Y-84582500D03*
X76298500Y-84932499D03*
X76298500Y-85282501D03*
X76298500Y-85632500D03*
D40*
X76285800Y-85982499D03*
D42*
X76927501Y-86624200D03*
D43*
X77277500Y-86611500D03*
X77627499Y-86611500D03*
X77977498Y-86611500D03*
X78327500Y-86611500D03*
X78677500Y-86611500D03*
X79027499Y-86611500D03*
X79377501Y-86611500D03*
X79727500Y-86611500D03*
X80077499Y-86611500D03*
X80427501Y-86611500D03*
X80777500Y-86611500D03*
X81127500Y-86611500D03*
X81477499Y-86611500D03*
X81827501Y-86611500D03*
X82177500Y-86611500D03*
D42*
X82527499Y-86624200D03*
D40*
X83169200Y-85982499D03*
D41*
X83156500Y-85632500D03*
X83156500Y-85282501D03*
X83156500Y-84932502D03*
X83156500Y-84582500D03*
X83156500Y-84232500D03*
X83156500Y-83882501D03*
X83156500Y-83532499D03*
X83156500Y-83182500D03*
X83156500Y-82832501D03*
X83156500Y-82482499D03*
X83156500Y-82132500D03*
X83156500Y-81782500D03*
X83156500Y-81432501D03*
X83156500Y-81082499D03*
X83156500Y-80732500D03*
D40*
X83169200Y-80382501D03*
D42*
X82527499Y-79740800D03*
D43*
X82177500Y-79753500D03*
X81827501Y-79753500D03*
X81477502Y-79753500D03*
X81127500Y-79753500D03*
X80777500Y-79753500D03*
X80427501Y-79753500D03*
X80077499Y-79753500D03*
X79727500Y-79753500D03*
X79377501Y-79753500D03*
X79027499Y-79753500D03*
X78677500Y-79753500D03*
X78327500Y-79753500D03*
X77977501Y-79753500D03*
X77627499Y-79753500D03*
X77277500Y-79753500D03*
D42*
X76927501Y-79740800D03*
D44*
X79727500Y-83182500D03*
%TD*%
D20*
%TO.C,U2*%
X95462500Y-76457500D03*
X94962500Y-76457500D03*
X94462500Y-76457500D03*
X93962500Y-76457500D03*
X93462500Y-76457500D03*
X92962500Y-76457500D03*
D21*
X92275000Y-77145000D03*
X92275000Y-77645000D03*
X92275000Y-78145000D03*
X92275000Y-78645000D03*
X92275000Y-79145000D03*
X92275000Y-79645000D03*
D20*
X92962500Y-80332500D03*
X93462500Y-80332500D03*
X93962500Y-80332500D03*
X94462500Y-80332500D03*
X94962500Y-80332500D03*
X95462500Y-80332500D03*
D21*
X96150000Y-79645000D03*
X96150000Y-79145000D03*
X96150000Y-78645000D03*
X96150000Y-78145000D03*
X96150000Y-77645000D03*
X96150000Y-77145000D03*
D22*
X94212500Y-78395000D03*
%TD*%
D29*
%TO.C,L16*%
X124870000Y-78395000D03*
X126015000Y-78395000D03*
%TD*%
D11*
%TO.C,C7*%
X103387500Y-79512500D03*
X103387500Y-80647500D03*
%TD*%
D14*
%TO.C,R3*%
X86855000Y-65145000D03*
X88050000Y-65145000D03*
%TD*%
D45*
%TO.C,R17*%
X73772501Y-78734000D03*
X72577501Y-78734000D03*
%TD*%
D19*
%TO.C,C15*%
X85855000Y-73112500D03*
X84720000Y-73112500D03*
%TD*%
%TO.C,C31*%
X113677500Y-78780000D03*
X112542500Y-78780000D03*
%TD*%
D46*
%TO.C,L5*%
X99087500Y-79580000D03*
X99087500Y-80725000D03*
%TD*%
D23*
%TO.C,D1*%
X100800000Y-63090000D03*
X100800000Y-64840000D03*
%TD*%
D19*
%TO.C,C16*%
X90430000Y-90642500D03*
X89295000Y-90642500D03*
%TD*%
D47*
%TO.C,J1*%
X138787500Y-82532500D03*
D48*
X141337500Y-79982500D03*
X136237500Y-79982500D03*
X141337500Y-85082500D03*
X136237500Y-85082500D03*
%TD*%
D11*
%TO.C,C21*%
X122250000Y-82510000D03*
X122250000Y-83645000D03*
%TD*%
D29*
%TO.C,L15*%
X122477500Y-75985000D03*
X123622500Y-75985000D03*
%TD*%
D25*
%TO.C,L11*%
X117407500Y-78485000D03*
X117407500Y-77340000D03*
%TD*%
D11*
%TO.C,C56*%
X79787500Y-88612500D03*
X79787500Y-89747500D03*
%TD*%
D15*
%TO.C,C37*%
X110170000Y-94777500D03*
X111305000Y-94777500D03*
%TD*%
D11*
%TO.C,C5*%
X107787500Y-76212500D03*
X107787500Y-77347500D03*
%TD*%
D15*
%TO.C,C6*%
X100620000Y-79580000D03*
X101755000Y-79580000D03*
%TD*%
D14*
%TO.C,R1*%
X98152500Y-65145000D03*
X99347500Y-65145000D03*
%TD*%
D15*
%TO.C,C1*%
X98100000Y-74980000D03*
X99235000Y-74980000D03*
%TD*%
D45*
%TO.C,R5*%
X94275000Y-72880000D03*
X93080000Y-72880000D03*
%TD*%
%TO.C,R6*%
X94650000Y-84842500D03*
X93455000Y-84842500D03*
%TD*%
D24*
%TO.C,C39*%
X76997500Y-68770000D03*
X75272500Y-68770000D03*
%TD*%
D19*
%TO.C,C58*%
X102230000Y-90742500D03*
X101095000Y-90742500D03*
%TD*%
D11*
%TO.C,C49*%
X81187500Y-88645000D03*
X81187500Y-89780000D03*
%TD*%
D29*
%TO.C,L12*%
X123497500Y-82560000D03*
X124642500Y-82560000D03*
%TD*%
D15*
%TO.C,C27*%
X124882500Y-77185000D03*
X126017500Y-77185000D03*
%TD*%
D19*
%TO.C,C18*%
X117242500Y-75980000D03*
X116107500Y-75980000D03*
%TD*%
D15*
%TO.C,C36*%
X110190000Y-92877500D03*
X111325000Y-92877500D03*
%TD*%
D49*
%TO.C,U7*%
X76750000Y-70620000D03*
X76250000Y-70620000D03*
X75750000Y-70620000D03*
X75750000Y-72045000D03*
X76250000Y-72045000D03*
X76750000Y-72045000D03*
%TD*%
D27*
%TO.C,R13*%
X78367500Y-71595000D03*
X78367500Y-70400000D03*
%TD*%
D50*
%TO.C,R12*%
X80567500Y-70390000D03*
X80567500Y-71585000D03*
%TD*%
D23*
%TO.C,D2*%
X95050000Y-63195000D03*
X95050000Y-64945000D03*
%TD*%
D28*
%TO.C,C47*%
X79087500Y-78094000D03*
X79087500Y-76959000D03*
%TD*%
%TO.C,C12*%
X94562500Y-87130000D03*
X94562500Y-85995000D03*
%TD*%
D19*
%TO.C,C43*%
X127302500Y-68905000D03*
X126167500Y-68905000D03*
%TD*%
D28*
%TO.C,C29*%
X123750000Y-78480000D03*
X123750000Y-77345000D03*
%TD*%
D14*
%TO.C,R2*%
X92355000Y-65245000D03*
X93550000Y-65245000D03*
%TD*%
D11*
%TO.C,C23*%
X129150000Y-82492500D03*
X129150000Y-83627500D03*
%TD*%
D12*
%TO.C,J4*%
X114250000Y-89965000D03*
D33*
X114250000Y-92505000D03*
X114250000Y-95045000D03*
%TD*%
D17*
%TO.C,FL1*%
X120100000Y-86445000D03*
X119600000Y-86157500D03*
X119100000Y-86157500D03*
X119100000Y-86732500D03*
X119600000Y-86732500D03*
%TD*%
D28*
%TO.C,C11*%
X94187500Y-75067500D03*
X94187500Y-73932500D03*
%TD*%
%TO.C,C41*%
X130587500Y-73080000D03*
X130587500Y-71945000D03*
%TD*%
D29*
%TO.C,L3*%
X100615000Y-76280000D03*
X101760000Y-76280000D03*
%TD*%
D46*
%TO.C,L2*%
X99087500Y-76407500D03*
X99087500Y-77552500D03*
%TD*%
D11*
%TO.C,C55*%
X78857500Y-88612500D03*
X78857500Y-89747500D03*
%TD*%
D10*
%TO.C,L6*%
X89587500Y-74762500D03*
X89587500Y-77062500D03*
%TD*%
D46*
%TO.C,L8*%
X99662500Y-89542500D03*
X99662500Y-90687500D03*
%TD*%
D28*
%TO.C,C28*%
X79467500Y-71545000D03*
X79467500Y-70410000D03*
%TD*%
M02*
