M48
; DRILL file {KiCad 9.0.1-9.0.1-0~ubuntu24.04.1} date 2025-04-20T16:10:39+0700
; FORMAT={-:-/ absolute / metric / decimal}
; #@! TF.CreationDate,2025-04-20T16:10:39+07:00
; #@! TF.GenerationSoftware,Kicad,Pcbnew,9.0.1-9.0.1-0~ubuntu24.04.1
; #@! TF.FileFunction,Plated,1,4,PTH
FMAT,2
METRIC
; #@! TA.AperFunction,Plated,PTH,ViaDrill
T1C0.300
; #@! TA.AperFunction,Plated,PTH,ComponentDrill
T2C1.000
; #@! TA.AperFunction,Plated,PTH,ComponentDrill
T3C1.400
%
G90
G05
T1
X64.35Y-67.645
X64.35Y-89.045
X64.35Y-93.945
X67.45Y-97.445
X70.15Y-77.8
X70.4Y-79.1
X70.4Y-80.4
X70.9Y-81.8
X71.35Y-82.712
X71.35Y-84.026
X71.35Y-85.345
X71.35Y-86.654
X71.35Y-87.845
X71.35Y-89.545
X71.35Y-90.595
X71.35Y-91.968
X71.35Y-93.556
X71.35Y-95.158
X71.35Y-96.746
X71.35Y-98.345
X72.05Y-67.245
X72.05Y-68.978
X72.05Y-70.712
X72.05Y-72.445
X72.388Y-73.412
X72.388Y-74.513
X73.05Y-91.845
X73.287Y-70.145
X73.45Y-93.579
X73.45Y-95.182
X73.45Y-96.77
X73.475Y-98.345
X73.487Y-68.412
X73.55Y-67.245
X73.587Y-74.612
X73.987Y-69.013
X73.987Y-89.712
X74.388Y-68.412
X74.447Y-81.776
X74.45Y-93.145
X74.517Y-86.527
X74.6Y-79.1
X74.6Y-85.314
X74.75Y-70.145
X74.787Y-83.763
X74.787Y-84.513
X74.932Y-82.9
X75.2Y-77.9
X75.25Y-95.232
X75.25Y-96.82
X75.3Y-98.345
X75.4Y-67.245
X75.888Y-91.412
X75.95Y-90.445
X75.95Y-94.545
X76.388Y-78.712
X76.587Y-73.013
X76.85Y-91.745
X76.987Y-78.112
X76.987Y-88.013
X77.075Y-96.845
X77.125Y-98.345
X77.25Y-67.245
X77.35Y-95.945
X77.487Y-88.712
X77.638Y-80.962
X77.638Y-82.132
X77.638Y-83.162
X77.638Y-85.263
X77.7Y-77.1
X77.9Y-78.5
X78.05Y-89.88
X78.15Y-76.345
X78.25Y-93.145
X78.755Y-87.78
X78.85Y-72.45
X78.95Y-97.345
X78.95Y-98.345
X78.987Y-83.812
X79.027Y-81.013
X79.037Y-82.132
X79.05Y-85.245
X79.1Y-67.245
X79.65Y-94.545
X79.727Y-83.182
X79.75Y-69.345
X79.787Y-68.513
X79.85Y-63.445
X80.05Y-73.245
X80.388Y-80.962
X80.388Y-82.132
X80.428Y-87.672
X80.438Y-83.812
X80.55Y-73.945
X80.55Y-98.345
X80.587Y-85.312
X80.8Y-94.07
X80.95Y-67.245
X81.05Y-74.745
X81.05Y-95.745
X81.122Y-78.447
X81.45Y-70.845
X81.478Y-81.013
X81.487Y-87.912
X81.625Y-94.87
X81.837Y-82.162
X81.888Y-83.662
X81.95Y-75.845
X81.987Y-85.462
X82.15Y-77.445
X82.329Y-98.345
X82.5Y-94.07
X82.65Y-78.345
X82.729Y-95.745
X82.85Y-74.745
X82.888Y-75.812
X82.95Y-73.645
X83.375Y-94.87
X83.646Y-77.445
X83.85Y-73.245
X84.107Y-98.345
X84.178Y-84.368
X84.2Y-94.07
X84.388Y-86.612
X84.4Y-68.395
X84.407Y-95.745
X84.487Y-89.312
X84.888Y-78.345
X85.125Y-94.87
X85.142Y-77.445
X85.162Y-81.212
X85.287Y-88.513
X85.287Y-90.212
X85.487Y-71.612
X85.65Y-65.145
X85.886Y-98.345
X85.9Y-94.07
X86.05Y-67.245
X86.086Y-95.745
X86.45Y-70.845
X86.487Y-72.312
X86.487Y-73.712
X86.487Y-75.212
X86.587Y-78.412
X86.638Y-77.445
X86.688Y-76.45
X86.8Y-94.845
X87.388Y-71.612
X87.487Y-86.412
X87.487Y-87.812
X87.487Y-89.013
X87.543Y-81.261
X87.587Y-90.212
X87.655Y-84.312
X87.664Y-98.345
X87.764Y-95.745
X87.886Y-70.845
X88.105Y-73.312
X88.105Y-74.745
X88.105Y-75.917
X88.325Y-68.845
X88.35Y-77.045
X88.388Y-85.013
X88.587Y-90.612
X88.787Y-71.612
X89.188Y-84.312
X89.287Y-86.412
X89.287Y-88.013
X89.287Y-89.612
X89.323Y-70.845
X89.443Y-95.745
X89.443Y-98.345
X89.45Y-67.445
X89.851Y-68.845
X89.888Y-71.612
X89.938Y-73.312
X90.087Y-85.013
X90.759Y-70.845
X90.837Y-78.302
X90.991Y-67.445
X91.087Y-71.612
X91.087Y-76.612
X91.121Y-95.745
X91.221Y-98.345
X91.325Y-90.572
X91.377Y-68.845
X91.638Y-73.312
X91.688Y-89.112
X91.938Y-74.445
X92.196Y-70.845
X92.287Y-71.612
X92.35Y-64.345
X92.517Y-84.843
X92.532Y-67.445
X92.8Y-95.745
X92.903Y-68.845
X93.0Y-98.345
X93.037Y-74.112
X93.188Y-75.112
X93.487Y-72.013
X93.632Y-70.845
X93.655Y-82.013
X94.072Y-67.445
X94.25Y-94.045
X94.429Y-68.845
X94.479Y-95.745
X94.779Y-98.345
X94.854Y-72.013
X95.068Y-70.845
X95.155Y-81.912
X95.555Y-93.912
X95.613Y-67.445
X95.727Y-85.983
X95.787Y-84.212
X95.955Y-68.845
X96.055Y-81.513
X96.157Y-95.745
X96.221Y-72.013
X96.387Y-73.612
X96.387Y-80.412
X96.455Y-74.98
X96.505Y-70.845
X96.557Y-98.345
X96.787Y-85.212
X96.787Y-86.212
X96.787Y-88.612
X96.787Y-93.812
X96.887Y-84.212
X97.154Y-67.445
X97.481Y-68.845
X97.587Y-72.013
X97.587Y-83.412
X97.755Y-91.912
X97.836Y-95.745
X97.855Y-93.013
X97.941Y-70.845
X97.987Y-87.013
X97.987Y-88.013
X97.987Y-89.112
X98.05Y-64.245
X98.057Y-82.322
X98.067Y-80.752
X98.336Y-98.345
X98.688Y-90.912
X98.695Y-67.445
X98.887Y-87.513
X99.007Y-68.845
X99.067Y-83.672
X99.287Y-91.845
X99.287Y-93.307
X99.287Y-94.77
X99.378Y-70.845
X99.487Y-78.612
X99.514Y-95.745
X99.587Y-88.513
X99.987Y-73.312
X99.987Y-74.312
X99.987Y-75.412
X100.087Y-80.513
X100.087Y-81.513
X100.087Y-82.513
X100.087Y-83.513
X100.114Y-98.345
X100.235Y-67.445
X100.287Y-87.513
X100.387Y-91.845
X100.533Y-68.845
X100.587Y-78.612
X100.787Y-88.513
X100.814Y-70.845
X100.987Y-72.712
X101.087Y-80.513
X101.137Y-92.57
X101.15Y-75.145
X101.193Y-95.745
X101.65Y-81.545
X101.688Y-78.612
X101.688Y-87.513
X101.776Y-67.445
X101.8Y-74.12
X101.875Y-91.845
X101.893Y-98.345
X101.987Y-88.513
X102.059Y-68.845
X102.188Y-80.513
X102.251Y-70.845
X102.406Y-75.145
X102.625Y-92.57
X102.651Y-72.712
X102.787Y-78.612
X102.871Y-95.745
X103.05Y-81.52
X103.087Y-87.513
X103.188Y-88.513
X103.317Y-67.445
X103.362Y-91.845
X103.464Y-74.12
X103.585Y-68.845
X103.661Y-75.145
X103.671Y-98.345
X103.687Y-70.845
X103.987Y-88.112
X104.087Y-78.612
X104.087Y-82.112
X104.087Y-83.212
X104.087Y-84.412
X104.087Y-85.712
X104.087Y-86.812
X104.112Y-92.57
X104.188Y-80.712
X104.315Y-72.712
X104.35Y-91.245
X104.387Y-90.412
X104.55Y-95.745
X104.8Y-79.145
X104.858Y-67.445
X104.887Y-77.412
X104.917Y-75.145
X105.111Y-68.845
X105.123Y-70.845
X105.127Y-74.12
X105.387Y-78.312
X105.387Y-89.312
X105.425Y-79.845
X105.45Y-98.345
X105.55Y-88.145
X105.55Y-95.545
X105.587Y-87.013
X105.688Y-80.612
X105.688Y-81.979
X105.688Y-83.345
X105.887Y-77.412
X105.978Y-72.712
X106.125Y-79.045
X106.172Y-75.145
X106.188Y-86.212
X106.25Y-94.845
X106.387Y-84.145
X106.398Y-67.445
X106.4Y-82.57
X106.425Y-80.02
X106.425Y-81.395
X106.55Y-63.745
X106.56Y-70.845
X106.637Y-68.845
X106.75Y-90.912
X106.75Y-92.013
X106.75Y-92.912
X106.75Y-93.912
X106.754Y-87.02
X106.791Y-74.12
X106.879Y-83.27
X106.887Y-77.412
X106.887Y-78.312
X107.15Y-89.945
X107.15Y-97.745
X107.348Y-86.212
X107.428Y-75.145
X107.547Y-84.145
X107.642Y-72.712
X107.915Y-87.02
X107.939Y-67.445
X107.95Y-89.345
X107.996Y-70.845
X108.04Y-83.27
X108.15Y-96.745
X108.164Y-68.845
X108.387Y-78.312
X108.455Y-74.12
X108.508Y-86.212
X108.683Y-75.145
X108.707Y-84.145
X108.75Y-91.045
X108.75Y-92.845
X108.787Y-77.312
X108.95Y-89.145
X109.075Y-87.02
X109.15Y-94.845
X109.2Y-83.27
X109.306Y-72.712
X109.433Y-70.845
X109.48Y-67.445
X109.59Y-97.47
X109.637Y-77.312
X109.669Y-86.212
X109.69Y-68.845
X109.867Y-84.145
X109.887Y-78.312
X109.939Y-75.145
X109.983Y-89.145
X110.118Y-74.12
X110.15Y-95.845
X110.235Y-87.02
X110.36Y-83.27
X110.487Y-77.312
X110.829Y-86.212
X110.869Y-70.845
X110.969Y-72.712
X111.017Y-89.145
X111.021Y-67.445
X111.027Y-84.145
X111.194Y-75.145
X111.216Y-68.845
X111.387Y-78.312
X111.396Y-87.02
X111.521Y-83.27
X111.622Y-97.47
X111.688Y-79.312
X111.782Y-74.12
X111.95Y-95.845
X111.99Y-86.212
X112.05Y-89.145
X112.075Y-87.845
X112.188Y-77.112
X112.188Y-84.145
X112.3Y-82.995
X112.305Y-70.845
X112.45Y-75.145
X112.487Y-80.013
X112.556Y-87.02
X112.561Y-67.445
X112.633Y-72.712
X112.688Y-77.912
X112.742Y-68.845
X112.887Y-81.013
X113.0Y-82.495
X113.15Y-83.445
X113.15Y-86.212
X113.167Y-87.845
X113.445Y-74.12
X113.587Y-75.513
X113.587Y-81.812
X113.654Y-97.47
X113.742Y-70.845
X113.75Y-63.745
X113.85Y-85.445
X114.05Y-82.645
X114.102Y-67.445
X114.258Y-87.845
X114.268Y-68.845
X114.287Y-76.212
X114.297Y-72.712
X114.55Y-84.845
X114.587Y-77.112
X114.587Y-78.212
X114.587Y-79.312
X115.05Y-83.945
X115.087Y-80.212
X115.15Y-73.545
X115.178Y-70.845
X115.188Y-74.763
X115.188Y-75.945
X115.25Y-81.745
X115.325Y-85.045
X115.325Y-86.432
X115.35Y-87.82
X115.643Y-67.445
X115.685Y-97.47
X115.787Y-83.112
X115.794Y-68.845
X115.96Y-72.712
X116.387Y-77.013
X116.387Y-78.013
X116.387Y-79.112
X116.387Y-80.212
X116.615Y-70.845
X116.688Y-82.212
X117.184Y-67.445
X117.32Y-68.845
X117.587Y-80.212
X117.624Y-72.712
X117.717Y-97.47
X117.75Y-85.445
X117.75Y-87.72
X117.75Y-89.995
X117.75Y-92.27
X117.75Y-94.545
X118.051Y-70.845
X118.587Y-81.212
X118.587Y-82.362
X118.65Y-88.87
X118.65Y-91.145
X118.65Y-93.42
X118.65Y-95.695
X118.724Y-67.445
X118.846Y-68.845
X119.287Y-72.712
X119.35Y-70.912
X119.607Y-87.635
X119.688Y-81.212
X119.688Y-82.362
X119.725Y-85.37
X119.749Y-97.47
X119.825Y-89.12
X119.825Y-91.095
X119.825Y-93.045
X119.825Y-95.295
X120.265Y-67.445
X120.372Y-68.845
X120.75Y-84.145
X120.95Y-63.745
X121.188Y-74.013
X121.287Y-70.912
X121.4Y-83.25
X121.658Y-84.67
X121.715Y-87.17
X121.715Y-89.145
X121.715Y-91.12
X121.715Y-93.07
X121.715Y-95.32
X121.715Y-97.47
X121.806Y-67.445
X121.85Y-85.445
X121.898Y-68.845
X122.221Y-74.013
X122.35Y-81.445
X122.358Y-80.67
X122.654Y-84.67
X122.89Y-85.445
X122.93Y-79.74
X123.254Y-74.013
X123.347Y-67.445
X123.347Y-81.445
X123.424Y-68.845
X123.434Y-80.67
X123.65Y-84.67
X123.707Y-87.145
X123.707Y-89.12
X123.707Y-91.095
X123.707Y-93.045
X123.707Y-95.295
X123.707Y-97.445
X123.93Y-85.445
X124.287Y-74.013
X124.344Y-81.445
X124.51Y-80.67
X124.646Y-84.67
X124.86Y-79.9
X124.887Y-67.445
X124.95Y-68.845
X124.97Y-85.445
X125.087Y-73.312
X125.34Y-81.445
X125.586Y-80.67
X125.642Y-84.67
X125.699Y-74.945
X125.699Y-87.145
X125.699Y-89.12
X125.699Y-91.095
X125.699Y-93.045
X125.699Y-95.295
X125.699Y-97.445
X125.95Y-73.845
X126.01Y-85.445
X126.337Y-81.445
X126.638Y-84.67
X126.662Y-80.67
X127.05Y-83.645
X127.05Y-85.445
X127.334Y-81.445
X127.45Y-73.845
X127.45Y-74.945
X127.45Y-76.295
X127.45Y-77.695
X127.45Y-79.245
X127.634Y-84.67
X127.691Y-87.145
X127.691Y-89.12
X127.691Y-91.095
X127.691Y-93.045
X127.691Y-95.295
X127.691Y-97.445
X127.738Y-80.67
X128.046Y-83.645
X128.09Y-85.445
X128.15Y-63.745
X128.331Y-81.445
X128.4Y-67.645
X128.4Y-68.945
X128.63Y-84.67
X128.814Y-80.67
X128.95Y-73.845
X129.13Y-85.445
X129.328Y-81.445
X129.45Y-67.595
X129.529Y-74.945
X129.529Y-76.295
X129.529Y-77.695
X129.529Y-79.245
X129.626Y-84.67
X129.683Y-87.145
X129.683Y-89.12
X129.683Y-91.095
X129.683Y-93.045
X129.683Y-95.295
X129.683Y-97.445
X129.787Y-72.513
X129.887Y-70.805
X129.89Y-80.67
X130.154Y-83.345
X130.17Y-85.445
X130.324Y-81.745
X130.45Y-73.845
X130.622Y-84.67
X130.688Y-67.612
X130.966Y-80.67
X131.15Y-83.345
X131.21Y-85.445
X131.321Y-81.745
X131.618Y-84.67
X131.65Y-71.845
X131.65Y-73.145
X131.675Y-87.145
X131.675Y-89.12
X131.675Y-91.095
X131.675Y-93.045
X131.675Y-95.295
X131.675Y-97.445
X131.709Y-74.945
X131.709Y-76.295
X131.709Y-77.695
X131.709Y-79.245
X131.75Y-67.645
X132.042Y-80.67
X132.146Y-83.345
X132.25Y-85.445
X132.318Y-81.745
X132.35Y-68.545
X132.35Y-69.645
X132.35Y-70.745
X134.31Y-77.945
X134.31Y-79.112
X134.31Y-80.278
X134.31Y-81.445
X134.31Y-83.765
X134.31Y-84.805
X134.31Y-85.845
X134.31Y-87.045
X135.35Y-63.745
X135.415Y-87.045
X135.45Y-77.945
X135.85Y-97.445
X136.52Y-87.045
X136.55Y-77.945
X137.625Y-87.045
X137.65Y-77.945
X138.73Y-87.045
X138.75Y-77.945
X138.85Y-68.345
X138.85Y-75.045
X138.85Y-79.865
X138.85Y-85.115
X138.85Y-90.245
X138.85Y-94.745
X139.835Y-87.045
X139.85Y-77.945
X140.94Y-87.045
X140.95Y-77.945
X141.33Y-82.515
X142.045Y-87.045
X142.05Y-77.945
X143.15Y-77.945
X143.15Y-79.082
X143.15Y-80.22
X143.15Y-81.358
X143.15Y-82.495
X143.15Y-83.632
X143.15Y-84.77
X143.15Y-85.907
X143.15Y-87.045
T2
X64.7Y-64.1
X65.85Y-69.895
X65.85Y-72.435
X65.85Y-74.975
X65.85Y-77.515
X65.85Y-80.055
X65.85Y-82.595
X67.24Y-64.1
X69.78Y-64.1
X72.32Y-64.1
X114.25Y-89.965
X114.25Y-92.505
X114.25Y-95.045
T3
X136.237Y-79.983
X136.237Y-85.082
X138.787Y-82.532
X141.338Y-79.983
X141.338Y-85.082
M30
