%TF.GenerationSoftware,KiCad,Pcbnew,9.0.1-9.0.1-0~ubuntu24.04.1*%
%TF.CreationDate,2025-04-20T16:10:43+07:00*%
%TF.ProjectId,Gateway PCB v2,47617465-7761-4792-9050-43422076322e,rev?*%
%TF.SameCoordinates,Original*%
%TF.FileFunction,Copper,L4,Bot*%
%TF.FilePolarity,Positive*%
%FSLAX46Y46*%
G04 Gerber Fmt 4.6, Leading zero omitted, Abs format (unit mm)*
G04 Created by KiCad (PCBNEW 9.0.1-9.0.1-0~ubuntu24.04.1) date 2025-04-20 16:10:43*
%MOMM*%
%LPD*%
G01*
G04 APERTURE LIST*
G04 Aperture macros list*
%AMRoundRect*
0 Rectangle with rounded corners*
0 $1 Rounding radius*
0 $2 $3 $4 $5 $6 $7 $8 $9 X,Y pos of 4 corners*
0 Add a 4 corners polygon primitive as box body*
4,1,4,$2,$3,$4,$5,$6,$7,$8,$9,$2,$3,0*
0 Add four circle primitives for the rounded corners*
1,1,$1+$1,$2,$3*
1,1,$1+$1,$4,$5*
1,1,$1+$1,$6,$7*
1,1,$1+$1,$8,$9*
0 Add four rect primitives between the rounded corners*
20,1,$1+$1,$2,$3,$4,$5,0*
20,1,$1+$1,$4,$5,$6,$7,0*
20,1,$1+$1,$6,$7,$8,$9,0*
20,1,$1+$1,$8,$9,$2,$3,0*%
G04 Aperture macros list end*
%TA.AperFunction,ComponentPad*%
%ADD10R,1.700000X1.700000*%
%TD*%
%TA.AperFunction,ComponentPad*%
%ADD11C,1.700000*%
%TD*%
%TA.AperFunction,ComponentPad*%
%ADD12O,1.700000X1.700000*%
%TD*%
%TA.AperFunction,ComponentPad*%
%ADD13RoundRect,0.200100X-0.949900X0.949900X-0.949900X-0.949900X0.949900X-0.949900X0.949900X0.949900X0*%
%TD*%
%TA.AperFunction,ComponentPad*%
%ADD14C,2.200000*%
%TD*%
%TA.AperFunction,ViaPad*%
%ADD15C,0.600000*%
%TD*%
%TA.AperFunction,Conductor*%
%ADD16C,0.200000*%
%TD*%
%TA.AperFunction,Conductor*%
%ADD17C,0.400000*%
%TD*%
%TA.AperFunction,Conductor*%
%ADD18C,0.170000*%
%TD*%
G04 APERTURE END LIST*
D10*
%TO.P,J3,1,Pin_1*%
%TO.N,EX_HOST_SCK*%
X65850000Y-82595000D03*
D11*
%TO.P,J3,2,Pin_2*%
%TO.N,EX_HOST_MOSI*%
X65850000Y-80055000D03*
%TO.P,J3,3,Pin_3*%
%TO.N,EX_HOST_MISO*%
X65850000Y-77515000D03*
%TO.P,J3,4,Pin_4*%
%TO.N,EX_HOST_RESET*%
X65850000Y-74975000D03*
%TO.P,J3,5,Pin_5*%
%TO.N,EX_HOST_CSN*%
X65850000Y-72435000D03*
%TO.P,J3,6,Pin_6*%
%TO.N,GND*%
X65850000Y-69895000D03*
%TD*%
D10*
%TO.P,J2,1,Pin_1*%
%TO.N,5V*%
X72320000Y-64100000D03*
D12*
%TO.P,J2,2,Pin_2*%
%TO.N,GND*%
X69780000Y-64100000D03*
%TO.P,J2,3,Pin_3*%
X67240000Y-64100000D03*
%TO.P,J2,4,Pin_4*%
%TO.N,3.3V*%
X64700000Y-64100000D03*
%TD*%
D13*
%TO.P,J1,1,In*%
%TO.N,Net-(J1-In)*%
X138787500Y-82532500D03*
D14*
%TO.P,J1,2,Ext*%
%TO.N,GND*%
X141337500Y-79982500D03*
X136237500Y-79982500D03*
X141337500Y-85082500D03*
X136237500Y-85082500D03*
%TD*%
D10*
%TO.P,J4,1,Pin_1*%
%TO.N,CSD*%
X114250000Y-89965000D03*
D12*
%TO.P,J4,2,Pin_2*%
%TO.N,PA_ON*%
X114250000Y-92505000D03*
%TO.P,J4,3,Pin_3*%
%TO.N,TXRX*%
X114250000Y-95045000D03*
%TD*%
D15*
%TO.N,1.2V*%
X81122499Y-78447124D03*
X84177502Y-84367501D03*
X72387500Y-73412500D03*
X78755000Y-87780000D03*
X78850000Y-72450000D03*
X72387500Y-74512500D03*
X73587500Y-74612500D03*
X74447500Y-81776250D03*
%TO.N,VDD_RF*%
X121287500Y-70912500D03*
X90837500Y-78302500D03*
X91325000Y-90572500D03*
X96455000Y-74980000D03*
X95727500Y-85982500D03*
%TO.N,5V*%
X84400000Y-68395000D03*
%TO.N,3.3V*%
X74517500Y-86527500D03*
X81487500Y-87912500D03*
X77700000Y-77100000D03*
X85161749Y-81212500D03*
X81950000Y-75845000D03*
X70150000Y-77800000D03*
%TO.N,TXCO 32M*%
X86687500Y-76450000D03*
X92517500Y-84842500D03*
%TO.N,SX1302_CSD*%
X74787500Y-83762500D03*
X75887500Y-91412500D03*
%TO.N,SX1302_TXRX*%
X74787500Y-84512500D03*
X73987500Y-89712500D03*
%TO.N,EX_HOST_MISO*%
X70400000Y-79100000D03*
%TO.N,EX_HOST_CSN*%
X74600000Y-79100000D03*
%TO.N,EX_HOST_RESET*%
X74932500Y-82900000D03*
%TO.N,GND*%
X109689583Y-68845000D03*
X81625000Y-94870000D03*
X103087500Y-87512500D03*
X102250543Y-70845000D03*
X106387500Y-84145000D03*
X128400000Y-68945000D03*
X124887500Y-67445000D03*
X129626000Y-84670000D03*
X104350000Y-91245000D03*
X124950000Y-68845000D03*
X105123370Y-70845000D03*
X134310000Y-77945000D03*
X131709000Y-77695000D03*
X127450000Y-73845000D03*
X71350000Y-95158125D03*
X84107143Y-98345000D03*
X115187500Y-74762500D03*
X106125000Y-79045000D03*
X96787500Y-85212500D03*
X75250000Y-95231875D03*
X79027499Y-81012500D03*
X79037500Y-82132500D03*
X85885714Y-98345000D03*
X98887500Y-87512500D03*
X101800000Y-74120000D03*
X131650000Y-71845000D03*
X74750000Y-70145000D03*
X104800000Y-79145000D03*
X128814000Y-80670000D03*
X135415000Y-87045000D03*
X112741667Y-68845000D03*
X82500000Y-94070000D03*
X82328571Y-98345000D03*
X115685455Y-97470000D03*
X131709000Y-76295000D03*
X71350000Y-89545000D03*
X92903125Y-68845000D03*
X113850000Y-85445000D03*
X94854167Y-72012500D03*
X124287500Y-74012500D03*
X91087500Y-71612500D03*
X138750000Y-77945000D03*
X98067500Y-80752500D03*
X89851042Y-68845000D03*
X131675000Y-95295000D03*
X126638000Y-84670000D03*
X129529500Y-76295000D03*
X80437500Y-83812500D03*
X73287500Y-70145000D03*
X111215625Y-68845000D03*
X137625000Y-87045000D03*
X111395833Y-87020000D03*
X117319792Y-68845000D03*
X80387500Y-80962500D03*
X129529500Y-77695000D03*
X106250000Y-94845000D03*
X112187500Y-77112500D03*
X96787500Y-88612500D03*
X114550000Y-84845000D03*
X107150000Y-89945000D03*
X112450000Y-75145000D03*
X108750000Y-92845000D03*
X76850000Y-91745000D03*
X83375000Y-94870000D03*
X120950000Y-63745000D03*
X130450000Y-73845000D03*
X97987500Y-87012500D03*
X113587500Y-81812500D03*
X112300000Y-82995000D03*
X106887500Y-77412500D03*
X120750000Y-84145000D03*
X113587500Y-75512500D03*
X99987500Y-73312500D03*
X87543249Y-81261000D03*
X86050000Y-67245000D03*
X108508333Y-86212500D03*
X86800000Y-94845000D03*
X81050000Y-95745000D03*
X129683000Y-93045000D03*
X114587500Y-79312500D03*
X131709000Y-79245000D03*
X77637500Y-80962500D03*
X118650000Y-93420000D03*
X89287500Y-86412500D03*
X79050000Y-85245000D03*
X113741848Y-70845000D03*
X108787500Y-77312500D03*
X122358000Y-80670000D03*
X104087500Y-84412500D03*
X131675000Y-91095000D03*
X119825000Y-91095000D03*
X72050000Y-68978333D03*
X80550000Y-98345000D03*
X105887500Y-77412500D03*
X107642045Y-72712500D03*
X123707000Y-87145000D03*
X125699000Y-74945000D03*
X124970000Y-85445000D03*
X115150000Y-73545000D03*
X123930000Y-85445000D03*
X84487500Y-89312500D03*
X107996196Y-70845000D03*
X128046000Y-83645000D03*
X134310000Y-81445000D03*
X111387500Y-78312500D03*
X85141667Y-77445000D03*
X91087500Y-76612500D03*
X78987500Y-83812500D03*
X124860000Y-79900000D03*
X129683000Y-87145000D03*
X127634000Y-84670000D03*
X126337200Y-81445000D03*
X87886413Y-70845000D03*
X82728571Y-95745000D03*
X138850000Y-90245000D03*
X130687500Y-67612500D03*
X78150000Y-76345000D03*
X91121429Y-95745000D03*
X73450000Y-96770000D03*
X85900000Y-94070000D03*
X95955208Y-68845000D03*
X129529500Y-79245000D03*
X110360417Y-83270000D03*
X104916667Y-75145000D03*
X131618000Y-84670000D03*
X117750000Y-89995000D03*
X89442857Y-98345000D03*
X111950000Y-95845000D03*
X105550000Y-88145000D03*
X94778571Y-98345000D03*
X127450000Y-79245000D03*
X117750000Y-87720000D03*
X131210000Y-85445000D03*
X104187500Y-80712500D03*
X143150000Y-87045000D03*
X121715000Y-97470000D03*
X77637500Y-83162500D03*
X119350000Y-70912500D03*
X123707000Y-91095000D03*
X103585417Y-68845000D03*
X110118182Y-74120000D03*
X103050000Y-81520000D03*
X123650000Y-84670000D03*
X106750000Y-93912500D03*
X100533333Y-68845000D03*
X110869022Y-70845000D03*
X101650000Y-81545000D03*
X115325000Y-85045000D03*
X67450000Y-97445000D03*
X135450000Y-77945000D03*
X75250000Y-96820000D03*
X109075000Y-87020000D03*
X71350000Y-86653750D03*
X101192857Y-95745000D03*
X130966000Y-80670000D03*
X98694565Y-67445000D03*
X106887500Y-78312500D03*
X125699000Y-95295000D03*
X116687500Y-82212500D03*
X117717273Y-97470000D03*
X75300000Y-98345000D03*
X117587500Y-80212500D03*
X115250000Y-81745000D03*
X104087500Y-78612500D03*
X97987500Y-88012500D03*
X79100000Y-67245000D03*
X77637500Y-85262500D03*
X123254167Y-74012500D03*
X119687500Y-82362500D03*
X103661111Y-75145000D03*
X96220833Y-72012500D03*
X98335714Y-98345000D03*
X71350000Y-93555625D03*
X125699000Y-87145000D03*
X119825000Y-95295000D03*
X106559783Y-70845000D03*
X100387500Y-91845000D03*
X117750000Y-92270000D03*
X112887500Y-81012500D03*
X128630000Y-84670000D03*
X138730000Y-87045000D03*
X89887500Y-71612500D03*
X129130000Y-85445000D03*
X93487500Y-72012500D03*
X125699000Y-89120000D03*
X88325000Y-68845000D03*
X89187500Y-84312500D03*
X105450000Y-98345000D03*
X94072283Y-67445000D03*
X99377717Y-70845000D03*
X143150000Y-77945000D03*
X71350000Y-84026250D03*
X121715000Y-87170000D03*
X105687500Y-80612500D03*
X119687500Y-81212500D03*
X75950000Y-94545000D03*
X103316848Y-67445000D03*
X96787500Y-86212500D03*
X96504891Y-70845000D03*
X93632065Y-70845000D03*
X78950000Y-98345000D03*
X127738000Y-80670000D03*
X102059375Y-68845000D03*
X89287500Y-88012500D03*
X100114286Y-98345000D03*
X105127273Y-74120000D03*
X111194444Y-75145000D03*
X127691000Y-87145000D03*
X88105159Y-73312500D03*
X99987500Y-74312500D03*
X123434000Y-80670000D03*
X143150000Y-83632500D03*
X78250000Y-93145000D03*
X80800000Y-94070000D03*
X120371875Y-68845000D03*
X82887500Y-75812500D03*
X97987500Y-89112500D03*
X79727500Y-83182500D03*
X130622000Y-84670000D03*
X101875000Y-91845000D03*
X115787500Y-83112500D03*
X109150000Y-94845000D03*
X122890000Y-85445000D03*
X109938889Y-75145000D03*
X138850000Y-75045000D03*
X114258333Y-87845000D03*
X111520833Y-83270000D03*
X100987500Y-72712500D03*
X73450000Y-95181875D03*
X115960227Y-72712500D03*
X119825000Y-93045000D03*
X134310000Y-85845000D03*
X118650000Y-95695000D03*
X89322826Y-70845000D03*
X106754167Y-87020000D03*
X141330000Y-82515000D03*
X121715000Y-89145000D03*
X84387500Y-86612500D03*
X99514286Y-95745000D03*
X103671429Y-98345000D03*
X106425000Y-81395000D03*
X100087500Y-82512500D03*
X96557143Y-98345000D03*
X101137500Y-92570000D03*
X111020652Y-67445000D03*
X90087500Y-85012500D03*
X73475000Y-98345000D03*
X143150000Y-79082500D03*
X119749091Y-97470000D03*
X132350000Y-69645000D03*
X103187500Y-88512500D03*
X125586000Y-80670000D03*
X115642935Y-67445000D03*
X97153804Y-67445000D03*
X108039583Y-83270000D03*
X143150000Y-81357500D03*
X115350000Y-87820000D03*
X64350000Y-93945000D03*
X129327600Y-81445000D03*
X136550000Y-77945000D03*
X104387500Y-90412500D03*
X91377083Y-68845000D03*
X96157143Y-95745000D03*
X114102174Y-67445000D03*
X98057500Y-82322500D03*
X113150000Y-83445000D03*
X77250000Y-67245000D03*
X135850000Y-97445000D03*
X134310000Y-87045000D03*
X112305435Y-70845000D03*
X139850000Y-77945000D03*
X134310000Y-83765000D03*
X114296591Y-72712500D03*
X102651136Y-72712500D03*
X85287500Y-88512500D03*
X87487500Y-89012500D03*
X99987500Y-75412500D03*
X104087500Y-82112500D03*
X84407143Y-95745000D03*
X122654000Y-84670000D03*
X75400000Y-67245000D03*
X112187500Y-84145000D03*
X94478571Y-95745000D03*
X108750000Y-91045000D03*
X75200000Y-77900000D03*
X91637500Y-73312500D03*
X75950000Y-90445000D03*
X117750000Y-94545000D03*
X110829167Y-86212500D03*
X93000000Y-98345000D03*
X106172222Y-75145000D03*
X100087500Y-80512500D03*
X103463636Y-74120000D03*
X82650000Y-78345000D03*
X132350000Y-68545000D03*
X129890000Y-80670000D03*
X114587500Y-77112500D03*
X110487500Y-77312500D03*
X116387500Y-79112500D03*
X123346800Y-81445000D03*
X86637500Y-77445000D03*
X122220833Y-74012500D03*
X106400000Y-82570000D03*
X77075000Y-96845000D03*
X99287500Y-91845000D03*
X86487500Y-75212500D03*
X115187500Y-75945000D03*
X104550000Y-95745000D03*
X71350000Y-98345000D03*
X109887500Y-78312500D03*
X118650000Y-88870000D03*
X92195652Y-70845000D03*
X110969318Y-72712500D03*
X106187500Y-86212500D03*
X118845833Y-68845000D03*
X87764286Y-95745000D03*
X115087500Y-80212500D03*
X134310000Y-80278333D03*
X104087500Y-86812500D03*
X111687500Y-79312500D03*
X90990761Y-67445000D03*
X88105159Y-75917421D03*
X80387500Y-82132500D03*
X143150000Y-82495000D03*
X103686957Y-70845000D03*
X139835000Y-87045000D03*
X103362500Y-91845000D03*
X87387500Y-71612500D03*
X132318000Y-81745000D03*
X91687500Y-89112500D03*
X117750000Y-85445000D03*
X80950000Y-67245000D03*
X99487500Y-78612500D03*
X129529500Y-74945000D03*
X84887500Y-78345000D03*
X87664286Y-98345000D03*
X112050000Y-89145000D03*
X114587500Y-78212500D03*
X116387500Y-77012500D03*
X71350000Y-90595000D03*
X72050000Y-72445000D03*
X96887500Y-84212500D03*
X71350000Y-91967500D03*
X107150000Y-97745000D03*
X113653636Y-97470000D03*
X125699000Y-93045000D03*
X118587500Y-81212500D03*
X135350000Y-63745000D03*
X124646000Y-84670000D03*
X102405556Y-75145000D03*
X86085714Y-95745000D03*
X113150000Y-86212500D03*
X101687500Y-87512500D03*
X126662000Y-80670000D03*
X88587500Y-90612500D03*
X71350000Y-87845000D03*
X107427778Y-75145000D03*
X99067500Y-83672500D03*
X121400000Y-83250000D03*
X132042000Y-80670000D03*
X116387500Y-78012500D03*
X71350000Y-85345000D03*
X131709000Y-74945000D03*
X74450000Y-93145000D03*
X97587500Y-72012500D03*
X127450000Y-76295000D03*
X128090000Y-85445000D03*
X121850000Y-85445000D03*
X99007292Y-68845000D03*
X132350000Y-70745000D03*
X105978409Y-72712500D03*
X131675000Y-93045000D03*
X89287500Y-89612500D03*
X125950000Y-73845000D03*
X92800000Y-95745000D03*
X127050000Y-83645000D03*
X124510000Y-80670000D03*
X94429167Y-68845000D03*
X73050000Y-91845000D03*
X89937500Y-73312500D03*
X118587500Y-82362500D03*
X129683000Y-89120000D03*
X107914583Y-87020000D03*
X97941304Y-70845000D03*
X136520000Y-87045000D03*
X101987500Y-88512500D03*
X131750000Y-67645000D03*
X109432609Y-70845000D03*
X86487500Y-72312500D03*
X81477502Y-81012500D03*
X95068478Y-70845000D03*
X89450000Y-67445000D03*
X64350000Y-89045000D03*
X132146000Y-83345000D03*
X128400000Y-67645000D03*
X84200000Y-94070000D03*
X72050000Y-70711667D03*
X105587500Y-87012500D03*
X109479891Y-67445000D03*
X121805978Y-67445000D03*
X82150000Y-77445000D03*
X90759239Y-70845000D03*
X125340400Y-81445000D03*
X130170000Y-85445000D03*
X138850000Y-68345000D03*
X137650000Y-77945000D03*
X127691000Y-97445000D03*
X106550000Y-63745000D03*
X129683000Y-95295000D03*
X87587500Y-90212500D03*
X93037500Y-74112500D03*
X96787500Y-93812500D03*
X102871429Y-95745000D03*
X125087500Y-73312500D03*
X138850000Y-85115000D03*
X101892857Y-98345000D03*
X99287500Y-94770000D03*
X109590000Y-97470000D03*
X128150000Y-63745000D03*
X114050000Y-82645000D03*
X125699000Y-91095000D03*
X77350000Y-95945000D03*
X88105159Y-74745000D03*
X121658000Y-84670000D03*
X142050000Y-77945000D03*
X82850000Y-74745000D03*
X91221429Y-98345000D03*
X138850000Y-94745000D03*
X97481250Y-68845000D03*
X127691000Y-95295000D03*
X105687500Y-83345000D03*
X100087500Y-81512500D03*
X120265217Y-67445000D03*
X117183696Y-67445000D03*
X91937500Y-74445000D03*
X116387500Y-80212500D03*
X131675000Y-89120000D03*
X77637500Y-82132500D03*
X108150000Y-96745000D03*
X130324400Y-81745000D03*
X111781818Y-74120000D03*
X95787500Y-84212500D03*
X107950000Y-89345000D03*
X108163542Y-68845000D03*
X101776087Y-67445000D03*
X88787500Y-71612500D03*
X123707000Y-89120000D03*
X96387500Y-73612500D03*
X113445455Y-74120000D03*
X106750000Y-92912500D03*
X105387500Y-89312500D03*
X107347917Y-86212500D03*
X109637500Y-77312500D03*
X100787500Y-88512500D03*
X128330800Y-81445000D03*
X138850000Y-79865000D03*
X118650000Y-91145000D03*
X102187500Y-80512500D03*
X107547500Y-84145000D03*
X107939130Y-67445000D03*
X113166667Y-87845000D03*
X106750000Y-90912500D03*
X92531522Y-67445000D03*
X77125000Y-98345000D03*
X115325000Y-86432500D03*
X104087500Y-85712500D03*
X142045000Y-87045000D03*
X100587500Y-78612500D03*
X119287500Y-72712500D03*
X106425000Y-80020000D03*
X108454545Y-74120000D03*
X131150000Y-83345000D03*
X127450000Y-77695000D03*
X118724457Y-67445000D03*
X113750000Y-63745000D03*
X130154000Y-83345000D03*
X73550000Y-67245000D03*
X111016667Y-89145000D03*
X131321200Y-81745000D03*
X121715000Y-91120000D03*
X123346739Y-67445000D03*
X143150000Y-85907500D03*
X108683333Y-75145000D03*
X86487500Y-73712500D03*
X103987500Y-88112500D03*
X109983333Y-89145000D03*
X131675000Y-87145000D03*
X109668750Y-86212500D03*
X117623864Y-72712500D03*
X95613043Y-67445000D03*
X64350000Y-67645000D03*
X110235417Y-87020000D03*
X134310000Y-84805000D03*
X112075000Y-87845000D03*
X112487500Y-80012500D03*
X100287500Y-87512500D03*
X131650000Y-73145000D03*
X109305682Y-72712500D03*
X109200000Y-83270000D03*
X104857609Y-67445000D03*
X105425000Y-79845000D03*
X99587500Y-88512500D03*
X79850000Y-63445000D03*
X101087500Y-80512500D03*
X81887500Y-83662500D03*
X106750000Y-92012500D03*
X88387500Y-85012500D03*
X88350000Y-77045000D03*
X104112500Y-92570000D03*
X123423958Y-68845000D03*
X127691000Y-89120000D03*
X80587500Y-85312500D03*
X97587500Y-83412500D03*
X100814130Y-70845000D03*
X104314773Y-72712500D03*
X123707000Y-97445000D03*
X113000000Y-82495000D03*
X104087500Y-83212500D03*
X121187500Y-74012500D03*
X116614674Y-70845000D03*
X143150000Y-84770000D03*
X131675000Y-97445000D03*
X140940000Y-87045000D03*
X125699000Y-97445000D03*
X128950000Y-73845000D03*
X143150000Y-80220000D03*
X129450000Y-67595000D03*
X123707000Y-93045000D03*
X83645833Y-77445000D03*
X126010000Y-85445000D03*
X81450000Y-70845000D03*
X106790909Y-74120000D03*
X102625000Y-92570000D03*
X111989583Y-86212500D03*
X104887500Y-77412500D03*
X122350000Y-81445000D03*
X85287500Y-90212500D03*
X106637500Y-68845000D03*
X73450000Y-93579375D03*
X108387500Y-78312500D03*
X127691000Y-93045000D03*
X124343600Y-81445000D03*
X108950000Y-89145000D03*
X105387500Y-78312500D03*
X112561413Y-67445000D03*
X87655000Y-84312500D03*
X122930000Y-79740000D03*
X115050000Y-83945000D03*
X127450000Y-74945000D03*
X89442857Y-95745000D03*
X115793750Y-68845000D03*
X129683000Y-97445000D03*
X72050000Y-67245000D03*
X115178261Y-70845000D03*
X119607500Y-87635000D03*
X123707000Y-95295000D03*
X87487500Y-86412500D03*
X119825000Y-89120000D03*
X112556250Y-87020000D03*
X81837500Y-82162500D03*
X112687500Y-77912500D03*
X83850000Y-73245000D03*
X71350000Y-96746250D03*
X87487500Y-87812500D03*
X121897917Y-68845000D03*
X99287500Y-93307500D03*
X106879167Y-83270000D03*
X110150000Y-95845000D03*
X125642000Y-84670000D03*
X81987500Y-85462500D03*
X108707500Y-84145000D03*
X118051087Y-70845000D03*
X92287500Y-71612500D03*
X121715000Y-93070000D03*
X114287500Y-76212500D03*
X105550000Y-95545000D03*
X79650000Y-94545000D03*
X85487500Y-71612500D03*
X121715000Y-95320000D03*
X100087500Y-83512500D03*
X112632955Y-72712500D03*
X97835714Y-95745000D03*
X127334000Y-81445000D03*
X109867500Y-84145000D03*
X71350000Y-82712500D03*
X101687500Y-78612500D03*
X105111458Y-68845000D03*
X82950000Y-73645000D03*
X127050000Y-85445000D03*
X105687500Y-81978750D03*
X129683000Y-91095000D03*
X111621818Y-97470000D03*
X127691000Y-91095000D03*
X111027500Y-84145000D03*
X140950000Y-77945000D03*
X134310000Y-79111667D03*
X132250000Y-85445000D03*
X119725000Y-85370000D03*
X98687500Y-90912500D03*
X106398370Y-67445000D03*
X78950000Y-97345000D03*
X101150000Y-75145000D03*
X100235326Y-67445000D03*
X86450000Y-70845000D03*
X114267708Y-68845000D03*
X102787500Y-78612500D03*
X85125000Y-94870000D03*
%TO.N,Net-(U1-GPIO[5])*%
X81050000Y-74745000D03*
X98050000Y-64245000D03*
%TO.N,Net-(D4-K)*%
X129887500Y-70805000D03*
X73487500Y-68412500D03*
X74387500Y-68412500D03*
X79750000Y-69345000D03*
X76587500Y-73012500D03*
X129787500Y-72512500D03*
X73987500Y-69012500D03*
X79787500Y-68512500D03*
%TO.N,Net-(U1-GPIO[4])*%
X80550000Y-73945000D03*
X92350000Y-64345000D03*
%TO.N,RADIO_A_MOSI*%
X95155000Y-81912500D03*
X76987500Y-78112500D03*
%TO.N,Net-(U1-GPIO[3])*%
X80050000Y-73245000D03*
X85650000Y-65145000D03*
%TO.N,RADIO_A_SCK*%
X77900000Y-78500000D03*
X96055000Y-81512500D03*
%TO.N,EX_HOST_SCK*%
X70900000Y-81800000D03*
%TO.N,EX_HOST_MOSI*%
X70400000Y-80400000D03*
%TO.N,RADIO_B_CSN*%
X97755000Y-91912500D03*
X78050000Y-89879851D03*
%TO.N,RADIO_A_IQ_2*%
X93187500Y-75112500D03*
X86587500Y-78412500D03*
%TO.N,RADIO_B_SCK*%
X97855000Y-93012500D03*
X77487500Y-88712500D03*
%TO.N,RADIOB_RESET*%
X80427501Y-87672499D03*
X94250000Y-94045000D03*
%TO.N,RADIOA_RESET*%
X74600000Y-85314496D03*
X93655000Y-82012500D03*
%TO.N,RADIO_B_MOSI*%
X76987500Y-88012500D03*
X95555000Y-93912500D03*
%TO.N,RADIO_A_CSN*%
X76387500Y-78712500D03*
X96387500Y-80412500D03*
%TD*%
D16*
%TO.N,RADIO_B_SCK*%
X97855000Y-93012500D02*
X80212500Y-93012500D01*
X80212500Y-93012500D02*
X77300000Y-90100000D01*
X77300000Y-90100000D02*
X77300000Y-88900000D01*
X77300000Y-88900000D02*
X77487500Y-88712500D01*
%TO.N,RADIO_B_MOSI*%
X76987500Y-88012500D02*
X76800000Y-88200000D01*
X76800000Y-88200000D02*
X76800000Y-90495000D01*
X76800000Y-90495000D02*
X79732500Y-93427500D01*
X95070000Y-93427500D02*
X95555000Y-93912500D01*
X79732500Y-93427500D02*
X95070000Y-93427500D01*
D17*
%TO.N,3.3V*%
X77926514Y-77100000D02*
X78071514Y-77245000D01*
X80986500Y-76193943D02*
X81950000Y-76193943D01*
X80987500Y-77207500D02*
X80987500Y-76194943D01*
X80987500Y-76194943D02*
X80986500Y-76193943D01*
X77700000Y-77100000D02*
X77926514Y-77100000D01*
X78071514Y-77245000D02*
X80950000Y-77245000D01*
X80950000Y-77245000D02*
X80987500Y-77207500D01*
X81950000Y-76193943D02*
X81950000Y-75845000D01*
D18*
%TO.N,SX1302_CSD*%
X74787500Y-83762500D02*
X74670000Y-83645000D01*
X73817500Y-91412500D02*
X75887500Y-91412500D01*
X74670000Y-83645000D02*
X73550000Y-83645000D01*
X72850000Y-84345000D02*
X72850000Y-90445000D01*
X73550000Y-83645000D02*
X72850000Y-84345000D01*
X72850000Y-90445000D02*
X73817500Y-91412500D01*
%TO.N,SX1302_TXRX*%
X73850000Y-84645000D02*
X73850000Y-89575000D01*
X73850000Y-89575000D02*
X73987500Y-89712500D01*
X73982500Y-84512500D02*
X73850000Y-84645000D01*
X74787500Y-84512500D02*
X73982500Y-84512500D01*
%TO.N,EX_HOST_MISO*%
X68890000Y-79580000D02*
X68800000Y-79580000D01*
X67990000Y-79100000D02*
X67900000Y-79100000D01*
X69520000Y-78920000D02*
X69520000Y-78800000D01*
X69070000Y-78920000D02*
X69070000Y-79100000D01*
X68170000Y-78800000D02*
X68170000Y-78920000D01*
X67900000Y-79100000D02*
X67400000Y-79100000D01*
X65850000Y-77550000D02*
X65850000Y-77515000D01*
X68620000Y-78920000D02*
X68620000Y-78800000D01*
X69340000Y-78620000D02*
X69250000Y-78620000D01*
X70400000Y-79100000D02*
X69700000Y-79100000D01*
X69070000Y-78800000D02*
X69070000Y-78920000D01*
X68440000Y-78620000D02*
X68350000Y-78620000D01*
X69070000Y-79100000D02*
X69070000Y-79400000D01*
X68620000Y-79100000D02*
X68620000Y-78920000D01*
X67400000Y-79100000D02*
X65850000Y-77550000D01*
D16*
X70400000Y-79100000D02*
X70355000Y-79145000D01*
D18*
X68620000Y-79400000D02*
X68620000Y-79100000D01*
D16*
X70400000Y-79100000D02*
X70300000Y-79200000D01*
D18*
X68800000Y-79580000D02*
G75*
G02*
X68620000Y-79400000I0J180000D01*
G01*
X68170000Y-78920000D02*
G75*
G02*
X67990000Y-79100000I-180000J0D01*
G01*
X68620000Y-78800000D02*
G75*
G03*
X68440000Y-78620000I-180000J0D01*
G01*
X69700000Y-79100000D02*
G75*
G02*
X69520000Y-78920000I0J180000D01*
G01*
X69250000Y-78620000D02*
G75*
G03*
X69070000Y-78800000I0J-180000D01*
G01*
X69520000Y-78800000D02*
G75*
G03*
X69340000Y-78620000I-180000J0D01*
G01*
X68350000Y-78620000D02*
G75*
G03*
X68170000Y-78800000I0J-180000D01*
G01*
X69070000Y-79400000D02*
G75*
G02*
X68890000Y-79580000I-180000J0D01*
G01*
D16*
%TO.N,EX_HOST_CSN*%
X73331963Y-77831963D02*
X73029770Y-77529770D01*
X74600000Y-79100000D02*
X74180492Y-78680492D01*
X67700000Y-72200000D02*
X66085000Y-72200000D01*
X74180492Y-78157232D02*
X74017857Y-77994597D01*
X73494597Y-77994597D02*
X73331963Y-77831963D01*
X66085000Y-72200000D02*
X65850000Y-72435000D01*
X73029770Y-77529770D02*
X67700000Y-72200000D01*
X74180492Y-78680492D02*
G75*
G02*
X74180515Y-78418885I130808J130792D01*
G01*
X74017857Y-77994597D02*
G75*
G03*
X73756227Y-77994597I-130815J-130816D01*
G01*
X73756227Y-77994597D02*
G75*
G02*
X73494597Y-77994597I-130815J130816D01*
G01*
X74180492Y-78418862D02*
G75*
G03*
X74180539Y-78157185I-130792J130862D01*
G01*
%TO.N,EX_HOST_RESET*%
X68930000Y-74975000D02*
X65850000Y-74975000D01*
X74932500Y-82900000D02*
X73700000Y-82900000D01*
X73200000Y-82400000D02*
X73200000Y-79245000D01*
X73700000Y-82900000D02*
X73200000Y-82400000D01*
X73200000Y-79245000D02*
X68930000Y-74975000D01*
D18*
%TO.N,Net-(U1-GPIO[5])*%
X81150000Y-74745000D02*
X89050000Y-66845000D01*
X81050000Y-74745000D02*
X81050000Y-74657692D01*
X97750000Y-64245000D02*
X98050000Y-64245000D01*
X89050000Y-66845000D02*
X95150000Y-66845000D01*
X81050000Y-74745000D02*
X81150000Y-74745000D01*
X95150000Y-66845000D02*
X97750000Y-64245000D01*
%TO.N,Net-(U1-GPIO[4])*%
X92450000Y-64445000D02*
X92450000Y-64470000D01*
X90650000Y-66045000D02*
X88550000Y-66045000D01*
X88550000Y-66045000D02*
X80775001Y-73819999D01*
X92350000Y-64345000D02*
X90650000Y-66045000D01*
X80675001Y-73819999D02*
X80550000Y-73945000D01*
X80775001Y-73819999D02*
X80675001Y-73819999D01*
X92350000Y-64345000D02*
X92450000Y-64445000D01*
D16*
%TO.N,RADIO_A_MOSI*%
X94700000Y-79895000D02*
X87006432Y-79895000D01*
X95155000Y-81912500D02*
X95155000Y-80350000D01*
X85778047Y-79895000D02*
X76300000Y-79895000D01*
X75700000Y-78295000D02*
X76050000Y-77945000D01*
X75700000Y-79295000D02*
X75700000Y-78295000D01*
X87006432Y-79895000D02*
X85778047Y-79895000D01*
X76820000Y-77945000D02*
X76987500Y-78112500D01*
X95155000Y-80350000D02*
X94700000Y-79895000D01*
X76050000Y-77945000D02*
X76820000Y-77945000D01*
X76300000Y-79895000D02*
X75700000Y-79295000D01*
D18*
%TO.N,Net-(U1-GPIO[3])*%
X83550000Y-69745000D02*
X80050000Y-73245000D01*
X83550000Y-67645000D02*
X83550000Y-69745000D01*
X85650000Y-65145000D02*
X85650000Y-65545000D01*
X85650000Y-65545000D02*
X83550000Y-67645000D01*
D16*
%TO.N,RADIO_A_SCK*%
X85025661Y-78962500D02*
X84703210Y-78962500D01*
X96950000Y-81145000D02*
X96950000Y-79445000D01*
X84703210Y-78962500D02*
X78637500Y-78962500D01*
X78175000Y-78500000D02*
X77900000Y-78500000D01*
X96950000Y-79445000D02*
X96467500Y-78962500D01*
X78637500Y-78962500D02*
X78175000Y-78500000D01*
X96582500Y-81512500D02*
X96950000Y-81145000D01*
X96055000Y-81512500D02*
X96582500Y-81512500D01*
X96467500Y-78962500D02*
X85025661Y-78962500D01*
D18*
%TO.N,EX_HOST_SCK*%
X70900000Y-81800000D02*
X70685182Y-82014818D01*
X68775991Y-82500000D02*
X65945000Y-82500000D01*
X70685182Y-82014818D02*
X70680182Y-82014818D01*
X65945000Y-82500000D02*
X65850000Y-82595000D01*
X70680182Y-82014818D02*
X70195000Y-82500000D01*
X69818222Y-82748000D02*
X69818222Y-82952000D01*
X69198222Y-82952000D02*
X69198222Y-82748000D01*
X70195000Y-82500000D02*
X70066222Y-82500000D01*
X65855000Y-82600000D02*
X65850000Y-82595000D01*
X69570222Y-83200000D02*
X69446222Y-83200000D01*
X68950222Y-82500000D02*
X68826222Y-82500000D01*
X68826222Y-82500000D02*
X68775991Y-82500000D01*
X69446222Y-83200000D02*
G75*
G02*
X69198200Y-82952000I-22J248000D01*
G01*
X70066222Y-82500000D02*
G75*
G03*
X69818200Y-82748000I-22J-248000D01*
G01*
X69198222Y-82748000D02*
G75*
G03*
X68950222Y-82499978I-248022J0D01*
G01*
X69818222Y-82952000D02*
G75*
G02*
X69570222Y-83200022I-248022J0D01*
G01*
%TO.N,EX_HOST_MOSI*%
X70345000Y-80345000D02*
X69500000Y-80345000D01*
X70400000Y-80400000D02*
X70345000Y-80345000D01*
X68206508Y-80345000D02*
X66140000Y-80345000D01*
X69020000Y-81345000D02*
X68900000Y-81345000D01*
X68300000Y-80345000D02*
X68206508Y-80345000D01*
X66140000Y-80345000D02*
X65850000Y-80055000D01*
X68420000Y-80345000D02*
X68300000Y-80345000D01*
X69260000Y-80585000D02*
X69260000Y-81105000D01*
X68660000Y-81105000D02*
X68660000Y-80585000D01*
X69500000Y-80345000D02*
G75*
G03*
X69260000Y-80585000I0J-240000D01*
G01*
X68900000Y-81345000D02*
G75*
G02*
X68660000Y-81105000I0J240000D01*
G01*
X69260000Y-81105000D02*
G75*
G02*
X69020000Y-81345000I-240000J0D01*
G01*
X68660000Y-80585000D02*
G75*
G03*
X68420000Y-80345000I-240000J0D01*
G01*
D16*
%TO.N,RADIO_A_IQ_2*%
X87055000Y-77945000D02*
X88650000Y-77945000D01*
X89450000Y-75945000D02*
X90282500Y-75112500D01*
X88650000Y-77945000D02*
X89450000Y-77145000D01*
X89450000Y-77145000D02*
X89450000Y-75945000D01*
X90282500Y-75112500D02*
X93187500Y-75112500D01*
X86587500Y-78412500D02*
X87055000Y-77945000D01*
D18*
%TO.N,RADIOB_RESET*%
X81150000Y-91345000D02*
X80427501Y-90622501D01*
X94700000Y-94800000D02*
X98100000Y-94800000D01*
X98700000Y-91700000D02*
X98345000Y-91345000D01*
X98345000Y-91345000D02*
X81150000Y-91345000D01*
X98100000Y-94800000D02*
X98700000Y-94200000D01*
X80427501Y-90622501D02*
X80427501Y-87672499D01*
X98700000Y-94200000D02*
X98700000Y-91700000D01*
X94250000Y-94350000D02*
X94700000Y-94800000D01*
X94250000Y-94045000D02*
X94250000Y-94350000D01*
D16*
%TO.N,RADIOA_RESET*%
X74600000Y-85314496D02*
X75480504Y-85314496D01*
X92950000Y-80345000D02*
X76850000Y-80345000D01*
X93655000Y-82012500D02*
X93655000Y-81050000D01*
X75850000Y-82485792D02*
X75850000Y-82507218D01*
X75850000Y-84945000D02*
X75850000Y-82507218D01*
X75480504Y-85314496D02*
X75850000Y-84945000D01*
X75850000Y-81345000D02*
X75850000Y-82485792D01*
X93655000Y-81050000D02*
X92950000Y-80345000D01*
X76850000Y-80345000D02*
X75850000Y-81345000D01*
%TO.N,RADIO_A_CSN*%
X96387500Y-80412500D02*
X95420000Y-79445000D01*
X77120000Y-79445000D02*
X76387500Y-78712500D01*
X95420000Y-79445000D02*
X77120000Y-79445000D01*
%TO.N,RADIO_B_CSN*%
X78050000Y-89879851D02*
X78384851Y-89879851D01*
X78384851Y-89879851D02*
X81050000Y-92545000D01*
X81050000Y-92545000D02*
X97122500Y-92545000D01*
X97122500Y-92545000D02*
X97755000Y-91912500D01*
%TD*%
%TA.AperFunction,Conductor*%
%TO.N,GND*%
G36*
X97445282Y-93381306D02*
G01*
X97516985Y-93453009D01*
X97642515Y-93525484D01*
X97704246Y-93542025D01*
X97782520Y-93562999D01*
X97782522Y-93562999D01*
X97782525Y-93563000D01*
X97782527Y-93563000D01*
X97927473Y-93563000D01*
X97927475Y-93563000D01*
X98067485Y-93525484D01*
X98193015Y-93453009D01*
X98220524Y-93425500D01*
X98257806Y-93388219D01*
X98302000Y-93369913D01*
X98346194Y-93388219D01*
X98364500Y-93432413D01*
X98364500Y-94035143D01*
X98346194Y-94079337D01*
X97979337Y-94446194D01*
X97935143Y-94464500D01*
X95931837Y-94464500D01*
X95887643Y-94446194D01*
X95869337Y-94402000D01*
X95887643Y-94357806D01*
X95892331Y-94353693D01*
X95995504Y-94250520D01*
X95995509Y-94250515D01*
X96067984Y-94124985D01*
X96105500Y-93984975D01*
X96105500Y-93840025D01*
X96067984Y-93700015D01*
X95995509Y-93574485D01*
X95995507Y-93574483D01*
X95995504Y-93574479D01*
X95890719Y-93469694D01*
X95872413Y-93425500D01*
X95890719Y-93381306D01*
X95934913Y-93363000D01*
X97401088Y-93363000D01*
X97445282Y-93381306D01*
G37*
%TD.AperFunction*%
%TA.AperFunction,Conductor*%
G36*
X140880085Y-60724300D02*
G01*
X140884108Y-60724300D01*
X140948241Y-60724300D01*
X140951745Y-60724398D01*
X141259946Y-60741706D01*
X141266903Y-60742490D01*
X141569500Y-60793903D01*
X141576312Y-60795458D01*
X141853257Y-60875245D01*
X141871242Y-60880427D01*
X141877849Y-60882738D01*
X142161439Y-61000204D01*
X142167718Y-61003229D01*
X142436353Y-61151699D01*
X142442279Y-61155422D01*
X142692596Y-61333032D01*
X142698076Y-61337401D01*
X142926927Y-61541916D01*
X142931883Y-61546872D01*
X143136398Y-61775723D01*
X143140767Y-61781203D01*
X143318377Y-62031520D01*
X143322103Y-62037451D01*
X143442330Y-62254985D01*
X143470563Y-62306067D01*
X143473598Y-62312367D01*
X143571283Y-62548201D01*
X143591058Y-62595942D01*
X143593372Y-62602557D01*
X143678338Y-62897476D01*
X143679898Y-62904309D01*
X143731308Y-63206892D01*
X143732093Y-63213856D01*
X143749402Y-63522053D01*
X143749500Y-63525558D01*
X143749500Y-97870983D01*
X143749499Y-97870987D01*
X143749499Y-97902554D01*
X143749499Y-97935119D01*
X143749499Y-97935120D01*
X143749401Y-97938624D01*
X143732096Y-98246822D01*
X143731311Y-98253787D01*
X143679902Y-98556373D01*
X143678342Y-98563206D01*
X143593380Y-98858123D01*
X143591066Y-98864739D01*
X143473612Y-99148301D01*
X143470571Y-99154615D01*
X143322110Y-99423238D01*
X143318381Y-99429173D01*
X143140773Y-99679491D01*
X143136403Y-99684970D01*
X142931891Y-99913821D01*
X142926935Y-99918777D01*
X142698088Y-100123289D01*
X142692608Y-100127660D01*
X142442288Y-100305271D01*
X142436354Y-100308999D01*
X142167733Y-100457462D01*
X142161418Y-100460503D01*
X141877863Y-100577956D01*
X141871247Y-100580271D01*
X141576326Y-100665237D01*
X141569493Y-100666797D01*
X141266908Y-100718208D01*
X141259943Y-100718993D01*
X140952173Y-100736277D01*
X140948679Y-100736375D01*
X140884108Y-100736375D01*
X140884068Y-100736385D01*
X140880019Y-100736386D01*
X62551762Y-100749498D01*
X62548248Y-100749400D01*
X62240057Y-100732093D01*
X62233092Y-100731308D01*
X61930509Y-100679898D01*
X61923676Y-100678338D01*
X61628757Y-100593372D01*
X61622142Y-100591058D01*
X61589614Y-100577585D01*
X61338567Y-100473598D01*
X61332273Y-100470566D01*
X61063651Y-100322103D01*
X61057720Y-100318377D01*
X60807403Y-100140767D01*
X60801923Y-100136398D01*
X60573072Y-99931883D01*
X60568116Y-99926927D01*
X60363601Y-99698076D01*
X60359232Y-99692596D01*
X60181622Y-99442279D01*
X60177899Y-99436353D01*
X60029429Y-99167718D01*
X60026404Y-99161439D01*
X59908938Y-98877849D01*
X59906627Y-98871242D01*
X59889739Y-98812623D01*
X59821658Y-98576312D01*
X59820103Y-98569500D01*
X59768690Y-98266903D01*
X59767906Y-98259942D01*
X59767560Y-98253787D01*
X59750598Y-97951745D01*
X59750500Y-97948241D01*
X59750500Y-97818483D01*
X60596056Y-97818483D01*
X60596056Y-98074628D01*
X60629488Y-98328573D01*
X60629488Y-98328574D01*
X60695779Y-98575973D01*
X60695781Y-98575979D01*
X60740190Y-98683192D01*
X60793797Y-98812612D01*
X60793799Y-98812615D01*
X60793800Y-98812618D01*
X60921869Y-99034439D01*
X61077795Y-99237645D01*
X61258911Y-99418761D01*
X61462117Y-99574687D01*
X61683938Y-99702756D01*
X61920577Y-99800775D01*
X61920581Y-99800776D01*
X62167981Y-99867067D01*
X62167983Y-99867067D01*
X62167986Y-99867068D01*
X62421932Y-99900500D01*
X62421938Y-99900500D01*
X62678062Y-99900500D01*
X62678068Y-99900500D01*
X62932014Y-99867068D01*
X63179423Y-99800775D01*
X63416062Y-99702756D01*
X63637883Y-99574687D01*
X63841089Y-99418761D01*
X64022205Y-99237645D01*
X64178131Y-99034439D01*
X64306200Y-98812618D01*
X64404219Y-98575979D01*
X64470512Y-98328570D01*
X64503944Y-98074624D01*
X64503944Y-97818488D01*
X64503943Y-97818483D01*
X139042612Y-97818483D01*
X139042612Y-98074628D01*
X139076044Y-98328573D01*
X139076044Y-98328574D01*
X139142335Y-98575973D01*
X139142337Y-98575979D01*
X139186746Y-98683192D01*
X139240353Y-98812612D01*
X139240355Y-98812615D01*
X139240356Y-98812618D01*
X139368425Y-99034439D01*
X139524351Y-99237645D01*
X139705467Y-99418761D01*
X139908673Y-99574687D01*
X140130494Y-99702756D01*
X140367133Y-99800775D01*
X140367137Y-99800776D01*
X140614537Y-99867067D01*
X140614539Y-99867067D01*
X140614542Y-99867068D01*
X140868488Y-99900500D01*
X140868494Y-99900500D01*
X141124618Y-99900500D01*
X141124624Y-99900500D01*
X141378570Y-99867068D01*
X141625979Y-99800775D01*
X141862618Y-99702756D01*
X142084439Y-99574687D01*
X142287645Y-99418761D01*
X142468761Y-99237645D01*
X142624687Y-99034439D01*
X142752756Y-98812618D01*
X142850775Y-98575979D01*
X142917068Y-98328570D01*
X142950500Y-98074624D01*
X142950500Y-97818488D01*
X142917068Y-97564542D01*
X142850775Y-97317133D01*
X142752756Y-97080494D01*
X142624687Y-96858673D01*
X142468761Y-96655467D01*
X142287645Y-96474351D01*
X142084439Y-96318425D01*
X141862618Y-96190356D01*
X141862615Y-96190355D01*
X141862612Y-96190353D01*
X141740809Y-96139901D01*
X141625979Y-96092337D01*
X141625975Y-96092336D01*
X141625973Y-96092335D01*
X141625974Y-96092335D01*
X141378574Y-96026044D01*
X141124628Y-95992612D01*
X141124624Y-95992612D01*
X140868488Y-95992612D01*
X140868483Y-95992612D01*
X140614538Y-96026044D01*
X140614537Y-96026044D01*
X140367138Y-96092335D01*
X140130499Y-96190353D01*
X140130488Y-96190359D01*
X139908679Y-96318421D01*
X139908676Y-96318423D01*
X139908673Y-96318425D01*
X139800886Y-96401132D01*
X139705465Y-96474352D01*
X139524352Y-96655465D01*
X139451132Y-96750886D01*
X139368425Y-96858673D01*
X139368423Y-96858676D01*
X139368421Y-96858679D01*
X139240359Y-97080488D01*
X139240353Y-97080499D01*
X139142335Y-97317138D01*
X139076044Y-97564537D01*
X139076044Y-97564538D01*
X139042612Y-97818483D01*
X64503943Y-97818483D01*
X64470512Y-97564542D01*
X64404219Y-97317133D01*
X64306200Y-97080494D01*
X64178131Y-96858673D01*
X64022205Y-96655467D01*
X63841089Y-96474351D01*
X63637883Y-96318425D01*
X63416062Y-96190356D01*
X63416059Y-96190355D01*
X63416056Y-96190353D01*
X63294253Y-96139901D01*
X63179423Y-96092337D01*
X63179419Y-96092336D01*
X63179417Y-96092335D01*
X63179418Y-96092335D01*
X62932018Y-96026044D01*
X62678072Y-95992612D01*
X62678068Y-95992612D01*
X62421932Y-95992612D01*
X62421927Y-95992612D01*
X62167982Y-96026044D01*
X62167981Y-96026044D01*
X61920582Y-96092335D01*
X61683943Y-96190353D01*
X61683932Y-96190359D01*
X61462123Y-96318421D01*
X61462120Y-96318423D01*
X61462117Y-96318425D01*
X61354330Y-96401132D01*
X61258909Y-96474352D01*
X61077796Y-96655465D01*
X61004576Y-96750886D01*
X60921869Y-96858673D01*
X60921867Y-96858676D01*
X60921865Y-96858679D01*
X60793803Y-97080488D01*
X60793797Y-97080499D01*
X60695779Y-97317138D01*
X60629488Y-97564537D01*
X60629488Y-97564538D01*
X60596056Y-97818483D01*
X59750500Y-97818483D01*
X59750500Y-81720325D01*
X64749500Y-81720325D01*
X64749500Y-83469674D01*
X64764033Y-83542739D01*
X64764034Y-83542741D01*
X64780324Y-83567120D01*
X64819399Y-83625601D01*
X64881403Y-83667030D01*
X64902258Y-83680965D01*
X64902260Y-83680966D01*
X64975326Y-83695500D01*
X66724674Y-83695500D01*
X66797740Y-83680966D01*
X66880601Y-83625601D01*
X66935966Y-83542740D01*
X66950500Y-83469674D01*
X66950500Y-82898000D01*
X66968806Y-82853806D01*
X67013000Y-82835500D01*
X68731822Y-82835500D01*
X68782053Y-82835500D01*
X68800222Y-82835500D01*
X68844416Y-82853806D01*
X68862722Y-82898000D01*
X68862722Y-82926089D01*
X68862700Y-82926143D01*
X68862700Y-83017747D01*
X68891963Y-83145948D01*
X68949019Y-83264419D01*
X68949021Y-83264423D01*
X68984972Y-83309500D01*
X69031011Y-83367226D01*
X69133823Y-83449207D01*
X69252298Y-83506253D01*
X69252299Y-83506253D01*
X69252301Y-83506254D01*
X69380503Y-83535505D01*
X69446252Y-83535500D01*
X69512049Y-83535500D01*
X69512111Y-83535504D01*
X69517110Y-83535503D01*
X69517114Y-83535505D01*
X69544341Y-83535502D01*
X69544393Y-83535523D01*
X69570252Y-83535521D01*
X69570252Y-83535522D01*
X69635995Y-83535516D01*
X69764183Y-83506248D01*
X69882645Y-83449190D01*
X69985441Y-83367205D01*
X70067418Y-83264401D01*
X70124465Y-83145934D01*
X70153722Y-83017743D01*
X70153722Y-82952000D01*
X70153722Y-82898862D01*
X70153722Y-82898000D01*
X70172028Y-82853806D01*
X70216222Y-82835500D01*
X70239168Y-82835500D01*
X70239169Y-82835500D01*
X70324498Y-82812636D01*
X70401002Y-82768467D01*
X70800662Y-82368805D01*
X70844856Y-82350500D01*
X70972473Y-82350500D01*
X70972475Y-82350500D01*
X71112485Y-82312984D01*
X71238015Y-82240509D01*
X71340509Y-82138015D01*
X71412984Y-82012485D01*
X71450500Y-81872475D01*
X71450500Y-81727525D01*
X71444136Y-81703776D01*
X71428992Y-81647258D01*
X71412984Y-81587515D01*
X71340509Y-81461985D01*
X71340507Y-81461983D01*
X71340504Y-81461979D01*
X71238020Y-81359495D01*
X71238016Y-81359492D01*
X71238015Y-81359491D01*
X71112485Y-81287016D01*
X71112484Y-81287015D01*
X71112483Y-81287015D01*
X70972479Y-81249500D01*
X70972475Y-81249500D01*
X70827525Y-81249500D01*
X70827520Y-81249500D01*
X70687517Y-81287015D01*
X70687515Y-81287015D01*
X70561983Y-81359492D01*
X70561979Y-81359495D01*
X70459495Y-81461979D01*
X70459492Y-81461983D01*
X70387015Y-81587515D01*
X70387015Y-81587517D01*
X70349500Y-81727520D01*
X70349500Y-81845143D01*
X70331194Y-81889337D01*
X70074337Y-82146194D01*
X70030230Y-82164500D01*
X70022053Y-82164500D01*
X70022008Y-82164511D01*
X70018061Y-82164517D01*
X70018049Y-82164512D01*
X70017974Y-82164517D01*
X70000502Y-82164517D01*
X69872311Y-82193766D01*
X69753834Y-82250811D01*
X69651028Y-82332788D01*
X69569040Y-82435588D01*
X69569037Y-82435593D01*
X69564523Y-82444966D01*
X69528853Y-82476839D01*
X69481093Y-82474154D01*
X69451903Y-82444961D01*
X69447403Y-82435617D01*
X69447402Y-82435616D01*
X69447400Y-82435611D01*
X69365426Y-82332811D01*
X69357825Y-82326749D01*
X69262637Y-82250830D01*
X69262631Y-82250827D01*
X69144174Y-82193772D01*
X69015991Y-82164505D01*
X68998495Y-82164504D01*
X68998495Y-82164503D01*
X68994401Y-82164502D01*
X68994391Y-82164500D01*
X68950253Y-82164500D01*
X68950241Y-82164499D01*
X68897114Y-82164495D01*
X68897112Y-82164495D01*
X68892111Y-82164495D01*
X68892049Y-82164500D01*
X67013000Y-82164500D01*
X66968806Y-82146194D01*
X66950500Y-82102000D01*
X66950500Y-81720326D01*
X66935966Y-81647260D01*
X66880601Y-81564399D01*
X66826601Y-81528318D01*
X66797741Y-81509034D01*
X66797739Y-81509033D01*
X66724674Y-81494500D01*
X64975326Y-81494500D01*
X64902260Y-81509033D01*
X64902258Y-81509034D01*
X64819399Y-81564399D01*
X64764034Y-81647258D01*
X64764033Y-81647260D01*
X64749500Y-81720325D01*
X59750500Y-81720325D01*
X59750500Y-79968391D01*
X64749500Y-79968391D01*
X64749500Y-80141608D01*
X64749501Y-80141624D01*
X64776597Y-80312698D01*
X64776597Y-80312699D01*
X64830126Y-80477443D01*
X64830130Y-80477451D01*
X64908769Y-80631790D01*
X65010585Y-80771927D01*
X65010592Y-80771935D01*
X65133064Y-80894407D01*
X65133072Y-80894414D01*
X65210267Y-80950500D01*
X65273212Y-80996232D01*
X65427555Y-81074873D01*
X65592299Y-81128402D01*
X65647374Y-81137125D01*
X65763375Y-81155498D01*
X65763381Y-81155498D01*
X65763389Y-81155500D01*
X65763391Y-81155500D01*
X65936609Y-81155500D01*
X65936611Y-81155500D01*
X66107701Y-81128402D01*
X66272445Y-81074873D01*
X66426788Y-80996232D01*
X66566928Y-80894414D01*
X66689414Y-80771928D01*
X66737123Y-80706263D01*
X66777909Y-80681269D01*
X66787686Y-80680500D01*
X68162339Y-80680500D01*
X68255831Y-80680500D01*
X68262000Y-80680500D01*
X68306194Y-80698806D01*
X68324500Y-80743000D01*
X68324500Y-81051862D01*
X68324500Y-81105000D01*
X68324500Y-81169843D01*
X68333600Y-81209712D01*
X68353358Y-81296279D01*
X68409624Y-81413119D01*
X68409629Y-81413126D01*
X68465083Y-81482663D01*
X68490485Y-81514515D01*
X68591878Y-81595374D01*
X68708722Y-81651642D01*
X68835157Y-81680500D01*
X69084842Y-81680500D01*
X69084843Y-81680500D01*
X69211278Y-81651642D01*
X69328122Y-81595374D01*
X69429515Y-81514515D01*
X69510374Y-81413122D01*
X69566642Y-81296278D01*
X69595500Y-81169843D01*
X69595500Y-81105000D01*
X69595500Y-81051862D01*
X69595500Y-80743000D01*
X69613806Y-80698806D01*
X69658000Y-80680500D01*
X69890201Y-80680500D01*
X69934395Y-80698806D01*
X69944324Y-80711744D01*
X69959491Y-80738015D01*
X69959495Y-80738019D01*
X70061979Y-80840504D01*
X70061983Y-80840507D01*
X70061985Y-80840509D01*
X70187515Y-80912984D01*
X70234165Y-80925484D01*
X70327520Y-80950499D01*
X70327522Y-80950499D01*
X70327525Y-80950500D01*
X70327527Y-80950500D01*
X70472473Y-80950500D01*
X70472475Y-80950500D01*
X70612485Y-80912984D01*
X70738015Y-80840509D01*
X70840509Y-80738015D01*
X70912984Y-80612485D01*
X70950500Y-80472475D01*
X70950500Y-80327525D01*
X70946527Y-80312699D01*
X70922121Y-80221614D01*
X70912984Y-80187515D01*
X70840509Y-80061985D01*
X70840507Y-80061983D01*
X70840504Y-80061979D01*
X70738020Y-79959495D01*
X70738016Y-79959492D01*
X70738015Y-79959491D01*
X70612485Y-79887016D01*
X70612484Y-79887015D01*
X70612483Y-79887015D01*
X70472479Y-79849500D01*
X70472475Y-79849500D01*
X70327525Y-79849500D01*
X70327520Y-79849500D01*
X70187517Y-79887015D01*
X70187515Y-79887015D01*
X70061983Y-79959492D01*
X70053101Y-79968375D01*
X70030281Y-79991194D01*
X69986089Y-80009500D01*
X69435157Y-80009500D01*
X69308720Y-80038358D01*
X69191880Y-80094624D01*
X69191873Y-80094629D01*
X69090486Y-80175483D01*
X69008864Y-80277833D01*
X68966997Y-80300971D01*
X68921031Y-80287728D01*
X68911136Y-80277833D01*
X68839110Y-80187517D01*
X68829515Y-80175485D01*
X68829513Y-80175484D01*
X68829513Y-80175483D01*
X68728126Y-80094629D01*
X68728119Y-80094624D01*
X68611279Y-80038358D01*
X68484843Y-80009500D01*
X68464169Y-80009500D01*
X68344169Y-80009500D01*
X68250677Y-80009500D01*
X67010392Y-80009500D01*
X66966198Y-79991194D01*
X66948662Y-79956777D01*
X66923402Y-79797301D01*
X66923402Y-79797300D01*
X66917235Y-79778318D01*
X66869873Y-79632555D01*
X66791232Y-79478212D01*
X66776607Y-79458083D01*
X66689414Y-79338072D01*
X66689407Y-79338064D01*
X66566935Y-79215592D01*
X66566927Y-79215585D01*
X66426790Y-79113769D01*
X66272451Y-79035130D01*
X66272443Y-79035126D01*
X66107699Y-78981597D01*
X65936624Y-78954501D01*
X65936612Y-78954500D01*
X65936611Y-78954500D01*
X65763389Y-78954500D01*
X65763387Y-78954500D01*
X65763375Y-78954501D01*
X65592301Y-78981597D01*
X65592300Y-78981597D01*
X65427556Y-79035126D01*
X65427548Y-79035130D01*
X65273209Y-79113769D01*
X65133072Y-79215585D01*
X65133064Y-79215592D01*
X65010592Y-79338064D01*
X65010585Y-79338072D01*
X64908769Y-79478209D01*
X64830130Y-79632548D01*
X64830126Y-79632556D01*
X64776597Y-79797300D01*
X64776597Y-79797301D01*
X64749501Y-79968375D01*
X64749500Y-79968391D01*
X59750500Y-79968391D01*
X59750500Y-77428391D01*
X64749500Y-77428391D01*
X64749500Y-77601608D01*
X64749501Y-77601624D01*
X64776597Y-77772698D01*
X64776597Y-77772699D01*
X64830126Y-77937443D01*
X64830130Y-77937451D01*
X64908769Y-78091790D01*
X65010585Y-78231927D01*
X65010592Y-78231935D01*
X65133064Y-78354407D01*
X65133072Y-78354414D01*
X65273212Y-78456232D01*
X65427555Y-78534873D01*
X65592299Y-78588402D01*
X65648435Y-78597293D01*
X65763375Y-78615498D01*
X65763381Y-78615498D01*
X65763389Y-78615500D01*
X65763391Y-78615500D01*
X65936609Y-78615500D01*
X65936611Y-78615500D01*
X66107701Y-78588402D01*
X66272445Y-78534873D01*
X66290253Y-78525798D01*
X66337940Y-78522044D01*
X66362823Y-78537292D01*
X67193998Y-79368467D01*
X67270502Y-79412636D01*
X67322721Y-79426628D01*
X67355826Y-79435499D01*
X67355829Y-79435499D01*
X67355831Y-79435500D01*
X67355832Y-79435500D01*
X68048083Y-79435500D01*
X68161336Y-79409651D01*
X68194882Y-79393496D01*
X68242642Y-79390813D01*
X68278310Y-79422688D01*
X68284500Y-79449806D01*
X68284500Y-79458084D01*
X68303313Y-79540509D01*
X68310349Y-79571336D01*
X68348472Y-79650499D01*
X68360752Y-79675998D01*
X68360755Y-79676003D01*
X68433178Y-79766818D01*
X68433181Y-79766821D01*
X68523996Y-79839244D01*
X68523999Y-79839246D01*
X68524002Y-79839248D01*
X68628664Y-79889651D01*
X68741917Y-79915500D01*
X68948083Y-79915500D01*
X69061336Y-79889651D01*
X69165998Y-79839248D01*
X69256820Y-79766820D01*
X69329248Y-79675998D01*
X69379651Y-79571336D01*
X69405500Y-79458083D01*
X69405500Y-79449806D01*
X69423806Y-79405612D01*
X69468000Y-79387306D01*
X69495118Y-79393496D01*
X69528664Y-79409651D01*
X69641917Y-79435500D01*
X69655831Y-79435500D01*
X69931088Y-79435500D01*
X69975282Y-79453806D01*
X70061979Y-79540504D01*
X70061983Y-79540507D01*
X70061985Y-79540509D01*
X70187515Y-79612984D01*
X70247082Y-79628945D01*
X70327520Y-79650499D01*
X70327522Y-79650499D01*
X70327525Y-79650500D01*
X70327527Y-79650500D01*
X70472473Y-79650500D01*
X70472475Y-79650500D01*
X70612485Y-79612984D01*
X70738015Y-79540509D01*
X70840509Y-79438015D01*
X70912984Y-79312485D01*
X70950500Y-79172475D01*
X70950500Y-79027525D01*
X70938193Y-78981597D01*
X70927183Y-78940507D01*
X70912984Y-78887515D01*
X70840509Y-78761985D01*
X70840507Y-78761983D01*
X70840504Y-78761979D01*
X70738020Y-78659495D01*
X70738016Y-78659492D01*
X70738015Y-78659491D01*
X70612485Y-78587016D01*
X70612484Y-78587015D01*
X70612483Y-78587015D01*
X70472479Y-78549500D01*
X70472475Y-78549500D01*
X70327525Y-78549500D01*
X70327520Y-78549500D01*
X70187517Y-78587015D01*
X70187515Y-78587015D01*
X70061983Y-78659492D01*
X70061979Y-78659495D01*
X69975282Y-78746194D01*
X69931088Y-78764500D01*
X69910497Y-78764500D01*
X69866303Y-78746194D01*
X69849564Y-78715908D01*
X69831299Y-78635886D01*
X69829651Y-78628664D01*
X69779248Y-78524002D01*
X69779246Y-78523999D01*
X69779244Y-78523996D01*
X69706821Y-78433181D01*
X69706818Y-78433178D01*
X69616003Y-78360755D01*
X69615998Y-78360752D01*
X69602837Y-78354414D01*
X69511336Y-78310349D01*
X69446278Y-78295500D01*
X69398084Y-78284500D01*
X69398083Y-78284500D01*
X69384169Y-78284500D01*
X69303138Y-78284500D01*
X69250000Y-78284500D01*
X69191917Y-78284500D01*
X69191915Y-78284500D01*
X69078667Y-78310348D01*
X69078665Y-78310348D01*
X69078664Y-78310349D01*
X69071486Y-78313806D01*
X68974001Y-78360752D01*
X68973996Y-78360755D01*
X68883968Y-78432551D01*
X68838002Y-78445794D01*
X68806032Y-78432551D01*
X68716003Y-78360755D01*
X68715998Y-78360752D01*
X68702837Y-78354414D01*
X68611336Y-78310349D01*
X68546278Y-78295500D01*
X68498084Y-78284500D01*
X68498083Y-78284500D01*
X68484169Y-78284500D01*
X68403138Y-78284500D01*
X68350000Y-78284500D01*
X68291917Y-78284500D01*
X68291915Y-78284500D01*
X68178667Y-78310348D01*
X68178665Y-78310348D01*
X68178664Y-78310349D01*
X68171486Y-78313806D01*
X68074001Y-78360752D01*
X68073996Y-78360755D01*
X67983181Y-78433178D01*
X67983178Y-78433181D01*
X67910755Y-78523996D01*
X67910752Y-78524001D01*
X67860348Y-78628666D01*
X67840436Y-78715908D01*
X67812755Y-78754920D01*
X67779503Y-78764500D01*
X67564857Y-78764500D01*
X67520663Y-78746194D01*
X66848664Y-78074195D01*
X66830358Y-78030001D01*
X66837171Y-78001626D01*
X66869867Y-77937458D01*
X66869872Y-77937446D01*
X66869873Y-77937445D01*
X66923402Y-77772701D01*
X66930558Y-77727520D01*
X69599500Y-77727520D01*
X69599500Y-77872479D01*
X69637015Y-78012482D01*
X69637015Y-78012484D01*
X69709492Y-78138016D01*
X69709495Y-78138020D01*
X69811979Y-78240504D01*
X69811983Y-78240507D01*
X69811985Y-78240509D01*
X69937515Y-78312984D01*
X69999246Y-78329525D01*
X70077520Y-78350499D01*
X70077522Y-78350499D01*
X70077525Y-78350500D01*
X70077527Y-78350500D01*
X70222473Y-78350500D01*
X70222475Y-78350500D01*
X70226939Y-78349304D01*
X70233959Y-78347422D01*
X70362485Y-78312984D01*
X70488015Y-78240509D01*
X70590509Y-78138015D01*
X70662984Y-78012485D01*
X70700500Y-77872475D01*
X70700500Y-77727525D01*
X70696782Y-77713651D01*
X70679861Y-77650499D01*
X70662984Y-77587515D01*
X70590509Y-77461985D01*
X70590507Y-77461983D01*
X70590504Y-77461979D01*
X70488020Y-77359495D01*
X70488016Y-77359492D01*
X70488015Y-77359491D01*
X70362485Y-77287016D01*
X70362484Y-77287015D01*
X70362483Y-77287015D01*
X70222479Y-77249500D01*
X70222475Y-77249500D01*
X70077525Y-77249500D01*
X70077520Y-77249500D01*
X69937517Y-77287015D01*
X69937515Y-77287015D01*
X69811983Y-77359492D01*
X69811979Y-77359495D01*
X69709495Y-77461979D01*
X69709492Y-77461983D01*
X69637015Y-77587515D01*
X69637015Y-77587517D01*
X69599500Y-77727520D01*
X66930558Y-77727520D01*
X66932755Y-77713651D01*
X66950498Y-77601624D01*
X66950500Y-77601608D01*
X66950500Y-77428391D01*
X66950498Y-77428375D01*
X66937133Y-77343996D01*
X66923402Y-77257299D01*
X66869873Y-77092555D01*
X66791232Y-76938212D01*
X66689414Y-76798072D01*
X66689407Y-76798064D01*
X66566935Y-76675592D01*
X66566927Y-76675585D01*
X66426790Y-76573769D01*
X66272451Y-76495130D01*
X66272443Y-76495126D01*
X66107699Y-76441597D01*
X65936624Y-76414501D01*
X65936612Y-76414500D01*
X65936611Y-76414500D01*
X65763389Y-76414500D01*
X65763387Y-76414500D01*
X65763375Y-76414501D01*
X65592301Y-76441597D01*
X65592300Y-76441597D01*
X65427556Y-76495126D01*
X65427548Y-76495130D01*
X65273209Y-76573769D01*
X65133072Y-76675585D01*
X65133064Y-76675592D01*
X65010592Y-76798064D01*
X65010585Y-76798072D01*
X64908769Y-76938209D01*
X64830130Y-77092548D01*
X64830126Y-77092556D01*
X64776597Y-77257300D01*
X64776597Y-77257301D01*
X64749501Y-77428375D01*
X64749500Y-77428391D01*
X59750500Y-77428391D01*
X59750500Y-74888391D01*
X64749500Y-74888391D01*
X64749500Y-75061608D01*
X64749501Y-75061624D01*
X64776597Y-75232698D01*
X64776597Y-75232699D01*
X64830126Y-75397443D01*
X64830130Y-75397451D01*
X64908769Y-75551790D01*
X65010585Y-75691927D01*
X65010592Y-75691935D01*
X65133064Y-75814407D01*
X65133072Y-75814414D01*
X65273212Y-75916232D01*
X65427555Y-75994873D01*
X65592299Y-76048402D01*
X65649647Y-76057485D01*
X65763375Y-76075498D01*
X65763381Y-76075498D01*
X65763389Y-76075500D01*
X65763391Y-76075500D01*
X65936609Y-76075500D01*
X65936611Y-76075500D01*
X66107701Y-76048402D01*
X66272445Y-75994873D01*
X66426788Y-75916232D01*
X66566928Y-75814414D01*
X66689414Y-75691928D01*
X66791232Y-75551788D01*
X66869873Y-75397445D01*
X66879217Y-75368686D01*
X66910284Y-75332312D01*
X66938658Y-75325500D01*
X68758930Y-75325500D01*
X68803124Y-75343806D01*
X72831194Y-79371876D01*
X72849500Y-79416070D01*
X72849500Y-82446146D01*
X72853501Y-82461074D01*
X72854016Y-82462999D01*
X72856027Y-82470501D01*
X72856027Y-82470503D01*
X72873384Y-82535284D01*
X72873385Y-82535287D01*
X72919531Y-82615213D01*
X72919534Y-82615217D01*
X73484782Y-83180465D01*
X73484791Y-83180472D01*
X73513428Y-83197006D01*
X73526398Y-83213908D01*
X73542548Y-83234954D01*
X73542547Y-83234955D01*
X73542548Y-83234956D01*
X73542410Y-83236003D01*
X73536305Y-83282380D01*
X73536304Y-83282380D01*
X73536304Y-83282382D01*
X73498356Y-83311502D01*
X73470081Y-83319079D01*
X73459214Y-83321991D01*
X73459213Y-83321991D01*
X73420505Y-83332362D01*
X73420502Y-83332364D01*
X73343997Y-83376533D01*
X73281531Y-83439000D01*
X72635207Y-84085323D01*
X72635206Y-84085323D01*
X72635207Y-84085324D01*
X72581532Y-84138999D01*
X72537364Y-84215502D01*
X72537363Y-84215504D01*
X72514500Y-84300826D01*
X72514500Y-90489173D01*
X72528428Y-90541150D01*
X72537364Y-90574498D01*
X72581533Y-90651002D01*
X73611498Y-91680967D01*
X73688002Y-91725136D01*
X73727984Y-91735849D01*
X73773325Y-91748000D01*
X73773331Y-91748001D01*
X73865495Y-91748001D01*
X73865511Y-91748000D01*
X75418588Y-91748000D01*
X75462782Y-91766306D01*
X75549479Y-91853004D01*
X75549483Y-91853007D01*
X75549485Y-91853009D01*
X75675015Y-91925484D01*
X75734526Y-91941430D01*
X75815020Y-91962999D01*
X75815022Y-91962999D01*
X75815025Y-91963000D01*
X75815027Y-91963000D01*
X75959973Y-91963000D01*
X75959975Y-91963000D01*
X76099985Y-91925484D01*
X76225515Y-91853009D01*
X76328009Y-91750515D01*
X76400484Y-91624985D01*
X76435583Y-91493997D01*
X76437999Y-91484979D01*
X76438000Y-91484973D01*
X76438000Y-91340026D01*
X76437999Y-91340020D01*
X76423443Y-91285698D01*
X76400484Y-91200015D01*
X76328009Y-91074485D01*
X76328007Y-91074483D01*
X76328004Y-91074479D01*
X76225520Y-90971995D01*
X76225516Y-90971992D01*
X76225515Y-90971991D01*
X76099985Y-90899516D01*
X76099984Y-90899515D01*
X76099983Y-90899515D01*
X75959979Y-90862000D01*
X75959975Y-90862000D01*
X75815025Y-90862000D01*
X75815020Y-90862000D01*
X75675017Y-90899515D01*
X75675015Y-90899515D01*
X75549483Y-90971992D01*
X75549479Y-90971995D01*
X75462782Y-91058694D01*
X75418588Y-91077000D01*
X73982357Y-91077000D01*
X73938163Y-91058694D01*
X73203806Y-90324337D01*
X73185500Y-90280143D01*
X73185500Y-84509856D01*
X73203806Y-84465662D01*
X73670662Y-83998806D01*
X73714856Y-83980500D01*
X74241615Y-83980500D01*
X74249418Y-83983732D01*
X74257791Y-83982630D01*
X74270734Y-83992561D01*
X74285809Y-83998806D01*
X74295741Y-84011750D01*
X74337022Y-84083250D01*
X74343266Y-84130676D01*
X74314146Y-84168626D01*
X74282896Y-84177000D01*
X73938324Y-84177000D01*
X73882276Y-84192020D01*
X73882275Y-84192020D01*
X73853005Y-84199862D01*
X73853002Y-84199864D01*
X73776497Y-84244033D01*
X73714032Y-84306498D01*
X73714032Y-84306499D01*
X73699750Y-84320781D01*
X73635210Y-84385319D01*
X73635206Y-84385325D01*
X73581532Y-84438999D01*
X73537364Y-84515502D01*
X73537363Y-84515504D01*
X73514500Y-84600826D01*
X73514500Y-89414012D01*
X73506127Y-89445261D01*
X73474517Y-89500011D01*
X73474515Y-89500017D01*
X73437000Y-89640020D01*
X73437000Y-89784979D01*
X73474515Y-89924982D01*
X73474515Y-89924984D01*
X73546992Y-90050516D01*
X73546995Y-90050520D01*
X73649479Y-90153004D01*
X73649483Y-90153007D01*
X73649485Y-90153009D01*
X73775015Y-90225484D01*
X73808607Y-90234485D01*
X73915020Y-90262999D01*
X73915022Y-90262999D01*
X73915025Y-90263000D01*
X73915027Y-90263000D01*
X74059973Y-90263000D01*
X74059975Y-90263000D01*
X74199985Y-90225484D01*
X74325515Y-90153009D01*
X74428009Y-90050515D01*
X74500484Y-89924985D01*
X74538000Y-89784975D01*
X74538000Y-89640025D01*
X74527110Y-89599385D01*
X74514745Y-89553237D01*
X74500484Y-89500015D01*
X74428009Y-89374485D01*
X74428007Y-89374483D01*
X74428004Y-89374479D01*
X74325520Y-89271995D01*
X74325516Y-89271992D01*
X74325515Y-89271991D01*
X74216749Y-89209194D01*
X74187630Y-89171245D01*
X74185500Y-89155069D01*
X74185500Y-87940020D01*
X76437000Y-87940020D01*
X76437000Y-88084973D01*
X76437001Y-88084981D01*
X76448244Y-88126940D01*
X76449840Y-88151267D01*
X76449500Y-88153851D01*
X76449500Y-90541142D01*
X76449501Y-90541150D01*
X76472028Y-90625222D01*
X76473384Y-90630284D01*
X76473385Y-90630286D01*
X76473386Y-90630288D01*
X76494393Y-90666674D01*
X76519531Y-90710213D01*
X76519534Y-90710217D01*
X79452031Y-93642712D01*
X79517288Y-93707969D01*
X79597209Y-93754113D01*
X79597212Y-93754114D01*
X79686356Y-93778000D01*
X93670172Y-93778000D01*
X93714366Y-93796306D01*
X93732672Y-93840500D01*
X93730542Y-93856675D01*
X93725444Y-93875698D01*
X93699500Y-93972520D01*
X93699500Y-94117479D01*
X93737015Y-94257482D01*
X93737015Y-94257484D01*
X93737016Y-94257485D01*
X93804555Y-94374466D01*
X93809492Y-94383016D01*
X93809495Y-94383020D01*
X93911979Y-94485504D01*
X93911985Y-94485509D01*
X93940756Y-94502120D01*
X93963629Y-94524992D01*
X93979410Y-94552325D01*
X93981534Y-94556004D01*
X93981537Y-94556007D01*
X94429345Y-95003813D01*
X94429350Y-95003819D01*
X94431533Y-95006002D01*
X94493998Y-95068467D01*
X94570502Y-95112636D01*
X94622721Y-95126628D01*
X94655826Y-95135499D01*
X94655829Y-95135499D01*
X94655831Y-95135500D01*
X94655832Y-95135500D01*
X98144168Y-95135500D01*
X98144169Y-95135500D01*
X98229498Y-95112636D01*
X98306002Y-95068467D01*
X98416078Y-94958391D01*
X113149500Y-94958391D01*
X113149500Y-95131608D01*
X113149501Y-95131624D01*
X113176597Y-95302698D01*
X113176597Y-95302699D01*
X113230126Y-95467443D01*
X113230130Y-95467451D01*
X113308769Y-95621790D01*
X113410585Y-95761927D01*
X113410592Y-95761935D01*
X113533064Y-95884407D01*
X113533072Y-95884414D01*
X113673212Y-95986232D01*
X113827555Y-96064873D01*
X113992299Y-96118402D01*
X114064407Y-96129822D01*
X114163375Y-96145498D01*
X114163381Y-96145498D01*
X114163389Y-96145500D01*
X114163391Y-96145500D01*
X114336609Y-96145500D01*
X114336611Y-96145500D01*
X114507701Y-96118402D01*
X114672445Y-96064873D01*
X114826788Y-95986232D01*
X114966928Y-95884414D01*
X115089414Y-95761928D01*
X115191232Y-95621788D01*
X115269873Y-95467445D01*
X115323402Y-95302701D01*
X115350500Y-95131611D01*
X115350500Y-94958389D01*
X115323402Y-94787299D01*
X115269873Y-94622555D01*
X115191232Y-94468212D01*
X115089414Y-94328072D01*
X115089407Y-94328064D01*
X114966935Y-94205592D01*
X114966927Y-94205585D01*
X114826790Y-94103769D01*
X114672451Y-94025130D01*
X114672443Y-94025126D01*
X114507699Y-93971597D01*
X114336624Y-93944501D01*
X114336612Y-93944500D01*
X114336611Y-93944500D01*
X114163389Y-93944500D01*
X114163387Y-93944500D01*
X114163375Y-93944501D01*
X113992301Y-93971597D01*
X113992300Y-93971597D01*
X113827556Y-94025126D01*
X113827548Y-94025130D01*
X113673209Y-94103769D01*
X113533072Y-94205585D01*
X113533064Y-94205592D01*
X113410592Y-94328064D01*
X113410585Y-94328072D01*
X113308769Y-94468209D01*
X113230130Y-94622548D01*
X113230126Y-94622556D01*
X113176597Y-94787300D01*
X113176597Y-94787301D01*
X113149501Y-94958375D01*
X113149500Y-94958391D01*
X98416078Y-94958391D01*
X98416094Y-94958375D01*
X98462730Y-94911739D01*
X98611397Y-94763070D01*
X98900855Y-94473611D01*
X98900860Y-94473608D01*
X98906000Y-94468467D01*
X98906002Y-94468467D01*
X98968467Y-94406002D01*
X99012636Y-94329498D01*
X99035500Y-94244169D01*
X99035500Y-92418391D01*
X113149500Y-92418391D01*
X113149500Y-92591608D01*
X113149501Y-92591624D01*
X113176597Y-92762698D01*
X113176597Y-92762699D01*
X113230126Y-92927443D01*
X113230130Y-92927451D01*
X113308769Y-93081790D01*
X113410585Y-93221927D01*
X113410592Y-93221935D01*
X113533064Y-93344407D01*
X113533072Y-93344414D01*
X113673212Y-93446232D01*
X113827555Y-93524873D01*
X113992299Y-93578402D01*
X114064407Y-93589822D01*
X114163375Y-93605498D01*
X114163381Y-93605498D01*
X114163389Y-93605500D01*
X114163391Y-93605500D01*
X114336609Y-93605500D01*
X114336611Y-93605500D01*
X114507701Y-93578402D01*
X114672445Y-93524873D01*
X114826788Y-93446232D01*
X114966928Y-93344414D01*
X115089414Y-93221928D01*
X115191232Y-93081788D01*
X115269873Y-92927445D01*
X115323402Y-92762701D01*
X115350500Y-92591611D01*
X115350500Y-92418389D01*
X115323402Y-92247299D01*
X115269873Y-92082555D01*
X115191232Y-91928212D01*
X115089414Y-91788072D01*
X115089407Y-91788064D01*
X114966935Y-91665592D01*
X114966927Y-91665585D01*
X114826790Y-91563769D01*
X114672451Y-91485130D01*
X114672443Y-91485126D01*
X114507699Y-91431597D01*
X114336624Y-91404501D01*
X114336612Y-91404500D01*
X114336611Y-91404500D01*
X114163389Y-91404500D01*
X114163387Y-91404500D01*
X114163375Y-91404501D01*
X113992301Y-91431597D01*
X113992300Y-91431597D01*
X113827556Y-91485126D01*
X113827548Y-91485130D01*
X113673209Y-91563769D01*
X113533072Y-91665585D01*
X113533064Y-91665592D01*
X113410592Y-91788064D01*
X113410585Y-91788072D01*
X113308769Y-91928209D01*
X113230130Y-92082548D01*
X113230126Y-92082556D01*
X113176597Y-92247300D01*
X113176597Y-92247301D01*
X113149501Y-92418375D01*
X113149500Y-92418391D01*
X99035500Y-92418391D01*
X99035500Y-91655831D01*
X99012636Y-91570502D01*
X98968467Y-91493998D01*
X98906002Y-91431533D01*
X98551002Y-91076533D01*
X98474498Y-91032364D01*
X98474495Y-91032363D01*
X98389173Y-91009500D01*
X98389169Y-91009500D01*
X91816293Y-91009500D01*
X91772099Y-90991194D01*
X91753793Y-90947000D01*
X91764723Y-90914792D01*
X91763460Y-90914063D01*
X91765507Y-90910516D01*
X91765509Y-90910515D01*
X91837984Y-90784985D01*
X91875500Y-90644975D01*
X91875500Y-90500025D01*
X91837984Y-90360015D01*
X91765509Y-90234485D01*
X91765507Y-90234483D01*
X91765504Y-90234479D01*
X91663020Y-90131995D01*
X91663016Y-90131992D01*
X91663015Y-90131991D01*
X91537485Y-90059516D01*
X91537484Y-90059515D01*
X91537483Y-90059515D01*
X91397479Y-90022000D01*
X91397475Y-90022000D01*
X91252525Y-90022000D01*
X91252520Y-90022000D01*
X91112517Y-90059515D01*
X91112515Y-90059515D01*
X90986983Y-90131992D01*
X90986979Y-90131995D01*
X90884495Y-90234479D01*
X90884492Y-90234483D01*
X90812015Y-90360015D01*
X90812015Y-90360017D01*
X90774500Y-90500020D01*
X90774500Y-90644979D01*
X90812015Y-90784982D01*
X90812015Y-90784984D01*
X90812016Y-90784985D01*
X90884491Y-90910515D01*
X90884492Y-90910516D01*
X90886540Y-90914063D01*
X90884915Y-90915001D01*
X90895671Y-90955169D01*
X90871746Y-90996591D01*
X90833707Y-91009500D01*
X81314857Y-91009500D01*
X81270663Y-90991194D01*
X80781307Y-90501838D01*
X80763001Y-90457644D01*
X80763001Y-89090325D01*
X113149500Y-89090325D01*
X113149500Y-90839674D01*
X113164033Y-90912739D01*
X113164034Y-90912741D01*
X113186925Y-90947000D01*
X113219399Y-90995601D01*
X113274418Y-91032363D01*
X113302258Y-91050965D01*
X113302260Y-91050966D01*
X113375326Y-91065500D01*
X115124674Y-91065500D01*
X115197740Y-91050966D01*
X115280601Y-90995601D01*
X115335966Y-90912740D01*
X115350500Y-90839674D01*
X115350500Y-89090326D01*
X115335966Y-89017260D01*
X115280601Y-88934399D01*
X115239170Y-88906716D01*
X115197741Y-88879034D01*
X115197739Y-88879033D01*
X115124674Y-88864500D01*
X113375326Y-88864500D01*
X113302260Y-88879033D01*
X113302258Y-88879034D01*
X113219399Y-88934399D01*
X113164034Y-89017258D01*
X113164033Y-89017260D01*
X113149500Y-89090325D01*
X80763001Y-89090325D01*
X80763001Y-88141411D01*
X80781307Y-88097217D01*
X80851271Y-88027253D01*
X80895465Y-88008947D01*
X80939659Y-88027253D01*
X80955835Y-88055270D01*
X80974515Y-88124982D01*
X80974515Y-88124984D01*
X81046992Y-88250516D01*
X81046995Y-88250520D01*
X81149479Y-88353004D01*
X81149483Y-88353007D01*
X81149485Y-88353009D01*
X81275015Y-88425484D01*
X81336746Y-88442025D01*
X81415020Y-88462999D01*
X81415022Y-88462999D01*
X81415025Y-88463000D01*
X81415027Y-88463000D01*
X81559973Y-88463000D01*
X81559975Y-88463000D01*
X81699985Y-88425484D01*
X81825515Y-88353009D01*
X81928009Y-88250515D01*
X82000484Y-88124985D01*
X82035988Y-87992484D01*
X82037999Y-87984979D01*
X82038000Y-87984973D01*
X82038000Y-87840026D01*
X82037999Y-87840020D01*
X82009772Y-87734678D01*
X82000484Y-87700015D01*
X81928009Y-87574485D01*
X81928007Y-87574483D01*
X81928004Y-87574479D01*
X81825520Y-87471995D01*
X81825516Y-87471992D01*
X81825515Y-87471991D01*
X81699985Y-87399516D01*
X81699984Y-87399515D01*
X81699983Y-87399515D01*
X81559979Y-87362000D01*
X81559975Y-87362000D01*
X81415025Y-87362000D01*
X81415020Y-87362000D01*
X81275017Y-87399515D01*
X81275015Y-87399515D01*
X81149483Y-87471992D01*
X81149479Y-87471995D01*
X81063729Y-87557745D01*
X81019535Y-87576051D01*
X80975341Y-87557745D01*
X80959165Y-87529727D01*
X80940486Y-87460017D01*
X80940485Y-87460014D01*
X80905556Y-87399516D01*
X80868010Y-87334484D01*
X80868008Y-87334482D01*
X80868005Y-87334478D01*
X80765521Y-87231994D01*
X80765517Y-87231991D01*
X80765516Y-87231990D01*
X80639986Y-87159515D01*
X80639985Y-87159514D01*
X80639984Y-87159514D01*
X80499980Y-87121999D01*
X80499976Y-87121999D01*
X80355026Y-87121999D01*
X80355021Y-87121999D01*
X80215018Y-87159514D01*
X80215016Y-87159514D01*
X80089484Y-87231991D01*
X80089480Y-87231994D01*
X79986996Y-87334478D01*
X79986993Y-87334482D01*
X79914516Y-87460014D01*
X79914516Y-87460016D01*
X79877001Y-87600019D01*
X79877001Y-87744978D01*
X79914516Y-87884981D01*
X79914516Y-87884983D01*
X79914517Y-87884984D01*
X79986087Y-88008947D01*
X79986993Y-88010515D01*
X79986996Y-88010519D01*
X80073695Y-88097217D01*
X80092001Y-88141411D01*
X80092001Y-90666674D01*
X80103668Y-90710212D01*
X80114865Y-90751999D01*
X80159034Y-90828503D01*
X80881533Y-91551002D01*
X80943998Y-91613467D01*
X81020502Y-91657636D01*
X81072721Y-91671628D01*
X81105826Y-91680499D01*
X81105829Y-91680499D01*
X81105831Y-91680500D01*
X97165793Y-91680500D01*
X97209987Y-91698806D01*
X97228293Y-91743000D01*
X97226163Y-91759176D01*
X97204501Y-91840018D01*
X97204500Y-91840026D01*
X97204500Y-91941430D01*
X97186194Y-91985624D01*
X96995624Y-92176194D01*
X96951430Y-92194500D01*
X81221070Y-92194500D01*
X81176876Y-92176194D01*
X78600068Y-89599385D01*
X78600064Y-89599382D01*
X78600063Y-89599381D01*
X78560101Y-89576309D01*
X78520138Y-89553236D01*
X78520133Y-89553235D01*
X78511410Y-89550897D01*
X78483396Y-89534722D01*
X78388020Y-89439346D01*
X78388016Y-89439343D01*
X78388015Y-89439342D01*
X78262485Y-89366867D01*
X78262484Y-89366866D01*
X78262483Y-89366866D01*
X78122479Y-89329351D01*
X78122475Y-89329351D01*
X77977525Y-89329351D01*
X77977520Y-89329351D01*
X77837517Y-89366866D01*
X77837515Y-89366866D01*
X77744250Y-89420714D01*
X77728072Y-89422843D01*
X77713000Y-89429087D01*
X77705196Y-89425854D01*
X77696824Y-89426957D01*
X77683879Y-89417024D01*
X77668806Y-89410781D01*
X77665574Y-89402978D01*
X77658873Y-89397837D01*
X77650500Y-89366587D01*
X77650500Y-89286701D01*
X77668806Y-89242507D01*
X77696824Y-89226330D01*
X77699985Y-89225484D01*
X77825515Y-89153009D01*
X77928009Y-89050515D01*
X78000484Y-88924985D01*
X78038000Y-88784975D01*
X78038000Y-88640025D01*
X78000484Y-88500015D01*
X77928009Y-88374485D01*
X77928007Y-88374483D01*
X77928004Y-88374479D01*
X77825520Y-88271995D01*
X77825516Y-88271992D01*
X77825515Y-88271991D01*
X77699985Y-88199516D01*
X77699984Y-88199515D01*
X77699983Y-88199515D01*
X77580585Y-88167522D01*
X77542635Y-88138402D01*
X77536392Y-88090975D01*
X77536393Y-88090971D01*
X77537999Y-88084977D01*
X77538000Y-88084975D01*
X77538000Y-87940025D01*
X77500484Y-87800015D01*
X77447082Y-87707520D01*
X78204500Y-87707520D01*
X78204500Y-87852479D01*
X78242015Y-87992482D01*
X78242015Y-87992484D01*
X78252428Y-88010519D01*
X78311600Y-88113008D01*
X78314492Y-88118016D01*
X78314495Y-88118020D01*
X78416979Y-88220504D01*
X78416983Y-88220507D01*
X78416985Y-88220509D01*
X78542515Y-88292984D01*
X78604246Y-88309525D01*
X78682520Y-88330499D01*
X78682522Y-88330499D01*
X78682525Y-88330500D01*
X78682527Y-88330500D01*
X78827473Y-88330500D01*
X78827475Y-88330500D01*
X78967485Y-88292984D01*
X79093015Y-88220509D01*
X79195509Y-88118015D01*
X79267984Y-87992485D01*
X79305500Y-87852475D01*
X79305500Y-87707525D01*
X79303488Y-87700017D01*
X79276695Y-87600024D01*
X79267984Y-87567515D01*
X79195509Y-87441985D01*
X79195507Y-87441983D01*
X79195504Y-87441979D01*
X79093020Y-87339495D01*
X79093016Y-87339492D01*
X79093015Y-87339491D01*
X78967485Y-87267016D01*
X78967484Y-87267015D01*
X78967483Y-87267015D01*
X78827479Y-87229500D01*
X78827475Y-87229500D01*
X78682525Y-87229500D01*
X78682520Y-87229500D01*
X78542517Y-87267015D01*
X78542515Y-87267015D01*
X78416983Y-87339492D01*
X78416979Y-87339495D01*
X78314495Y-87441979D01*
X78314492Y-87441983D01*
X78242015Y-87567515D01*
X78242015Y-87567517D01*
X78204500Y-87707520D01*
X77447082Y-87707520D01*
X77428009Y-87674485D01*
X77428007Y-87674483D01*
X77428004Y-87674479D01*
X77325520Y-87571995D01*
X77325516Y-87571992D01*
X77325515Y-87571991D01*
X77199985Y-87499516D01*
X77199984Y-87499515D01*
X77199983Y-87499515D01*
X77059979Y-87462000D01*
X77059975Y-87462000D01*
X76915025Y-87462000D01*
X76915020Y-87462000D01*
X76775017Y-87499515D01*
X76775015Y-87499515D01*
X76649483Y-87571992D01*
X76649479Y-87571995D01*
X76546995Y-87674479D01*
X76546992Y-87674483D01*
X76474515Y-87800015D01*
X76474515Y-87800017D01*
X76437000Y-87940020D01*
X74185500Y-87940020D01*
X74185500Y-87079735D01*
X74203806Y-87035541D01*
X74248000Y-87017235D01*
X74279251Y-87025609D01*
X74296453Y-87035541D01*
X74305015Y-87040484D01*
X74385844Y-87062142D01*
X74445020Y-87077999D01*
X74445022Y-87077999D01*
X74445025Y-87078000D01*
X74445027Y-87078000D01*
X74589973Y-87078000D01*
X74589975Y-87078000D01*
X74729985Y-87040484D01*
X74855515Y-86968009D01*
X74958009Y-86865515D01*
X75030484Y-86739985D01*
X75068000Y-86599975D01*
X75068000Y-86455025D01*
X75061964Y-86432500D01*
X75031958Y-86320516D01*
X75030484Y-86315015D01*
X74958009Y-86189485D01*
X74958007Y-86189483D01*
X74958004Y-86189479D01*
X74855520Y-86086995D01*
X74855516Y-86086992D01*
X74855515Y-86086991D01*
X74729985Y-86014516D01*
X74729984Y-86014515D01*
X74729983Y-86014515D01*
X74630528Y-85987866D01*
X74592578Y-85958746D01*
X74586335Y-85911319D01*
X74587332Y-85910020D01*
X95177000Y-85910020D01*
X95177000Y-86054979D01*
X95214515Y-86194982D01*
X95214515Y-86194984D01*
X95286992Y-86320516D01*
X95286995Y-86320520D01*
X95389479Y-86423004D01*
X95389483Y-86423007D01*
X95389485Y-86423009D01*
X95515015Y-86495484D01*
X95576746Y-86512025D01*
X95655020Y-86532999D01*
X95655022Y-86532999D01*
X95655025Y-86533000D01*
X95655027Y-86533000D01*
X95799973Y-86533000D01*
X95799975Y-86533000D01*
X95939985Y-86495484D01*
X96065515Y-86423009D01*
X96168009Y-86320515D01*
X96240484Y-86194985D01*
X96278000Y-86054975D01*
X96278000Y-85910025D01*
X96240484Y-85770015D01*
X96168009Y-85644485D01*
X96168007Y-85644483D01*
X96168004Y-85644479D01*
X96065520Y-85541995D01*
X96065516Y-85541992D01*
X96065515Y-85541991D01*
X95939985Y-85469516D01*
X95939984Y-85469515D01*
X95939983Y-85469515D01*
X95799979Y-85432000D01*
X95799975Y-85432000D01*
X95655025Y-85432000D01*
X95655020Y-85432000D01*
X95515017Y-85469515D01*
X95515015Y-85469515D01*
X95389483Y-85541992D01*
X95389479Y-85541995D01*
X95286995Y-85644479D01*
X95286992Y-85644483D01*
X95214515Y-85770015D01*
X95214515Y-85770017D01*
X95177000Y-85910020D01*
X74587332Y-85910020D01*
X74615455Y-85873369D01*
X74635135Y-85866076D01*
X74640868Y-85864996D01*
X74672475Y-85864996D01*
X74812485Y-85827480D01*
X74938015Y-85755005D01*
X75009718Y-85683302D01*
X75053912Y-85664996D01*
X75526647Y-85664996D01*
X75526648Y-85664996D01*
X75615792Y-85641110D01*
X75626412Y-85634978D01*
X75626417Y-85634977D01*
X75626416Y-85634976D01*
X75695716Y-85594966D01*
X76130469Y-85160212D01*
X76175337Y-85082500D01*
X76176613Y-85080290D01*
X76176614Y-85080287D01*
X76183394Y-85054985D01*
X76183394Y-85054984D01*
X76200499Y-84991148D01*
X76200500Y-84991142D01*
X76200500Y-84295021D01*
X83627002Y-84295021D01*
X83627002Y-84439980D01*
X83664517Y-84579983D01*
X83664517Y-84579985D01*
X83736994Y-84705517D01*
X83736997Y-84705521D01*
X83839481Y-84808005D01*
X83839485Y-84808008D01*
X83839487Y-84808010D01*
X83965017Y-84880485D01*
X84026748Y-84897026D01*
X84105022Y-84918000D01*
X84105024Y-84918000D01*
X84105027Y-84918001D01*
X84105029Y-84918001D01*
X84249975Y-84918001D01*
X84249977Y-84918001D01*
X84389987Y-84880485D01*
X84515517Y-84808010D01*
X84553507Y-84770020D01*
X91967000Y-84770020D01*
X91967000Y-84914979D01*
X92004515Y-85054982D01*
X92004515Y-85054984D01*
X92019126Y-85080290D01*
X92065268Y-85160211D01*
X92076992Y-85180516D01*
X92076995Y-85180520D01*
X92179479Y-85283004D01*
X92179483Y-85283007D01*
X92179485Y-85283009D01*
X92305015Y-85355484D01*
X92366746Y-85372025D01*
X92445020Y-85392999D01*
X92445022Y-85392999D01*
X92445025Y-85393000D01*
X92445027Y-85393000D01*
X92589973Y-85393000D01*
X92589975Y-85393000D01*
X92729985Y-85355484D01*
X92855515Y-85283009D01*
X92958009Y-85180515D01*
X93030484Y-85054985D01*
X93051580Y-84976255D01*
X134887500Y-84976255D01*
X134887500Y-85188744D01*
X134887501Y-85188760D01*
X134920741Y-85398623D01*
X134920741Y-85398624D01*
X134986405Y-85600718D01*
X134986406Y-85600721D01*
X135082879Y-85790057D01*
X135122227Y-85844216D01*
X135598189Y-85368254D01*
X135617168Y-85414074D01*
X135693774Y-85528724D01*
X135791276Y-85626226D01*
X135905926Y-85702832D01*
X135951743Y-85721809D01*
X135475781Y-86197771D01*
X135529942Y-86237120D01*
X135719278Y-86333593D01*
X135719281Y-86333594D01*
X135921375Y-86399258D01*
X136131239Y-86432498D01*
X136131255Y-86432500D01*
X136343745Y-86432500D01*
X136343760Y-86432498D01*
X136553623Y-86399258D01*
X136553624Y-86399258D01*
X136755718Y-86333594D01*
X136755726Y-86333590D01*
X136945049Y-86237125D01*
X136999216Y-86197770D01*
X136523256Y-85721810D01*
X136569074Y-85702832D01*
X136683724Y-85626226D01*
X136781226Y-85528724D01*
X136857832Y-85414074D01*
X136876810Y-85368256D01*
X137352770Y-85844216D01*
X137392125Y-85790049D01*
X137488590Y-85600726D01*
X137488594Y-85600718D01*
X137554258Y-85398624D01*
X137554258Y-85398623D01*
X137587498Y-85188760D01*
X137587500Y-85188744D01*
X137587500Y-84976255D01*
X139987500Y-84976255D01*
X139987500Y-85188744D01*
X139987501Y-85188760D01*
X140020741Y-85398623D01*
X140020741Y-85398624D01*
X140086405Y-85600718D01*
X140086406Y-85600721D01*
X140182879Y-85790057D01*
X140222227Y-85844216D01*
X140698189Y-85368254D01*
X140717168Y-85414074D01*
X140793774Y-85528724D01*
X140891276Y-85626226D01*
X141005926Y-85702832D01*
X141051743Y-85721809D01*
X140575781Y-86197771D01*
X140629942Y-86237120D01*
X140819278Y-86333593D01*
X140819281Y-86333594D01*
X141021375Y-86399258D01*
X141231239Y-86432498D01*
X141231255Y-86432500D01*
X141443745Y-86432500D01*
X141443760Y-86432498D01*
X141653623Y-86399258D01*
X141653624Y-86399258D01*
X141855718Y-86333594D01*
X141855726Y-86333590D01*
X142045049Y-86237125D01*
X142099216Y-86197770D01*
X141623256Y-85721810D01*
X141669074Y-85702832D01*
X141783724Y-85626226D01*
X141881226Y-85528724D01*
X141957832Y-85414074D01*
X141976810Y-85368256D01*
X142452770Y-85844216D01*
X142492125Y-85790049D01*
X142588590Y-85600726D01*
X142588594Y-85600718D01*
X142654258Y-85398624D01*
X142654258Y-85398623D01*
X142687498Y-85188760D01*
X142687500Y-85188744D01*
X142687500Y-84976255D01*
X142687498Y-84976239D01*
X142654258Y-84766376D01*
X142654258Y-84766375D01*
X142588594Y-84564281D01*
X142588593Y-84564278D01*
X142492120Y-84374942D01*
X142452770Y-84320781D01*
X141976809Y-84796742D01*
X141957832Y-84750926D01*
X141881226Y-84636276D01*
X141783724Y-84538774D01*
X141669074Y-84462168D01*
X141623254Y-84443189D01*
X142099217Y-83967227D01*
X142045057Y-83927879D01*
X141855721Y-83831406D01*
X141855718Y-83831405D01*
X141653624Y-83765741D01*
X141443760Y-83732501D01*
X141443745Y-83732500D01*
X141231255Y-83732500D01*
X141231239Y-83732501D01*
X141021376Y-83765741D01*
X141021375Y-83765741D01*
X140819281Y-83831405D01*
X140819278Y-83831406D01*
X140629944Y-83927878D01*
X140629939Y-83927881D01*
X140575782Y-83967227D01*
X140575781Y-83967227D01*
X141051743Y-84443189D01*
X141005926Y-84462168D01*
X140891276Y-84538774D01*
X140793774Y-84636276D01*
X140717168Y-84750926D01*
X140698189Y-84796743D01*
X140222227Y-84320781D01*
X140222227Y-84320782D01*
X140182881Y-84374939D01*
X140182878Y-84374944D01*
X140086406Y-84564278D01*
X140086405Y-84564281D01*
X140020741Y-84766375D01*
X140020741Y-84766376D01*
X139987501Y-84976239D01*
X139987500Y-84976255D01*
X137587500Y-84976255D01*
X137587498Y-84976239D01*
X137554258Y-84766376D01*
X137554258Y-84766375D01*
X137488594Y-84564281D01*
X137488593Y-84564278D01*
X137392120Y-84374942D01*
X137352770Y-84320781D01*
X136876809Y-84796742D01*
X136857832Y-84750926D01*
X136781226Y-84636276D01*
X136683724Y-84538774D01*
X136569074Y-84462168D01*
X136523254Y-84443189D01*
X136999217Y-83967227D01*
X136945057Y-83927879D01*
X136755721Y-83831406D01*
X136755718Y-83831405D01*
X136553624Y-83765741D01*
X136343760Y-83732501D01*
X136343745Y-83732500D01*
X136131255Y-83732500D01*
X136131239Y-83732501D01*
X135921376Y-83765741D01*
X135921375Y-83765741D01*
X135719281Y-83831405D01*
X135719278Y-83831406D01*
X135529944Y-83927878D01*
X135529939Y-83927881D01*
X135475782Y-83967227D01*
X135475781Y-83967227D01*
X135951743Y-84443189D01*
X135905926Y-84462168D01*
X135791276Y-84538774D01*
X135693774Y-84636276D01*
X135617168Y-84750926D01*
X135598189Y-84796743D01*
X135122227Y-84320781D01*
X135122227Y-84320782D01*
X135082881Y-84374939D01*
X135082878Y-84374944D01*
X134986406Y-84564278D01*
X134986405Y-84564281D01*
X134920741Y-84766375D01*
X134920741Y-84766376D01*
X134887501Y-84976239D01*
X134887500Y-84976255D01*
X93051580Y-84976255D01*
X93068000Y-84914975D01*
X93068000Y-84770025D01*
X93067022Y-84766376D01*
X93050715Y-84705516D01*
X93030484Y-84630015D01*
X92958009Y-84504485D01*
X92958007Y-84504483D01*
X92958004Y-84504479D01*
X92855520Y-84401995D01*
X92855516Y-84401992D01*
X92855515Y-84401991D01*
X92729985Y-84329516D01*
X92729984Y-84329515D01*
X92729983Y-84329515D01*
X92589979Y-84292000D01*
X92589975Y-84292000D01*
X92445025Y-84292000D01*
X92445020Y-84292000D01*
X92305017Y-84329515D01*
X92305015Y-84329515D01*
X92179483Y-84401992D01*
X92179479Y-84401995D01*
X92076995Y-84504479D01*
X92076992Y-84504483D01*
X92004515Y-84630015D01*
X92004515Y-84630017D01*
X91967000Y-84770020D01*
X84553507Y-84770020D01*
X84557152Y-84766375D01*
X84601794Y-84721734D01*
X84618006Y-84705521D01*
X84618011Y-84705516D01*
X84690486Y-84579986D01*
X84728002Y-84439976D01*
X84728002Y-84295026D01*
X84690486Y-84155016D01*
X84618011Y-84029486D01*
X84618008Y-84029483D01*
X84618007Y-84029481D01*
X84515522Y-83926996D01*
X84515518Y-83926993D01*
X84515517Y-83926992D01*
X84389987Y-83854517D01*
X84389986Y-83854516D01*
X84389985Y-83854516D01*
X84249981Y-83817001D01*
X84249977Y-83817001D01*
X84105027Y-83817001D01*
X84105022Y-83817001D01*
X83965019Y-83854516D01*
X83965017Y-83854516D01*
X83839485Y-83926993D01*
X83839481Y-83926996D01*
X83736997Y-84029480D01*
X83736994Y-84029484D01*
X83664517Y-84155016D01*
X83664517Y-84155018D01*
X83627002Y-84295021D01*
X76200500Y-84295021D01*
X76200500Y-81516070D01*
X76218806Y-81471876D01*
X76976876Y-80713806D01*
X77021070Y-80695500D01*
X84749336Y-80695500D01*
X84793530Y-80713806D01*
X84811836Y-80758000D01*
X84793530Y-80802194D01*
X84721244Y-80874479D01*
X84721241Y-80874483D01*
X84648764Y-81000015D01*
X84648764Y-81000017D01*
X84611249Y-81140020D01*
X84611249Y-81284979D01*
X84648764Y-81424982D01*
X84648764Y-81424984D01*
X84683112Y-81484476D01*
X84708426Y-81528321D01*
X84721241Y-81550516D01*
X84721244Y-81550520D01*
X84823728Y-81653004D01*
X84823732Y-81653007D01*
X84823734Y-81653009D01*
X84949264Y-81725484D01*
X85010995Y-81742025D01*
X85089269Y-81762999D01*
X85089271Y-81762999D01*
X85089274Y-81763000D01*
X85089276Y-81763000D01*
X85234222Y-81763000D01*
X85234224Y-81763000D01*
X85374234Y-81725484D01*
X85499764Y-81653009D01*
X85602258Y-81550515D01*
X85674733Y-81424985D01*
X85712249Y-81284975D01*
X85712249Y-81140025D01*
X85710863Y-81134854D01*
X85694019Y-81071991D01*
X85674733Y-81000015D01*
X85602258Y-80874485D01*
X85602256Y-80874483D01*
X85602253Y-80874479D01*
X85529968Y-80802194D01*
X85511662Y-80758000D01*
X85529968Y-80713806D01*
X85574162Y-80695500D01*
X92778930Y-80695500D01*
X92823124Y-80713806D01*
X93286194Y-81176876D01*
X93304500Y-81221070D01*
X93304500Y-81558587D01*
X93286194Y-81602781D01*
X93214495Y-81674479D01*
X93214492Y-81674483D01*
X93142015Y-81800015D01*
X93142015Y-81800017D01*
X93104500Y-81940020D01*
X93104500Y-82084979D01*
X93142015Y-82224982D01*
X93142015Y-82224984D01*
X93159240Y-82254818D01*
X93204257Y-82332790D01*
X93214490Y-82350513D01*
X93214495Y-82350520D01*
X93316979Y-82453004D01*
X93316983Y-82453007D01*
X93316985Y-82453009D01*
X93442515Y-82525484D01*
X93463825Y-82531194D01*
X93582520Y-82562999D01*
X93582522Y-82562999D01*
X93582525Y-82563000D01*
X93582527Y-82563000D01*
X93727473Y-82563000D01*
X93727475Y-82563000D01*
X93731286Y-82561979D01*
X93738959Y-82559922D01*
X93867485Y-82525484D01*
X93993015Y-82453009D01*
X94095509Y-82350515D01*
X94167984Y-82224985D01*
X94205500Y-82084975D01*
X94205500Y-81940025D01*
X94167984Y-81800015D01*
X94095509Y-81674485D01*
X94095507Y-81674483D01*
X94095504Y-81674479D01*
X94023806Y-81602781D01*
X94005500Y-81558587D01*
X94005500Y-81003857D01*
X94005498Y-81003849D01*
X93981615Y-80914715D01*
X93981614Y-80914714D01*
X93981614Y-80914712D01*
X93976661Y-80906134D01*
X93965995Y-80887658D01*
X93965995Y-80887657D01*
X93935472Y-80834791D01*
X93935465Y-80834782D01*
X93452876Y-80352194D01*
X93434570Y-80308000D01*
X93452876Y-80263806D01*
X93497070Y-80245500D01*
X94528930Y-80245500D01*
X94573124Y-80263806D01*
X94786194Y-80476876D01*
X94804500Y-80521070D01*
X94804500Y-81458587D01*
X94786194Y-81502781D01*
X94714495Y-81574479D01*
X94714492Y-81574483D01*
X94642015Y-81700015D01*
X94642015Y-81700017D01*
X94604500Y-81840020D01*
X94604500Y-81984979D01*
X94642015Y-82124982D01*
X94642015Y-82124984D01*
X94664837Y-82164512D01*
X94699749Y-82224982D01*
X94714492Y-82250516D01*
X94714495Y-82250520D01*
X94816979Y-82353004D01*
X94816983Y-82353007D01*
X94816985Y-82353009D01*
X94942515Y-82425484D01*
X94995375Y-82439648D01*
X95082520Y-82462999D01*
X95082522Y-82462999D01*
X95082525Y-82463000D01*
X95082527Y-82463000D01*
X95227473Y-82463000D01*
X95227475Y-82463000D01*
X95367485Y-82425484D01*
X95493015Y-82353009D01*
X95595509Y-82250515D01*
X95667984Y-82124985D01*
X95693375Y-82030224D01*
X95722495Y-81992274D01*
X95769921Y-81986031D01*
X95784995Y-81992275D01*
X95842509Y-82025481D01*
X95842511Y-82025481D01*
X95842515Y-82025484D01*
X95928198Y-82048443D01*
X95982520Y-82062999D01*
X95982522Y-82062999D01*
X95982525Y-82063000D01*
X95982527Y-82063000D01*
X96127473Y-82063000D01*
X96127475Y-82063000D01*
X96267485Y-82025484D01*
X96393015Y-81953009D01*
X96464718Y-81881306D01*
X96508912Y-81863000D01*
X96628643Y-81863000D01*
X96628644Y-81863000D01*
X96717788Y-81839114D01*
X96728407Y-81832982D01*
X96728412Y-81832982D01*
X96728412Y-81832981D01*
X96765139Y-81811775D01*
X96797712Y-81792970D01*
X97026917Y-81563765D01*
X97062361Y-81528321D01*
X137387000Y-81528321D01*
X137387000Y-83536678D01*
X137389853Y-83567115D01*
X137389854Y-83567120D01*
X137429691Y-83680966D01*
X137434717Y-83695330D01*
X137515379Y-83804621D01*
X137624670Y-83885283D01*
X137752882Y-83930146D01*
X137783318Y-83933000D01*
X137783321Y-83933000D01*
X139791679Y-83933000D01*
X139791682Y-83933000D01*
X139822118Y-83930146D01*
X139950330Y-83885283D01*
X140059621Y-83804621D01*
X140140283Y-83695330D01*
X140185146Y-83567118D01*
X140188000Y-83536682D01*
X140188000Y-81528318D01*
X140185146Y-81497882D01*
X140140283Y-81369670D01*
X140059621Y-81260379D01*
X139950330Y-81179717D01*
X139942211Y-81176876D01*
X139822118Y-81134853D01*
X139797942Y-81132587D01*
X139791682Y-81132000D01*
X137783318Y-81132000D01*
X137775492Y-81132733D01*
X137752884Y-81134853D01*
X137752879Y-81134854D01*
X137624669Y-81179717D01*
X137515379Y-81260379D01*
X137434717Y-81369669D01*
X137389854Y-81497879D01*
X137389853Y-81497884D01*
X137387000Y-81528321D01*
X97062361Y-81528321D01*
X97108020Y-81482663D01*
X97230464Y-81360218D01*
X97230469Y-81360213D01*
X97276614Y-81280288D01*
X97280285Y-81266587D01*
X97300500Y-81191144D01*
X97300500Y-79876255D01*
X134887500Y-79876255D01*
X134887500Y-80088744D01*
X134887501Y-80088760D01*
X134920741Y-80298623D01*
X134920741Y-80298624D01*
X134986405Y-80500718D01*
X134986406Y-80500721D01*
X135082879Y-80690057D01*
X135122227Y-80744216D01*
X135598189Y-80268254D01*
X135617168Y-80314074D01*
X135693774Y-80428724D01*
X135791276Y-80526226D01*
X135905926Y-80602832D01*
X135951743Y-80621809D01*
X135475781Y-81097771D01*
X135529942Y-81137120D01*
X135719278Y-81233593D01*
X135719281Y-81233594D01*
X135921375Y-81299258D01*
X136131239Y-81332498D01*
X136131255Y-81332500D01*
X136343745Y-81332500D01*
X136343760Y-81332498D01*
X136553623Y-81299258D01*
X136553624Y-81299258D01*
X136755718Y-81233594D01*
X136755726Y-81233590D01*
X136945049Y-81137125D01*
X136999216Y-81097770D01*
X136523256Y-80621810D01*
X136569074Y-80602832D01*
X136683724Y-80526226D01*
X136781226Y-80428724D01*
X136857832Y-80314074D01*
X136876810Y-80268256D01*
X137352770Y-80744216D01*
X137392125Y-80690049D01*
X137488590Y-80500726D01*
X137488594Y-80500718D01*
X137554258Y-80298624D01*
X137554258Y-80298623D01*
X137587498Y-80088760D01*
X137587500Y-80088744D01*
X137587500Y-79876255D01*
X139987500Y-79876255D01*
X139987500Y-80088744D01*
X139987501Y-80088760D01*
X140020741Y-80298623D01*
X140020741Y-80298624D01*
X140086405Y-80500718D01*
X140086406Y-80500721D01*
X140182879Y-80690057D01*
X140222227Y-80744216D01*
X140698189Y-80268254D01*
X140717168Y-80314074D01*
X140793774Y-80428724D01*
X140891276Y-80526226D01*
X141005926Y-80602832D01*
X141051743Y-80621809D01*
X140575781Y-81097771D01*
X140629942Y-81137120D01*
X140819278Y-81233593D01*
X140819281Y-81233594D01*
X141021375Y-81299258D01*
X141231239Y-81332498D01*
X141231255Y-81332500D01*
X141443745Y-81332500D01*
X141443760Y-81332498D01*
X141653623Y-81299258D01*
X141653624Y-81299258D01*
X141855718Y-81233594D01*
X141855726Y-81233590D01*
X142045049Y-81137125D01*
X142099216Y-81097770D01*
X141623256Y-80621810D01*
X141669074Y-80602832D01*
X141783724Y-80526226D01*
X141881226Y-80428724D01*
X141957832Y-80314074D01*
X141976810Y-80268256D01*
X142452770Y-80744216D01*
X142492125Y-80690049D01*
X142588590Y-80500726D01*
X142588594Y-80500718D01*
X142654258Y-80298624D01*
X142654258Y-80298623D01*
X142687498Y-80088760D01*
X142687500Y-80088744D01*
X142687500Y-79876255D01*
X142687498Y-79876239D01*
X142654258Y-79666376D01*
X142654258Y-79666375D01*
X142588594Y-79464281D01*
X142588593Y-79464278D01*
X142492120Y-79274942D01*
X142452770Y-79220781D01*
X141976809Y-79696742D01*
X141957832Y-79650926D01*
X141881226Y-79536276D01*
X141783724Y-79438774D01*
X141669074Y-79362168D01*
X141623254Y-79343189D01*
X142099217Y-78867227D01*
X142045057Y-78827879D01*
X141855721Y-78731406D01*
X141855718Y-78731405D01*
X141653624Y-78665741D01*
X141443760Y-78632501D01*
X141443745Y-78632500D01*
X141231255Y-78632500D01*
X141231239Y-78632501D01*
X141021376Y-78665741D01*
X141021375Y-78665741D01*
X140819281Y-78731405D01*
X140819278Y-78731406D01*
X140629944Y-78827878D01*
X140629939Y-78827881D01*
X140575782Y-78867227D01*
X140575781Y-78867227D01*
X141051743Y-79343189D01*
X141005926Y-79362168D01*
X140891276Y-79438774D01*
X140793774Y-79536276D01*
X140717168Y-79650926D01*
X140698189Y-79696743D01*
X140222227Y-79220781D01*
X140222227Y-79220782D01*
X140182881Y-79274939D01*
X140182878Y-79274944D01*
X140086406Y-79464278D01*
X140086405Y-79464281D01*
X140020741Y-79666375D01*
X140020741Y-79666376D01*
X139987501Y-79876239D01*
X139987500Y-79876255D01*
X137587500Y-79876255D01*
X137587498Y-79876239D01*
X137554258Y-79666376D01*
X137554258Y-79666375D01*
X137488594Y-79464281D01*
X137488593Y-79464278D01*
X137392120Y-79274942D01*
X137352770Y-79220781D01*
X136876809Y-79696742D01*
X136857832Y-79650926D01*
X136781226Y-79536276D01*
X136683724Y-79438774D01*
X136569074Y-79362168D01*
X136523254Y-79343189D01*
X136999217Y-78867227D01*
X136945057Y-78827879D01*
X136755721Y-78731406D01*
X136755718Y-78731405D01*
X136553624Y-78665741D01*
X136343760Y-78632501D01*
X136343745Y-78632500D01*
X136131255Y-78632500D01*
X136131239Y-78632501D01*
X135921376Y-78665741D01*
X135921375Y-78665741D01*
X135719281Y-78731405D01*
X135719278Y-78731406D01*
X135529944Y-78827878D01*
X135529939Y-78827881D01*
X135475782Y-78867227D01*
X135475781Y-78867227D01*
X135951743Y-79343189D01*
X135905926Y-79362168D01*
X135791276Y-79438774D01*
X135693774Y-79536276D01*
X135617168Y-79650926D01*
X135598189Y-79696743D01*
X135122227Y-79220781D01*
X135122227Y-79220782D01*
X135082881Y-79274939D01*
X135082878Y-79274944D01*
X134986406Y-79464278D01*
X134986405Y-79464281D01*
X134920741Y-79666375D01*
X134920741Y-79666376D01*
X134887501Y-79876239D01*
X134887500Y-79876255D01*
X97300500Y-79876255D01*
X97300500Y-79398856D01*
X97282400Y-79331306D01*
X97276615Y-79309715D01*
X97276614Y-79309714D01*
X97276614Y-79309712D01*
X97259626Y-79280288D01*
X97259626Y-79280287D01*
X97230472Y-79229791D01*
X97230465Y-79229782D01*
X96682717Y-78682034D01*
X96682713Y-78682031D01*
X96682712Y-78682030D01*
X96602788Y-78635886D01*
X96597048Y-78634348D01*
X96580367Y-78629878D01*
X96513648Y-78612000D01*
X96513644Y-78612000D01*
X91402726Y-78612000D01*
X91358532Y-78593694D01*
X91340226Y-78549500D01*
X91348600Y-78518249D01*
X91350483Y-78514987D01*
X91350483Y-78514986D01*
X91350484Y-78514985D01*
X91388000Y-78374975D01*
X91388000Y-78230025D01*
X91386779Y-78225470D01*
X91371427Y-78168176D01*
X91350484Y-78090015D01*
X91278009Y-77964485D01*
X91278007Y-77964483D01*
X91278004Y-77964479D01*
X91175520Y-77861995D01*
X91175516Y-77861992D01*
X91175515Y-77861991D01*
X91049985Y-77789516D01*
X91049984Y-77789515D01*
X91049983Y-77789515D01*
X90909979Y-77752000D01*
X90909975Y-77752000D01*
X90765025Y-77752000D01*
X90765020Y-77752000D01*
X90625017Y-77789515D01*
X90625015Y-77789515D01*
X90499483Y-77861992D01*
X90499479Y-77861995D01*
X90396995Y-77964479D01*
X90396992Y-77964483D01*
X90324515Y-78090015D01*
X90324515Y-78090017D01*
X90287000Y-78230020D01*
X90287000Y-78374979D01*
X90324516Y-78514985D01*
X90324516Y-78514987D01*
X90326400Y-78518249D01*
X90332645Y-78565676D01*
X90303525Y-78603626D01*
X90272274Y-78612000D01*
X87185415Y-78612000D01*
X87141221Y-78593694D01*
X87122915Y-78549500D01*
X87125045Y-78533323D01*
X87137999Y-78484980D01*
X87138000Y-78484974D01*
X87138000Y-78383570D01*
X87156306Y-78339376D01*
X87181876Y-78313806D01*
X87226070Y-78295500D01*
X88696143Y-78295500D01*
X88696144Y-78295500D01*
X88785288Y-78271614D01*
X88795878Y-78265500D01*
X88865212Y-78225470D01*
X89730470Y-77360212D01*
X89776614Y-77280288D01*
X89800500Y-77191144D01*
X89800500Y-77098856D01*
X89800500Y-76116070D01*
X89818806Y-76071876D01*
X90409376Y-75481306D01*
X90453570Y-75463000D01*
X92733588Y-75463000D01*
X92777782Y-75481306D01*
X92849485Y-75553009D01*
X92975015Y-75625484D01*
X93036746Y-75642025D01*
X93115020Y-75662999D01*
X93115022Y-75662999D01*
X93115025Y-75663000D01*
X93115027Y-75663000D01*
X93259973Y-75663000D01*
X93259975Y-75663000D01*
X93399985Y-75625484D01*
X93525515Y-75553009D01*
X93628009Y-75450515D01*
X93700484Y-75324985D01*
X93735988Y-75192484D01*
X93737999Y-75184979D01*
X93738000Y-75184973D01*
X93738000Y-75040026D01*
X93737999Y-75040020D01*
X93714683Y-74953007D01*
X93702495Y-74907520D01*
X95904500Y-74907520D01*
X95904500Y-75052479D01*
X95942015Y-75192482D01*
X95942015Y-75192484D01*
X95965235Y-75232701D01*
X96001491Y-75295499D01*
X96014492Y-75318016D01*
X96014495Y-75318020D01*
X96116979Y-75420504D01*
X96116983Y-75420507D01*
X96116985Y-75420509D01*
X96242515Y-75492984D01*
X96294767Y-75506985D01*
X96382520Y-75530499D01*
X96382522Y-75530499D01*
X96382525Y-75530500D01*
X96382527Y-75530500D01*
X96527473Y-75530500D01*
X96527475Y-75530500D01*
X96667485Y-75492984D01*
X96793015Y-75420509D01*
X96895509Y-75318015D01*
X96967984Y-75192485D01*
X97005357Y-75053009D01*
X97005499Y-75052479D01*
X97005500Y-75052473D01*
X97005500Y-74907526D01*
X97005499Y-74907520D01*
X96975310Y-74794856D01*
X96967984Y-74767515D01*
X96895509Y-74641985D01*
X96895507Y-74641983D01*
X96895504Y-74641979D01*
X96793020Y-74539495D01*
X96793016Y-74539492D01*
X96793015Y-74539491D01*
X96667485Y-74467016D01*
X96667484Y-74467015D01*
X96667483Y-74467015D01*
X96527479Y-74429500D01*
X96527475Y-74429500D01*
X96382525Y-74429500D01*
X96382520Y-74429500D01*
X96242517Y-74467015D01*
X96242515Y-74467015D01*
X96116983Y-74539492D01*
X96116979Y-74539495D01*
X96014495Y-74641979D01*
X96014492Y-74641983D01*
X95942015Y-74767515D01*
X95942015Y-74767517D01*
X95904500Y-74907520D01*
X93702495Y-74907520D01*
X93700484Y-74900015D01*
X93628009Y-74774485D01*
X93628007Y-74774483D01*
X93628004Y-74774479D01*
X93525520Y-74671995D01*
X93525516Y-74671992D01*
X93525515Y-74671991D01*
X93399985Y-74599516D01*
X93399984Y-74599515D01*
X93399983Y-74599515D01*
X93259979Y-74562000D01*
X93259975Y-74562000D01*
X93115025Y-74562000D01*
X93115020Y-74562000D01*
X92975017Y-74599515D01*
X92975015Y-74599515D01*
X92849483Y-74671992D01*
X92849480Y-74671995D01*
X92777782Y-74743694D01*
X92733588Y-74762000D01*
X90328644Y-74762000D01*
X90236356Y-74762000D01*
X90236355Y-74762000D01*
X90236349Y-74762001D01*
X90147215Y-74785884D01*
X90147212Y-74785885D01*
X90067286Y-74832031D01*
X90067282Y-74832034D01*
X89169534Y-75729782D01*
X89169531Y-75729786D01*
X89123385Y-75809712D01*
X89123384Y-75809715D01*
X89099501Y-75898849D01*
X89099500Y-75898857D01*
X89099500Y-76973930D01*
X89081194Y-77018124D01*
X88523124Y-77576194D01*
X88478930Y-77594500D01*
X87101144Y-77594500D01*
X87008856Y-77594500D01*
X87008855Y-77594500D01*
X87008849Y-77594501D01*
X86919715Y-77618384D01*
X86919712Y-77618385D01*
X86839786Y-77664531D01*
X86839782Y-77664534D01*
X86660624Y-77843694D01*
X86616430Y-77862000D01*
X86515020Y-77862000D01*
X86375017Y-77899515D01*
X86375015Y-77899515D01*
X86249483Y-77971992D01*
X86249479Y-77971995D01*
X86146995Y-78074479D01*
X86146992Y-78074483D01*
X86074515Y-78200015D01*
X86074515Y-78200017D01*
X86037000Y-78340020D01*
X86037000Y-78484980D01*
X86049955Y-78533323D01*
X86043712Y-78580749D01*
X86005762Y-78609870D01*
X85989585Y-78612000D01*
X81729692Y-78612000D01*
X81685498Y-78593694D01*
X81667192Y-78549500D01*
X81669322Y-78533323D01*
X81672998Y-78519603D01*
X81672999Y-78519597D01*
X81672999Y-78374650D01*
X81672998Y-78374644D01*
X81649807Y-78288097D01*
X81635483Y-78234639D01*
X81563008Y-78109109D01*
X81563006Y-78109107D01*
X81563003Y-78109103D01*
X81460519Y-78006619D01*
X81460515Y-78006616D01*
X81460514Y-78006615D01*
X81334984Y-77934140D01*
X81334983Y-77934139D01*
X81334982Y-77934139D01*
X81194978Y-77896624D01*
X81194974Y-77896624D01*
X81050024Y-77896624D01*
X81050019Y-77896624D01*
X80910016Y-77934139D01*
X80910014Y-77934139D01*
X80784482Y-78006616D01*
X80784478Y-78006619D01*
X80681994Y-78109103D01*
X80681991Y-78109107D01*
X80609514Y-78234639D01*
X80609514Y-78234641D01*
X80571999Y-78374644D01*
X80571999Y-78519603D01*
X80575676Y-78533323D01*
X80569433Y-78580750D01*
X80531483Y-78609870D01*
X80515306Y-78612000D01*
X78808570Y-78612000D01*
X78764376Y-78593694D01*
X78390217Y-78219534D01*
X78390208Y-78219527D01*
X78379993Y-78213629D01*
X78357120Y-78190756D01*
X78340509Y-78161985D01*
X78340508Y-78161984D01*
X78340507Y-78161982D01*
X78238020Y-78059495D01*
X78238016Y-78059492D01*
X78238015Y-78059491D01*
X78112485Y-77987016D01*
X78112484Y-77987015D01*
X78112483Y-77987015D01*
X77972479Y-77949500D01*
X77972475Y-77949500D01*
X77827525Y-77949500D01*
X77827520Y-77949500D01*
X77687517Y-77987015D01*
X77687515Y-77987015D01*
X77616269Y-78028150D01*
X77568843Y-78034393D01*
X77530892Y-78005273D01*
X77524649Y-77990199D01*
X77500485Y-77900018D01*
X77500484Y-77900015D01*
X77484584Y-77872475D01*
X77428009Y-77774485D01*
X77428007Y-77774483D01*
X77428004Y-77774479D01*
X77325520Y-77671995D01*
X77325516Y-77671992D01*
X77325515Y-77671991D01*
X77199985Y-77599516D01*
X77199984Y-77599515D01*
X77199983Y-77599515D01*
X77059979Y-77562000D01*
X77059975Y-77562000D01*
X76915025Y-77562000D01*
X76915020Y-77562000D01*
X76817986Y-77588001D01*
X76801683Y-77592370D01*
X76785508Y-77594500D01*
X76003851Y-77594500D01*
X75946370Y-77609903D01*
X75934873Y-77612984D01*
X75921016Y-77616697D01*
X75914711Y-77618386D01*
X75834786Y-77664531D01*
X75834782Y-77664534D01*
X75419529Y-78079788D01*
X75403017Y-78108389D01*
X75396037Y-78120480D01*
X75388486Y-78133557D01*
X75373386Y-78159710D01*
X75373385Y-78159712D01*
X75349501Y-78248849D01*
X75349500Y-78248857D01*
X75349500Y-79341148D01*
X75364962Y-79398849D01*
X75370758Y-79420480D01*
X75373386Y-79430288D01*
X75389433Y-79458083D01*
X75419531Y-79510213D01*
X75419534Y-79510217D01*
X75753012Y-79843694D01*
X76084788Y-80175470D01*
X76154126Y-80215502D01*
X76154125Y-80215502D01*
X76154128Y-80215503D01*
X76157273Y-80217319D01*
X76164709Y-80221613D01*
X76164712Y-80221614D01*
X76253856Y-80245500D01*
X76302930Y-80245500D01*
X76347124Y-80263806D01*
X76365430Y-80308000D01*
X76347124Y-80352194D01*
X75569534Y-81129782D01*
X75569531Y-81129786D01*
X75523385Y-81209712D01*
X75523384Y-81209715D01*
X75499501Y-81298849D01*
X75499500Y-81298857D01*
X75499500Y-82547820D01*
X75481194Y-82592014D01*
X75437000Y-82610320D01*
X75392806Y-82592014D01*
X75382874Y-82579071D01*
X75373009Y-82561985D01*
X75373004Y-82561979D01*
X75270520Y-82459495D01*
X75270516Y-82459492D01*
X75270515Y-82459491D01*
X75144985Y-82387016D01*
X75144984Y-82387015D01*
X75144983Y-82387015D01*
X75004979Y-82349500D01*
X75004975Y-82349500D01*
X74860025Y-82349500D01*
X74860023Y-82349500D01*
X74860017Y-82349501D01*
X74755220Y-82377581D01*
X74755210Y-82377585D01*
X74720015Y-82387016D01*
X74674033Y-82413563D01*
X74674021Y-82413569D01*
X74594488Y-82459488D01*
X74594480Y-82459495D01*
X74522782Y-82531194D01*
X74478588Y-82549500D01*
X73871070Y-82549500D01*
X73826876Y-82531194D01*
X73568806Y-82273124D01*
X73550500Y-82228930D01*
X73550500Y-81703770D01*
X73897000Y-81703770D01*
X73897000Y-81848729D01*
X73934515Y-81988732D01*
X73934515Y-81988734D01*
X73948228Y-82012485D01*
X73990080Y-82084975D01*
X74006992Y-82114266D01*
X74006995Y-82114270D01*
X74109479Y-82216754D01*
X74109483Y-82216757D01*
X74109485Y-82216759D01*
X74235015Y-82289234D01*
X74270219Y-82298667D01*
X74375020Y-82326749D01*
X74375022Y-82326749D01*
X74375025Y-82326750D01*
X74375027Y-82326750D01*
X74519973Y-82326750D01*
X74519975Y-82326750D01*
X74659985Y-82289234D01*
X74785515Y-82216759D01*
X74888009Y-82114265D01*
X74960484Y-81988735D01*
X74998000Y-81848725D01*
X74998000Y-81703775D01*
X74996992Y-81700015D01*
X74968954Y-81595375D01*
X74960484Y-81563765D01*
X74888009Y-81438235D01*
X74888007Y-81438233D01*
X74888004Y-81438229D01*
X74785520Y-81335745D01*
X74785516Y-81335742D01*
X74785515Y-81335741D01*
X74659985Y-81263266D01*
X74659984Y-81263265D01*
X74659983Y-81263265D01*
X74519979Y-81225750D01*
X74519975Y-81225750D01*
X74375025Y-81225750D01*
X74375020Y-81225750D01*
X74235017Y-81263265D01*
X74235015Y-81263265D01*
X74109483Y-81335742D01*
X74109479Y-81335745D01*
X74006995Y-81438229D01*
X74006992Y-81438233D01*
X73934515Y-81563765D01*
X73934515Y-81563767D01*
X73897000Y-81703770D01*
X73550500Y-81703770D01*
X73550500Y-79198857D01*
X73550498Y-79198849D01*
X73526615Y-79109716D01*
X73526614Y-79109712D01*
X73519730Y-79097788D01*
X73519728Y-79097784D01*
X73519728Y-79097783D01*
X73480472Y-79029791D01*
X73480465Y-79029782D01*
X69145217Y-74694534D01*
X69145213Y-74694531D01*
X69145212Y-74694530D01*
X69082983Y-74658602D01*
X69065287Y-74648385D01*
X69065284Y-74648384D01*
X68976150Y-74624501D01*
X68976145Y-74624500D01*
X68976144Y-74624500D01*
X68976143Y-74624500D01*
X66938658Y-74624500D01*
X66894464Y-74606194D01*
X66879217Y-74581313D01*
X66869873Y-74552555D01*
X66791232Y-74398212D01*
X66719887Y-74300015D01*
X66689414Y-74258072D01*
X66689407Y-74258064D01*
X66566935Y-74135592D01*
X66566927Y-74135585D01*
X66426790Y-74033769D01*
X66272451Y-73955130D01*
X66272443Y-73955126D01*
X66107699Y-73901597D01*
X65936624Y-73874501D01*
X65936612Y-73874500D01*
X65936611Y-73874500D01*
X65763389Y-73874500D01*
X65763387Y-73874500D01*
X65763375Y-73874501D01*
X65592301Y-73901597D01*
X65592300Y-73901597D01*
X65427556Y-73955126D01*
X65427548Y-73955130D01*
X65273209Y-74033769D01*
X65133072Y-74135585D01*
X65133064Y-74135592D01*
X65010592Y-74258064D01*
X65010585Y-74258072D01*
X64908769Y-74398209D01*
X64830130Y-74552548D01*
X64830126Y-74552556D01*
X64776597Y-74717300D01*
X64776597Y-74717301D01*
X64749501Y-74888375D01*
X64749500Y-74888391D01*
X59750500Y-74888391D01*
X59750500Y-72348391D01*
X64749500Y-72348391D01*
X64749500Y-72521608D01*
X64749501Y-72521624D01*
X64776597Y-72692698D01*
X64776597Y-72692699D01*
X64830126Y-72857443D01*
X64830130Y-72857451D01*
X64908769Y-73011790D01*
X65010585Y-73151927D01*
X65010592Y-73151935D01*
X65133064Y-73274407D01*
X65133072Y-73274414D01*
X65265874Y-73370901D01*
X65273212Y-73376232D01*
X65427555Y-73454873D01*
X65592299Y-73508402D01*
X65664407Y-73519822D01*
X65763375Y-73535498D01*
X65763381Y-73535498D01*
X65763389Y-73535500D01*
X65763391Y-73535500D01*
X65936609Y-73535500D01*
X65936611Y-73535500D01*
X66107701Y-73508402D01*
X66272445Y-73454873D01*
X66426788Y-73376232D01*
X66566928Y-73274414D01*
X66689414Y-73151928D01*
X66791232Y-73011788D01*
X66869873Y-72857445D01*
X66923402Y-72692701D01*
X66937573Y-72603221D01*
X66962567Y-72562436D01*
X66999304Y-72550500D01*
X67528930Y-72550500D01*
X67573124Y-72568806D01*
X73281563Y-78277245D01*
X73281573Y-78277254D01*
X73289417Y-78285098D01*
X73289419Y-78285099D01*
X73289422Y-78285102D01*
X73329602Y-78310349D01*
X73391591Y-78349300D01*
X73391594Y-78349301D01*
X73391598Y-78349304D01*
X73505498Y-78389159D01*
X73625412Y-78402670D01*
X73713227Y-78392775D01*
X73759191Y-78406017D01*
X73782330Y-78447884D01*
X73782329Y-78461885D01*
X73772433Y-78549645D01*
X73772433Y-78549647D01*
X73772433Y-78549650D01*
X73772433Y-78549653D01*
X73779847Y-78615500D01*
X73785934Y-78669567D01*
X73825780Y-78783467D01*
X73825781Y-78783471D01*
X73889973Y-78885649D01*
X73889975Y-78885651D01*
X73900015Y-78895693D01*
X73900022Y-78895704D01*
X73929303Y-78924985D01*
X73932636Y-78928318D01*
X73958816Y-78954501D01*
X73975436Y-78971122D01*
X73975463Y-78971145D01*
X74031194Y-79026876D01*
X74049500Y-79071070D01*
X74049500Y-79172479D01*
X74087015Y-79312482D01*
X74087015Y-79312484D01*
X74123253Y-79375250D01*
X74159370Y-79437806D01*
X74159492Y-79438016D01*
X74159495Y-79438020D01*
X74261979Y-79540504D01*
X74261983Y-79540507D01*
X74261985Y-79540509D01*
X74387515Y-79612984D01*
X74447082Y-79628945D01*
X74527520Y-79650499D01*
X74527522Y-79650499D01*
X74527525Y-79650500D01*
X74527527Y-79650500D01*
X74672473Y-79650500D01*
X74672475Y-79650500D01*
X74812485Y-79612984D01*
X74938015Y-79540509D01*
X75040509Y-79438015D01*
X75112984Y-79312485D01*
X75150500Y-79172475D01*
X75150500Y-79027525D01*
X75138193Y-78981597D01*
X75127183Y-78940507D01*
X75112984Y-78887515D01*
X75040509Y-78761985D01*
X75040507Y-78761983D01*
X75040504Y-78761979D01*
X74938020Y-78659495D01*
X74938016Y-78659492D01*
X74938015Y-78659491D01*
X74812485Y-78587016D01*
X74812484Y-78587015D01*
X74812483Y-78587015D01*
X74672479Y-78549500D01*
X74672475Y-78549500D01*
X74613566Y-78549500D01*
X74569372Y-78531194D01*
X74551066Y-78487000D01*
X74554578Y-78466345D01*
X74566190Y-78433181D01*
X74575004Y-78408010D01*
X74588538Y-78288097D01*
X74575047Y-78168178D01*
X74535207Y-78054270D01*
X74471016Y-77952084D01*
X74468433Y-77949500D01*
X74464059Y-77945125D01*
X74464059Y-77945124D01*
X74460969Y-77942034D01*
X74460962Y-77942020D01*
X74428356Y-77909414D01*
X74389105Y-77870156D01*
X74385865Y-77866915D01*
X74385807Y-77866865D01*
X74231516Y-77712573D01*
X74231485Y-77712544D01*
X74223036Y-77704095D01*
X74223033Y-77704093D01*
X74223032Y-77704092D01*
X74172810Y-77672535D01*
X74120862Y-77639893D01*
X74120858Y-77639891D01*
X74120857Y-77639890D01*
X74120856Y-77639890D01*
X74006956Y-77600035D01*
X74006953Y-77600034D01*
X73887042Y-77586524D01*
X73767130Y-77600034D01*
X73767127Y-77600035D01*
X73677215Y-77631496D01*
X73629455Y-77628813D01*
X73612379Y-77616697D01*
X73063304Y-77067622D01*
X73023202Y-77027520D01*
X77149500Y-77027520D01*
X77149500Y-77172479D01*
X77187015Y-77312482D01*
X77187015Y-77312484D01*
X77214157Y-77359495D01*
X77253933Y-77428389D01*
X77259492Y-77438016D01*
X77259495Y-77438020D01*
X77361979Y-77540504D01*
X77361983Y-77540507D01*
X77361985Y-77540509D01*
X77487515Y-77612984D01*
X77556602Y-77631496D01*
X77627520Y-77650499D01*
X77627522Y-77650499D01*
X77627525Y-77650500D01*
X77627527Y-77650500D01*
X77772472Y-77650500D01*
X77772475Y-77650500D01*
X77816032Y-77638828D01*
X77857468Y-77642030D01*
X77860548Y-77643391D01*
X77897627Y-77664799D01*
X77921840Y-77671286D01*
X78012205Y-77695500D01*
X81009309Y-77695500D01*
X81099673Y-77671286D01*
X81099674Y-77671286D01*
X81123880Y-77664801D01*
X81123880Y-77664800D01*
X81123887Y-77664799D01*
X81226614Y-77605489D01*
X81347989Y-77484114D01*
X81407299Y-77381387D01*
X81417317Y-77343998D01*
X81438000Y-77266809D01*
X81438000Y-76706943D01*
X81456306Y-76662749D01*
X81500500Y-76644443D01*
X82009308Y-76644443D01*
X82009309Y-76644443D01*
X82123886Y-76613742D01*
X82226613Y-76554432D01*
X82310489Y-76470556D01*
X82364204Y-76377520D01*
X86137000Y-76377520D01*
X86137000Y-76522479D01*
X86174515Y-76662482D01*
X86174515Y-76662484D01*
X86200184Y-76706943D01*
X86231961Y-76761983D01*
X86246992Y-76788016D01*
X86246995Y-76788020D01*
X86349479Y-76890504D01*
X86349483Y-76890507D01*
X86349485Y-76890509D01*
X86475015Y-76962984D01*
X86515866Y-76973930D01*
X86615020Y-77000499D01*
X86615022Y-77000499D01*
X86615025Y-77000500D01*
X86615027Y-77000500D01*
X86759973Y-77000500D01*
X86759975Y-77000500D01*
X86899985Y-76962984D01*
X87025515Y-76890509D01*
X87128009Y-76788015D01*
X87200484Y-76662485D01*
X87238000Y-76522475D01*
X87238000Y-76377525D01*
X87235403Y-76367834D01*
X87207834Y-76264946D01*
X87200484Y-76237515D01*
X87128009Y-76111985D01*
X87128007Y-76111983D01*
X87128004Y-76111979D01*
X87025520Y-76009495D01*
X87025516Y-76009492D01*
X87025515Y-76009491D01*
X86899985Y-75937016D01*
X86899984Y-75937015D01*
X86899983Y-75937015D01*
X86759979Y-75899500D01*
X86759975Y-75899500D01*
X86615025Y-75899500D01*
X86615020Y-75899500D01*
X86475017Y-75937015D01*
X86475015Y-75937015D01*
X86349483Y-76009492D01*
X86349479Y-76009495D01*
X86246995Y-76111979D01*
X86246992Y-76111983D01*
X86174515Y-76237515D01*
X86174515Y-76237517D01*
X86137000Y-76377520D01*
X82364204Y-76377520D01*
X82369799Y-76367829D01*
X82400500Y-76253252D01*
X82400500Y-76182457D01*
X82408873Y-76151207D01*
X82462984Y-76057485D01*
X82500500Y-75917475D01*
X82500500Y-75772525D01*
X82499195Y-75767656D01*
X82478904Y-75691928D01*
X82462984Y-75632515D01*
X82390509Y-75506985D01*
X82390507Y-75506983D01*
X82390504Y-75506979D01*
X82288020Y-75404495D01*
X82288016Y-75404492D01*
X82288015Y-75404491D01*
X82162485Y-75332016D01*
X82162484Y-75332015D01*
X82162483Y-75332015D01*
X82022479Y-75294500D01*
X82022475Y-75294500D01*
X81877525Y-75294500D01*
X81877520Y-75294500D01*
X81737517Y-75332015D01*
X81737515Y-75332015D01*
X81611983Y-75404492D01*
X81611979Y-75404495D01*
X81509495Y-75506979D01*
X81509492Y-75506983D01*
X81437015Y-75632515D01*
X81437014Y-75632518D01*
X81419705Y-75697119D01*
X81390585Y-75735070D01*
X81359335Y-75743443D01*
X80927191Y-75743443D01*
X80927190Y-75743443D01*
X80927184Y-75743444D01*
X80836826Y-75767656D01*
X80812613Y-75774143D01*
X80812607Y-75774146D01*
X80709889Y-75833451D01*
X80709880Y-75833458D01*
X80626015Y-75917323D01*
X80626008Y-75917332D01*
X80566702Y-76020052D01*
X80564572Y-76028003D01*
X80564571Y-76028007D01*
X80536000Y-76134629D01*
X80536000Y-76253256D01*
X80536465Y-76256789D01*
X80537000Y-76264946D01*
X80537000Y-76732000D01*
X80518694Y-76776194D01*
X80474500Y-76794500D01*
X78284005Y-76794500D01*
X78239811Y-76776194D01*
X78203128Y-76739511D01*
X78203124Y-76739508D01*
X78100406Y-76680203D01*
X78100402Y-76680201D01*
X78093914Y-76678462D01*
X78076187Y-76673713D01*
X78070831Y-76672278D01*
X78058016Y-76668843D01*
X78058014Y-76668841D01*
X78041925Y-76660911D01*
X78041563Y-76661540D01*
X78038016Y-76659492D01*
X78038015Y-76659491D01*
X77912485Y-76587016D01*
X77912484Y-76587015D01*
X77912483Y-76587015D01*
X77772479Y-76549500D01*
X77772475Y-76549500D01*
X77627525Y-76549500D01*
X77627520Y-76549500D01*
X77487517Y-76587015D01*
X77487515Y-76587015D01*
X77361983Y-76659492D01*
X77361979Y-76659495D01*
X77259495Y-76761979D01*
X77259492Y-76761983D01*
X77187015Y-76887515D01*
X77187015Y-76887517D01*
X77149500Y-77027520D01*
X73023202Y-77027520D01*
X69375805Y-73380122D01*
X69335703Y-73340020D01*
X71837000Y-73340020D01*
X71837000Y-73484979D01*
X71874515Y-73624982D01*
X71874515Y-73624984D01*
X71946992Y-73750516D01*
X71946995Y-73750520D01*
X72049479Y-73853004D01*
X72049488Y-73853011D01*
X72145378Y-73908374D01*
X72174498Y-73946324D01*
X72168254Y-73993750D01*
X72145378Y-74016626D01*
X72049488Y-74071988D01*
X72049479Y-74071995D01*
X71946995Y-74174479D01*
X71946992Y-74174483D01*
X71874515Y-74300015D01*
X71874515Y-74300017D01*
X71837000Y-74440020D01*
X71837000Y-74584979D01*
X71874515Y-74724982D01*
X71874515Y-74724984D01*
X71895887Y-74762000D01*
X71936319Y-74832031D01*
X71946992Y-74850516D01*
X71946995Y-74850520D01*
X72049479Y-74953004D01*
X72049483Y-74953007D01*
X72049485Y-74953009D01*
X72175015Y-75025484D01*
X72229282Y-75040025D01*
X72315020Y-75062999D01*
X72315022Y-75062999D01*
X72315025Y-75063000D01*
X72315027Y-75063000D01*
X72459973Y-75063000D01*
X72459975Y-75063000D01*
X72599985Y-75025484D01*
X72725515Y-74953009D01*
X72828009Y-74850515D01*
X72900484Y-74724985D01*
X72914232Y-74673675D01*
X72943352Y-74635726D01*
X72990778Y-74629482D01*
X73028728Y-74658602D01*
X73036567Y-74681691D01*
X73036999Y-74684974D01*
X73074515Y-74824982D01*
X73074515Y-74824984D01*
X73146990Y-74950513D01*
X73146995Y-74950520D01*
X73249479Y-75053004D01*
X73249483Y-75053007D01*
X73249485Y-75053009D01*
X73375015Y-75125484D01*
X73436746Y-75142025D01*
X73515020Y-75162999D01*
X73515022Y-75162999D01*
X73515025Y-75163000D01*
X73515027Y-75163000D01*
X73659973Y-75163000D01*
X73659975Y-75163000D01*
X73799985Y-75125484D01*
X73925515Y-75053009D01*
X74028009Y-74950515D01*
X74100484Y-74824985D01*
X74138000Y-74684975D01*
X74138000Y-74540025D01*
X74137857Y-74539492D01*
X74114232Y-74451324D01*
X74100484Y-74400015D01*
X74028009Y-74274485D01*
X74028007Y-74274483D01*
X74028004Y-74274479D01*
X73925520Y-74171995D01*
X73925516Y-74171992D01*
X73925515Y-74171991D01*
X73799985Y-74099516D01*
X73799984Y-74099515D01*
X73799983Y-74099515D01*
X73659979Y-74062000D01*
X73659975Y-74062000D01*
X73515025Y-74062000D01*
X73515020Y-74062000D01*
X73375017Y-74099515D01*
X73375015Y-74099515D01*
X73249483Y-74171992D01*
X73249479Y-74171995D01*
X73146995Y-74274479D01*
X73146992Y-74274483D01*
X73074515Y-74400015D01*
X73074515Y-74400017D01*
X73060767Y-74451324D01*
X73031646Y-74489274D01*
X72984220Y-74495517D01*
X72946270Y-74466396D01*
X72938431Y-74443301D01*
X72937999Y-74440021D01*
X72923391Y-74385504D01*
X72900484Y-74300015D01*
X72828009Y-74174485D01*
X72828007Y-74174483D01*
X72828004Y-74174479D01*
X72725520Y-74071995D01*
X72725516Y-74071992D01*
X72725515Y-74071991D01*
X72629620Y-74016625D01*
X72600501Y-73978676D01*
X72606744Y-73931250D01*
X72629619Y-73908374D01*
X72725515Y-73853009D01*
X72828009Y-73750515D01*
X72900484Y-73624985D01*
X72938000Y-73484975D01*
X72938000Y-73340025D01*
X72933565Y-73323475D01*
X72920419Y-73274414D01*
X72900484Y-73200015D01*
X72828009Y-73074485D01*
X72828007Y-73074483D01*
X72828004Y-73074479D01*
X72725520Y-72971995D01*
X72725516Y-72971992D01*
X72725515Y-72971991D01*
X72670140Y-72940020D01*
X76037000Y-72940020D01*
X76037000Y-73084979D01*
X76074515Y-73224982D01*
X76074515Y-73224984D01*
X76074516Y-73224985D01*
X76140935Y-73340026D01*
X76146992Y-73350516D01*
X76146995Y-73350520D01*
X76249479Y-73453004D01*
X76249483Y-73453007D01*
X76249485Y-73453009D01*
X76375015Y-73525484D01*
X76412395Y-73535500D01*
X76515020Y-73562999D01*
X76515022Y-73562999D01*
X76515025Y-73563000D01*
X76515027Y-73563000D01*
X76659973Y-73563000D01*
X76659975Y-73563000D01*
X76799985Y-73525484D01*
X76925515Y-73453009D01*
X77028009Y-73350515D01*
X77100484Y-73224985D01*
X77114542Y-73172520D01*
X79499500Y-73172520D01*
X79499500Y-73317479D01*
X79537015Y-73457482D01*
X79537015Y-73457484D01*
X79566413Y-73508402D01*
X79597935Y-73563000D01*
X79609492Y-73583016D01*
X79609495Y-73583020D01*
X79711979Y-73685504D01*
X79711983Y-73685507D01*
X79711985Y-73685509D01*
X79824580Y-73750516D01*
X79837515Y-73757984D01*
X79837518Y-73757985D01*
X79956913Y-73789977D01*
X79994864Y-73819097D01*
X80001108Y-73866520D01*
X79999501Y-73872517D01*
X79999500Y-73872526D01*
X79999500Y-74017479D01*
X80037015Y-74157482D01*
X80037015Y-74157484D01*
X80065628Y-74207043D01*
X80104566Y-74274485D01*
X80109492Y-74283016D01*
X80109495Y-74283020D01*
X80211979Y-74385504D01*
X80211983Y-74385507D01*
X80211985Y-74385509D01*
X80337515Y-74457984D01*
X80391635Y-74472485D01*
X80481483Y-74496561D01*
X80480817Y-74499045D01*
X80515266Y-74518849D01*
X80527733Y-74565031D01*
X80526123Y-74573165D01*
X80499501Y-74672518D01*
X80499500Y-74672526D01*
X80499500Y-74817479D01*
X80537015Y-74957482D01*
X80537015Y-74957484D01*
X80537016Y-74957485D01*
X80597935Y-75063000D01*
X80609492Y-75083016D01*
X80609495Y-75083020D01*
X80711979Y-75185504D01*
X80711983Y-75185507D01*
X80711985Y-75185509D01*
X80837515Y-75257984D01*
X80899246Y-75274525D01*
X80977520Y-75295499D01*
X80977522Y-75295499D01*
X80977525Y-75295500D01*
X80977527Y-75295500D01*
X81122473Y-75295500D01*
X81122475Y-75295500D01*
X81262485Y-75257984D01*
X81388015Y-75185509D01*
X81490509Y-75083015D01*
X81562984Y-74957485D01*
X81598488Y-74824984D01*
X81600499Y-74817479D01*
X81600500Y-74817473D01*
X81600500Y-74794856D01*
X81618806Y-74750662D01*
X83929448Y-72440020D01*
X129237000Y-72440020D01*
X129237000Y-72584979D01*
X129274515Y-72724982D01*
X129274515Y-72724984D01*
X129278575Y-72732016D01*
X129310906Y-72788015D01*
X129346992Y-72850516D01*
X129346995Y-72850520D01*
X129449479Y-72953004D01*
X129449483Y-72953007D01*
X129449485Y-72953009D01*
X129575015Y-73025484D01*
X129636746Y-73042025D01*
X129715020Y-73062999D01*
X129715022Y-73062999D01*
X129715025Y-73063000D01*
X129715027Y-73063000D01*
X129859973Y-73063000D01*
X129859975Y-73063000D01*
X129999985Y-73025484D01*
X130125515Y-72953009D01*
X130228009Y-72850515D01*
X130300484Y-72724985D01*
X130338000Y-72584975D01*
X130338000Y-72440025D01*
X130300484Y-72300015D01*
X130228009Y-72174485D01*
X130228007Y-72174483D01*
X130228004Y-72174479D01*
X130125520Y-72071995D01*
X130125516Y-72071992D01*
X130125515Y-72071991D01*
X129999985Y-71999516D01*
X129999984Y-71999515D01*
X129999983Y-71999515D01*
X129859979Y-71962000D01*
X129859975Y-71962000D01*
X129715025Y-71962000D01*
X129715020Y-71962000D01*
X129575017Y-71999515D01*
X129575015Y-71999515D01*
X129449483Y-72071992D01*
X129449479Y-72071995D01*
X129346995Y-72174479D01*
X129346992Y-72174483D01*
X129274515Y-72300015D01*
X129274515Y-72300017D01*
X129237000Y-72440020D01*
X83929448Y-72440020D01*
X85529448Y-70840020D01*
X120737000Y-70840020D01*
X120737000Y-70984979D01*
X120774515Y-71124982D01*
X120774515Y-71124984D01*
X120846992Y-71250516D01*
X120846995Y-71250520D01*
X120949479Y-71353004D01*
X120949483Y-71353007D01*
X120949485Y-71353009D01*
X121075015Y-71425484D01*
X121136746Y-71442025D01*
X121215020Y-71462999D01*
X121215022Y-71462999D01*
X121215025Y-71463000D01*
X121215027Y-71463000D01*
X121359973Y-71463000D01*
X121359975Y-71463000D01*
X121499985Y-71425484D01*
X121625515Y-71353009D01*
X121728009Y-71250515D01*
X121800484Y-71124985D01*
X121838000Y-70984975D01*
X121838000Y-70840025D01*
X121835659Y-70831290D01*
X121812432Y-70744605D01*
X121812432Y-70744604D01*
X121809194Y-70732520D01*
X129337000Y-70732520D01*
X129337000Y-70877479D01*
X129374515Y-71017482D01*
X129374515Y-71017484D01*
X129374516Y-71017485D01*
X129436581Y-71124985D01*
X129446992Y-71143016D01*
X129446995Y-71143020D01*
X129549479Y-71245504D01*
X129549483Y-71245507D01*
X129549485Y-71245509D01*
X129675015Y-71317984D01*
X129736653Y-71334500D01*
X129815020Y-71355499D01*
X129815022Y-71355499D01*
X129815025Y-71355500D01*
X129815027Y-71355500D01*
X129959973Y-71355500D01*
X129959975Y-71355500D01*
X130099985Y-71317984D01*
X130225515Y-71245509D01*
X130328009Y-71143015D01*
X130400484Y-71017485D01*
X130438000Y-70877475D01*
X130438000Y-70732525D01*
X130429289Y-70700017D01*
X130423443Y-70678198D01*
X130400484Y-70592515D01*
X130328009Y-70466985D01*
X130328007Y-70466983D01*
X130328004Y-70466979D01*
X130225520Y-70364495D01*
X130225516Y-70364492D01*
X130225515Y-70364491D01*
X130099985Y-70292016D01*
X130099984Y-70292015D01*
X130099983Y-70292015D01*
X129959979Y-70254500D01*
X129959975Y-70254500D01*
X129815025Y-70254500D01*
X129815020Y-70254500D01*
X129675017Y-70292015D01*
X129675015Y-70292015D01*
X129549483Y-70364492D01*
X129549479Y-70364495D01*
X129446995Y-70466979D01*
X129446992Y-70466983D01*
X129374515Y-70592515D01*
X129374515Y-70592517D01*
X129337000Y-70732520D01*
X121809194Y-70732520D01*
X121800485Y-70700018D01*
X121800484Y-70700015D01*
X121728009Y-70574485D01*
X121728007Y-70574483D01*
X121728004Y-70574479D01*
X121625520Y-70471995D01*
X121625516Y-70471992D01*
X121625515Y-70471991D01*
X121499985Y-70399516D01*
X121499984Y-70399515D01*
X121499983Y-70399515D01*
X121359979Y-70362000D01*
X121359975Y-70362000D01*
X121215025Y-70362000D01*
X121215020Y-70362000D01*
X121075017Y-70399515D01*
X121075015Y-70399515D01*
X120949483Y-70471992D01*
X120949479Y-70471995D01*
X120846995Y-70574479D01*
X120846992Y-70574483D01*
X120774515Y-70700015D01*
X120774515Y-70700017D01*
X120737000Y-70840020D01*
X85529448Y-70840020D01*
X89170662Y-67198806D01*
X89214856Y-67180500D01*
X95194168Y-67180500D01*
X95194169Y-67180500D01*
X95279498Y-67157636D01*
X95356002Y-67113467D01*
X97723703Y-64745763D01*
X97767896Y-64727458D01*
X97799146Y-64735832D01*
X97837509Y-64757981D01*
X97837511Y-64757981D01*
X97837515Y-64757984D01*
X97923198Y-64780943D01*
X97977520Y-64795499D01*
X97977522Y-64795499D01*
X97977525Y-64795500D01*
X97977527Y-64795500D01*
X98122473Y-64795500D01*
X98122475Y-64795500D01*
X98262485Y-64757984D01*
X98388015Y-64685509D01*
X98490509Y-64583015D01*
X98562984Y-64457485D01*
X98600500Y-64317475D01*
X98600500Y-64172525D01*
X98562984Y-64032515D01*
X98490509Y-63906985D01*
X98490507Y-63906983D01*
X98490504Y-63906979D01*
X98388020Y-63804495D01*
X98388016Y-63804492D01*
X98388015Y-63804491D01*
X98262485Y-63732016D01*
X98262484Y-63732015D01*
X98262483Y-63732015D01*
X98122479Y-63694500D01*
X98122475Y-63694500D01*
X97977525Y-63694500D01*
X97977520Y-63694500D01*
X97837517Y-63732015D01*
X97837515Y-63732015D01*
X97711983Y-63804492D01*
X97711979Y-63804495D01*
X97609495Y-63906979D01*
X97609490Y-63906985D01*
X97590379Y-63940086D01*
X97567504Y-63962961D01*
X97543998Y-63976532D01*
X97543997Y-63976533D01*
X97513552Y-64006979D01*
X97481533Y-64038998D01*
X95029337Y-66491194D01*
X94985143Y-66509500D01*
X89005824Y-66509500D01*
X88920504Y-66532363D01*
X88920502Y-66532364D01*
X88843997Y-66576533D01*
X88781531Y-66639000D01*
X81229661Y-74190868D01*
X81221890Y-74194086D01*
X81216777Y-74200766D01*
X81200603Y-74202904D01*
X81185467Y-74209174D01*
X81169358Y-74207062D01*
X81169290Y-74207043D01*
X81169290Y-74207044D01*
X81169172Y-74207012D01*
X81168663Y-74206876D01*
X81122475Y-74194500D01*
X81122268Y-74194500D01*
X81118137Y-74193398D01*
X81102124Y-74181139D01*
X81084660Y-74171055D01*
X81083552Y-74166921D01*
X81080154Y-74164320D01*
X81077499Y-74144327D01*
X81072281Y-74124849D01*
X81073859Y-74116914D01*
X81073858Y-74116902D01*
X81073858Y-74116899D01*
X81073864Y-74116893D01*
X81073873Y-74116844D01*
X81100500Y-74017475D01*
X81100500Y-73994857D01*
X81118806Y-73950663D01*
X88670663Y-66398806D01*
X88714857Y-66380500D01*
X90694168Y-66380500D01*
X90694169Y-66380500D01*
X90779498Y-66357636D01*
X90856002Y-66313467D01*
X92255661Y-64913805D01*
X92299855Y-64895500D01*
X92422473Y-64895500D01*
X92422475Y-64895500D01*
X92425282Y-64894748D01*
X92433959Y-64892422D01*
X92562485Y-64857984D01*
X92688015Y-64785509D01*
X92790509Y-64683015D01*
X92862984Y-64557485D01*
X92900500Y-64417475D01*
X92900500Y-64272525D01*
X92862984Y-64132515D01*
X92790509Y-64006985D01*
X92790507Y-64006983D01*
X92790504Y-64006979D01*
X92688020Y-63904495D01*
X92688016Y-63904492D01*
X92688015Y-63904491D01*
X92562485Y-63832016D01*
X92562484Y-63832015D01*
X92562483Y-63832015D01*
X92422479Y-63794500D01*
X92422475Y-63794500D01*
X92277525Y-63794500D01*
X92277520Y-63794500D01*
X92137517Y-63832015D01*
X92137515Y-63832015D01*
X92011983Y-63904492D01*
X92011979Y-63904495D01*
X91909495Y-64006979D01*
X91909492Y-64006983D01*
X91837015Y-64132515D01*
X91837015Y-64132517D01*
X91799500Y-64272520D01*
X91799500Y-64395143D01*
X91781194Y-64439337D01*
X90529337Y-65691194D01*
X90485143Y-65709500D01*
X88505826Y-65709500D01*
X88420504Y-65732363D01*
X88420502Y-65732364D01*
X88343997Y-65776533D01*
X80729661Y-73390868D01*
X80721857Y-73394100D01*
X80716716Y-73400801D01*
X80700540Y-73402930D01*
X80685467Y-73409174D01*
X80669290Y-73407044D01*
X80643085Y-73400022D01*
X80605135Y-73370901D01*
X80598892Y-73323475D01*
X80598893Y-73323471D01*
X80600500Y-73317475D01*
X80600500Y-73194855D01*
X80618805Y-73150662D01*
X83750855Y-70018611D01*
X83750860Y-70018608D01*
X83756000Y-70013467D01*
X83756002Y-70013467D01*
X83818467Y-69951002D01*
X83862636Y-69874498D01*
X83885500Y-69789169D01*
X83885500Y-68809913D01*
X83903806Y-68765719D01*
X83948000Y-68747413D01*
X83992194Y-68765719D01*
X84061979Y-68835504D01*
X84061983Y-68835507D01*
X84061985Y-68835509D01*
X84187515Y-68907984D01*
X84249246Y-68924525D01*
X84327520Y-68945499D01*
X84327522Y-68945499D01*
X84327525Y-68945500D01*
X84327527Y-68945500D01*
X84472473Y-68945500D01*
X84472475Y-68945500D01*
X84612485Y-68907984D01*
X84738015Y-68835509D01*
X84840509Y-68733015D01*
X84912984Y-68607485D01*
X84950500Y-68467475D01*
X84950500Y-68322525D01*
X84944468Y-68300015D01*
X84935943Y-68268198D01*
X84912984Y-68182515D01*
X84840509Y-68056985D01*
X84840507Y-68056983D01*
X84840504Y-68056979D01*
X84738020Y-67954495D01*
X84738016Y-67954492D01*
X84738015Y-67954491D01*
X84612485Y-67882016D01*
X84612484Y-67882015D01*
X84612483Y-67882015D01*
X84472479Y-67844500D01*
X84472475Y-67844500D01*
X84327525Y-67844500D01*
X84327520Y-67844500D01*
X84187517Y-67882015D01*
X84187515Y-67882015D01*
X84061983Y-67954492D01*
X84061979Y-67954495D01*
X83992194Y-68024281D01*
X83948000Y-68042587D01*
X83903806Y-68024281D01*
X83885500Y-67980087D01*
X83885500Y-67809855D01*
X83903805Y-67765662D01*
X85850855Y-65818611D01*
X85850860Y-65818608D01*
X85856000Y-65813467D01*
X85856002Y-65813467D01*
X85918467Y-65751002D01*
X85962636Y-65674498D01*
X85981585Y-65603780D01*
X85997758Y-65575765D01*
X86090509Y-65483015D01*
X86162984Y-65357485D01*
X86200500Y-65217475D01*
X86200500Y-65072525D01*
X86192114Y-65041230D01*
X86185943Y-65018198D01*
X86162984Y-64932515D01*
X86090509Y-64806985D01*
X86090507Y-64806983D01*
X86090504Y-64806979D01*
X85988020Y-64704495D01*
X85988016Y-64704492D01*
X85988015Y-64704491D01*
X85862485Y-64632016D01*
X85862484Y-64632015D01*
X85862483Y-64632015D01*
X85722479Y-64594500D01*
X85722475Y-64594500D01*
X85577525Y-64594500D01*
X85577520Y-64594500D01*
X85437517Y-64632015D01*
X85437515Y-64632015D01*
X85311983Y-64704492D01*
X85311979Y-64704495D01*
X85209495Y-64806979D01*
X85209492Y-64806983D01*
X85137015Y-64932515D01*
X85137015Y-64932517D01*
X85099500Y-65072520D01*
X85099500Y-65217479D01*
X85137015Y-65357482D01*
X85137018Y-65357490D01*
X85195769Y-65459248D01*
X85202013Y-65506674D01*
X85185837Y-65534692D01*
X83335207Y-67385323D01*
X83335206Y-67385323D01*
X83335207Y-67385324D01*
X83281532Y-67438999D01*
X83237364Y-67515502D01*
X83237363Y-67515504D01*
X83214500Y-67600826D01*
X83214500Y-69580142D01*
X83196194Y-69624336D01*
X80144336Y-72676194D01*
X80100142Y-72694500D01*
X79977520Y-72694500D01*
X79837517Y-72732015D01*
X79837515Y-72732015D01*
X79711983Y-72804492D01*
X79711979Y-72804495D01*
X79609495Y-72906979D01*
X79609492Y-72906983D01*
X79537015Y-73032515D01*
X79537015Y-73032517D01*
X79499500Y-73172520D01*
X77114542Y-73172520D01*
X77138000Y-73084975D01*
X77138000Y-72940025D01*
X77100484Y-72800015D01*
X77028009Y-72674485D01*
X77028007Y-72674483D01*
X77028004Y-72674479D01*
X76925520Y-72571995D01*
X76925516Y-72571992D01*
X76925515Y-72571991D01*
X76799985Y-72499516D01*
X76799984Y-72499515D01*
X76799983Y-72499515D01*
X76659979Y-72462000D01*
X76659975Y-72462000D01*
X76515025Y-72462000D01*
X76515020Y-72462000D01*
X76375017Y-72499515D01*
X76375015Y-72499515D01*
X76249483Y-72571992D01*
X76249479Y-72571995D01*
X76146995Y-72674479D01*
X76146992Y-72674483D01*
X76074515Y-72800015D01*
X76074515Y-72800017D01*
X76037000Y-72940020D01*
X72670140Y-72940020D01*
X72599985Y-72899516D01*
X72599984Y-72899515D01*
X72599983Y-72899515D01*
X72459979Y-72862000D01*
X72459975Y-72862000D01*
X72315025Y-72862000D01*
X72315020Y-72862000D01*
X72175017Y-72899515D01*
X72175015Y-72899515D01*
X72049483Y-72971992D01*
X72049479Y-72971995D01*
X71946995Y-73074479D01*
X71946992Y-73074483D01*
X71874515Y-73200015D01*
X71874515Y-73200017D01*
X71837000Y-73340020D01*
X69335703Y-73340020D01*
X68373203Y-72377520D01*
X78299500Y-72377520D01*
X78299500Y-72522479D01*
X78337015Y-72662482D01*
X78337015Y-72662484D01*
X78409492Y-72788016D01*
X78409495Y-72788020D01*
X78511979Y-72890504D01*
X78511983Y-72890507D01*
X78511985Y-72890509D01*
X78637515Y-72962984D01*
X78699246Y-72979525D01*
X78777520Y-73000499D01*
X78777522Y-73000499D01*
X78777525Y-73000500D01*
X78777527Y-73000500D01*
X78922473Y-73000500D01*
X78922475Y-73000500D01*
X79062485Y-72962984D01*
X79188015Y-72890509D01*
X79290509Y-72788015D01*
X79362984Y-72662485D01*
X79400500Y-72522475D01*
X79400500Y-72377525D01*
X79392693Y-72348391D01*
X79385943Y-72323198D01*
X79362984Y-72237515D01*
X79290509Y-72111985D01*
X79290507Y-72111983D01*
X79290504Y-72111979D01*
X79188020Y-72009495D01*
X79188016Y-72009492D01*
X79188015Y-72009491D01*
X79062485Y-71937016D01*
X79062484Y-71937015D01*
X79062483Y-71937015D01*
X78922479Y-71899500D01*
X78922475Y-71899500D01*
X78777525Y-71899500D01*
X78777520Y-71899500D01*
X78637517Y-71937015D01*
X78637515Y-71937015D01*
X78511983Y-72009492D01*
X78511979Y-72009495D01*
X78409495Y-72111979D01*
X78409492Y-72111983D01*
X78337015Y-72237515D01*
X78337015Y-72237517D01*
X78299500Y-72377520D01*
X68373203Y-72377520D01*
X67915217Y-71919534D01*
X67915213Y-71919531D01*
X67915212Y-71919530D01*
X67875250Y-71896458D01*
X67835287Y-71873385D01*
X67835284Y-71873384D01*
X67746150Y-71849501D01*
X67746145Y-71849500D01*
X67746144Y-71849500D01*
X67746143Y-71849500D01*
X66816748Y-71849500D01*
X66772554Y-71831194D01*
X66766185Y-71823737D01*
X66689414Y-71718072D01*
X66689407Y-71718064D01*
X66566935Y-71595592D01*
X66566927Y-71595585D01*
X66426790Y-71493769D01*
X66272451Y-71415130D01*
X66272443Y-71415126D01*
X66107699Y-71361597D01*
X65936624Y-71334501D01*
X65936612Y-71334500D01*
X65936611Y-71334500D01*
X65763389Y-71334500D01*
X65763387Y-71334500D01*
X65763375Y-71334501D01*
X65592301Y-71361597D01*
X65592300Y-71361597D01*
X65427556Y-71415126D01*
X65427548Y-71415130D01*
X65273209Y-71493769D01*
X65133072Y-71595585D01*
X65133064Y-71595592D01*
X65010592Y-71718064D01*
X65010585Y-71718072D01*
X64908769Y-71858209D01*
X64830130Y-72012548D01*
X64830126Y-72012556D01*
X64776597Y-72177300D01*
X64776597Y-72177301D01*
X64749501Y-72348375D01*
X64749500Y-72348391D01*
X59750500Y-72348391D01*
X59750500Y-69808430D01*
X64750000Y-69808430D01*
X64750000Y-69981569D01*
X64750001Y-69981583D01*
X64777085Y-70152583D01*
X64830590Y-70317254D01*
X64830591Y-70317256D01*
X64909197Y-70471526D01*
X64909201Y-70471533D01*
X64913708Y-70477737D01*
X65367037Y-70024408D01*
X65384075Y-70087993D01*
X65449901Y-70202007D01*
X65542993Y-70295099D01*
X65657007Y-70360925D01*
X65720590Y-70377962D01*
X65267261Y-70831290D01*
X65273471Y-70835801D01*
X65427743Y-70914408D01*
X65427745Y-70914409D01*
X65592417Y-70967914D01*
X65592416Y-70967914D01*
X65763416Y-70994998D01*
X65763430Y-70995000D01*
X65936570Y-70995000D01*
X65936583Y-70994998D01*
X66107583Y-70967914D01*
X66272254Y-70914409D01*
X66272256Y-70914408D01*
X66426525Y-70835803D01*
X66432736Y-70831289D01*
X65979409Y-70377962D01*
X66042993Y-70360925D01*
X66157007Y-70295099D01*
X66250099Y-70202007D01*
X66315925Y-70087993D01*
X66332962Y-70024409D01*
X66786289Y-70477736D01*
X66790803Y-70471525D01*
X66869408Y-70317256D01*
X66869409Y-70317254D01*
X66922914Y-70152583D01*
X66949998Y-69981583D01*
X66950000Y-69981569D01*
X66950000Y-69808430D01*
X66949998Y-69808416D01*
X66922914Y-69637416D01*
X66869409Y-69472745D01*
X66869408Y-69472743D01*
X66790801Y-69318471D01*
X66786289Y-69312261D01*
X66332962Y-69765589D01*
X66315925Y-69702007D01*
X66250099Y-69587993D01*
X66157007Y-69494901D01*
X66042993Y-69429075D01*
X65979407Y-69412037D01*
X66432737Y-68958708D01*
X66426533Y-68954201D01*
X66426526Y-68954197D01*
X66272256Y-68875591D01*
X66272254Y-68875590D01*
X66107582Y-68822085D01*
X66107583Y-68822085D01*
X65936583Y-68795001D01*
X65936570Y-68795000D01*
X65763430Y-68795000D01*
X65763416Y-68795001D01*
X65592416Y-68822085D01*
X65427745Y-68875590D01*
X65427743Y-68875591D01*
X65273472Y-68954197D01*
X65267261Y-68958708D01*
X65720590Y-69412037D01*
X65657007Y-69429075D01*
X65542993Y-69494901D01*
X65449901Y-69587993D01*
X65384075Y-69702007D01*
X65367037Y-69765590D01*
X64913708Y-69312261D01*
X64909197Y-69318472D01*
X64830591Y-69472743D01*
X64830590Y-69472745D01*
X64777085Y-69637416D01*
X64750001Y-69808416D01*
X64750000Y-69808430D01*
X59750500Y-69808430D01*
X59750500Y-68340020D01*
X72937000Y-68340020D01*
X72937000Y-68484979D01*
X72974515Y-68624982D01*
X72974515Y-68624984D01*
X72974516Y-68624985D01*
X73036890Y-68733020D01*
X73046992Y-68750516D01*
X73046995Y-68750520D01*
X73149479Y-68853004D01*
X73149483Y-68853007D01*
X73149485Y-68853009D01*
X73248196Y-68910000D01*
X73275015Y-68925484D01*
X73275018Y-68925485D01*
X73390676Y-68956476D01*
X73428627Y-68985596D01*
X73437000Y-69016846D01*
X73437000Y-69084979D01*
X73474515Y-69224982D01*
X73474515Y-69224984D01*
X73501960Y-69272520D01*
X73528490Y-69318471D01*
X73546992Y-69350516D01*
X73546995Y-69350520D01*
X73649479Y-69453004D01*
X73649483Y-69453007D01*
X73649485Y-69453009D01*
X73775015Y-69525484D01*
X73834585Y-69541446D01*
X73915020Y-69562999D01*
X73915022Y-69562999D01*
X73915025Y-69563000D01*
X73915027Y-69563000D01*
X74059973Y-69563000D01*
X74059975Y-69563000D01*
X74199985Y-69525484D01*
X74325515Y-69453009D01*
X74428009Y-69350515D01*
X74473040Y-69272520D01*
X79199500Y-69272520D01*
X79199500Y-69417479D01*
X79237015Y-69557482D01*
X79237015Y-69557484D01*
X79309492Y-69683016D01*
X79309495Y-69683020D01*
X79411979Y-69785504D01*
X79411983Y-69785507D01*
X79411985Y-69785509D01*
X79537515Y-69857984D01*
X79599134Y-69874495D01*
X79677520Y-69895499D01*
X79677522Y-69895499D01*
X79677525Y-69895500D01*
X79677527Y-69895500D01*
X79822473Y-69895500D01*
X79822475Y-69895500D01*
X79962485Y-69857984D01*
X80088015Y-69785509D01*
X80190509Y-69683015D01*
X80262984Y-69557485D01*
X80300500Y-69417475D01*
X80300500Y-69272525D01*
X80262984Y-69132515D01*
X80190509Y-69006985D01*
X80190507Y-69006983D01*
X80190504Y-69006979D01*
X80175218Y-68991693D01*
X80156912Y-68947499D01*
X80175217Y-68903306D01*
X80228009Y-68850515D01*
X80300484Y-68724985D01*
X80338000Y-68584975D01*
X80338000Y-68440025D01*
X80300484Y-68300015D01*
X80228009Y-68174485D01*
X80228007Y-68174483D01*
X80228004Y-68174479D01*
X80125520Y-68071995D01*
X80125516Y-68071992D01*
X80125515Y-68071991D01*
X79999985Y-67999516D01*
X79999984Y-67999515D01*
X79999983Y-67999515D01*
X79859979Y-67962000D01*
X79859975Y-67962000D01*
X79715025Y-67962000D01*
X79715020Y-67962000D01*
X79575017Y-67999515D01*
X79575015Y-67999515D01*
X79449483Y-68071992D01*
X79449479Y-68071995D01*
X79346995Y-68174479D01*
X79346992Y-68174483D01*
X79274515Y-68300015D01*
X79274515Y-68300017D01*
X79237000Y-68440020D01*
X79237000Y-68584979D01*
X79274515Y-68724982D01*
X79274515Y-68724984D01*
X79346990Y-68850513D01*
X79346995Y-68850520D01*
X79362281Y-68865806D01*
X79380587Y-68910000D01*
X79362281Y-68954194D01*
X79309495Y-69006979D01*
X79309492Y-69006983D01*
X79237015Y-69132515D01*
X79237015Y-69132517D01*
X79199500Y-69272520D01*
X74473040Y-69272520D01*
X74500484Y-69224985D01*
X74538000Y-69084975D01*
X74538000Y-68990050D01*
X74556306Y-68945856D01*
X74584323Y-68929680D01*
X74599985Y-68925484D01*
X74725515Y-68853009D01*
X74828009Y-68750515D01*
X74900484Y-68624985D01*
X74938000Y-68484975D01*
X74938000Y-68340025D01*
X74933309Y-68322520D01*
X74923443Y-68285698D01*
X74900484Y-68200015D01*
X74828009Y-68074485D01*
X74828007Y-68074483D01*
X74828004Y-68074479D01*
X74725520Y-67971995D01*
X74725516Y-67971992D01*
X74725515Y-67971991D01*
X74599985Y-67899516D01*
X74599984Y-67899515D01*
X74599983Y-67899515D01*
X74459979Y-67862000D01*
X74459975Y-67862000D01*
X74315025Y-67862000D01*
X74315020Y-67862000D01*
X74175017Y-67899515D01*
X74175015Y-67899515D01*
X74049483Y-67971992D01*
X74049479Y-67971995D01*
X73981694Y-68039781D01*
X73937500Y-68058087D01*
X73893306Y-68039781D01*
X73825520Y-67971995D01*
X73825516Y-67971992D01*
X73825515Y-67971991D01*
X73699985Y-67899516D01*
X73699984Y-67899515D01*
X73699983Y-67899515D01*
X73559979Y-67862000D01*
X73559975Y-67862000D01*
X73415025Y-67862000D01*
X73415020Y-67862000D01*
X73275017Y-67899515D01*
X73275015Y-67899515D01*
X73149483Y-67971992D01*
X73149479Y-67971995D01*
X73046995Y-68074479D01*
X73046992Y-68074483D01*
X72974515Y-68200015D01*
X72974515Y-68200017D01*
X72937000Y-68340020D01*
X59750500Y-68340020D01*
X59750500Y-64013391D01*
X63599500Y-64013391D01*
X63599500Y-64186608D01*
X63599501Y-64186624D01*
X63626597Y-64357698D01*
X63626597Y-64357699D01*
X63680126Y-64522443D01*
X63680130Y-64522451D01*
X63758769Y-64676790D01*
X63860585Y-64816927D01*
X63860592Y-64816935D01*
X63983064Y-64939407D01*
X63983072Y-64939414D01*
X64023464Y-64968761D01*
X64123212Y-65041232D01*
X64277555Y-65119873D01*
X64442299Y-65173402D01*
X64514407Y-65184822D01*
X64613375Y-65200498D01*
X64613381Y-65200498D01*
X64613389Y-65200500D01*
X64613391Y-65200500D01*
X64786609Y-65200500D01*
X64786611Y-65200500D01*
X64957701Y-65173402D01*
X65122445Y-65119873D01*
X65276788Y-65041232D01*
X65416928Y-64939414D01*
X65539414Y-64816928D01*
X65641232Y-64676788D01*
X65719873Y-64522445D01*
X65773402Y-64357701D01*
X65800500Y-64186611D01*
X65800500Y-64013389D01*
X65774622Y-63849999D01*
X66165885Y-63849999D01*
X66165886Y-63850000D01*
X66806988Y-63850000D01*
X66774075Y-63907007D01*
X66740000Y-64034174D01*
X66740000Y-64165826D01*
X66774075Y-64292993D01*
X66806988Y-64350000D01*
X66165885Y-64350000D01*
X66167085Y-64357581D01*
X66167086Y-64357585D01*
X66220590Y-64522254D01*
X66220591Y-64522256D01*
X66299198Y-64676528D01*
X66400968Y-64816604D01*
X66523395Y-64939031D01*
X66663471Y-65040801D01*
X66817743Y-65119408D01*
X66817745Y-65119409D01*
X66982414Y-65172913D01*
X66982418Y-65172914D01*
X66989999Y-65174114D01*
X66990000Y-65174114D01*
X66990000Y-64533012D01*
X67047007Y-64565925D01*
X67174174Y-64600000D01*
X67305826Y-64600000D01*
X67432993Y-64565925D01*
X67490000Y-64533012D01*
X67490000Y-65174114D01*
X67497581Y-65172914D01*
X67497585Y-65172913D01*
X67662254Y-65119409D01*
X67662256Y-65119408D01*
X67816528Y-65040801D01*
X67956604Y-64939031D01*
X68079031Y-64816604D01*
X68180801Y-64676528D01*
X68259408Y-64522256D01*
X68259409Y-64522254D01*
X68312913Y-64357585D01*
X68312914Y-64357581D01*
X68314115Y-64350000D01*
X67673012Y-64350000D01*
X67705925Y-64292993D01*
X67740000Y-64165826D01*
X67740000Y-64034174D01*
X67705925Y-63907007D01*
X67673012Y-63850000D01*
X68314114Y-63850000D01*
X68314114Y-63849999D01*
X68705885Y-63849999D01*
X68705886Y-63850000D01*
X69346988Y-63850000D01*
X69314075Y-63907007D01*
X69280000Y-64034174D01*
X69280000Y-64165826D01*
X69314075Y-64292993D01*
X69346988Y-64350000D01*
X68705885Y-64350000D01*
X68707085Y-64357581D01*
X68707086Y-64357585D01*
X68760590Y-64522254D01*
X68760591Y-64522256D01*
X68839198Y-64676528D01*
X68940968Y-64816604D01*
X69063395Y-64939031D01*
X69203471Y-65040801D01*
X69357743Y-65119408D01*
X69357745Y-65119409D01*
X69522414Y-65172913D01*
X69522418Y-65172914D01*
X69529999Y-65174114D01*
X69530000Y-65174114D01*
X69530000Y-64533012D01*
X69587007Y-64565925D01*
X69714174Y-64600000D01*
X69845826Y-64600000D01*
X69972993Y-64565925D01*
X70030000Y-64533012D01*
X70030000Y-65174114D01*
X70037581Y-65172914D01*
X70037585Y-65172913D01*
X70202254Y-65119409D01*
X70202256Y-65119408D01*
X70356528Y-65040801D01*
X70496604Y-64939031D01*
X70619031Y-64816604D01*
X70720801Y-64676528D01*
X70799408Y-64522256D01*
X70799409Y-64522254D01*
X70852913Y-64357585D01*
X70852914Y-64357581D01*
X70854115Y-64350000D01*
X70213012Y-64350000D01*
X70245925Y-64292993D01*
X70280000Y-64165826D01*
X70280000Y-64034174D01*
X70245925Y-63907007D01*
X70213012Y-63850000D01*
X70854114Y-63850000D01*
X70854114Y-63849999D01*
X70852914Y-63842418D01*
X70852913Y-63842414D01*
X70799409Y-63677745D01*
X70799408Y-63677743D01*
X70720801Y-63523471D01*
X70619031Y-63383395D01*
X70496604Y-63260968D01*
X70447545Y-63225325D01*
X71219500Y-63225325D01*
X71219500Y-64974674D01*
X71234033Y-65047739D01*
X71234034Y-65047741D01*
X71250595Y-65072526D01*
X71289399Y-65130601D01*
X71351403Y-65172030D01*
X71372258Y-65185965D01*
X71372260Y-65185966D01*
X71445326Y-65200500D01*
X73194674Y-65200500D01*
X73267740Y-65185966D01*
X73350601Y-65130601D01*
X73405966Y-65047740D01*
X73420500Y-64974674D01*
X73420500Y-63368483D01*
X139042612Y-63368483D01*
X139042612Y-63624628D01*
X139076044Y-63878573D01*
X139076044Y-63878574D01*
X139142335Y-64125973D01*
X139142337Y-64125979D01*
X139167452Y-64186611D01*
X139240353Y-64362612D01*
X139240355Y-64362615D01*
X139240356Y-64362618D01*
X139368425Y-64584439D01*
X139524351Y-64787645D01*
X139705467Y-64968761D01*
X139908673Y-65124687D01*
X140130494Y-65252756D01*
X140367133Y-65350775D01*
X140367137Y-65350776D01*
X140614537Y-65417067D01*
X140614539Y-65417067D01*
X140614542Y-65417068D01*
X140868488Y-65450500D01*
X140868494Y-65450500D01*
X141124618Y-65450500D01*
X141124624Y-65450500D01*
X141378570Y-65417068D01*
X141625979Y-65350775D01*
X141862618Y-65252756D01*
X142084439Y-65124687D01*
X142287645Y-64968761D01*
X142468761Y-64787645D01*
X142624687Y-64584439D01*
X142752756Y-64362618D01*
X142850775Y-64125979D01*
X142917068Y-63878570D01*
X142950500Y-63624624D01*
X142950500Y-63368488D01*
X142917068Y-63114542D01*
X142907970Y-63080589D01*
X142864242Y-62917394D01*
X142850775Y-62867133D01*
X142752756Y-62630494D01*
X142624687Y-62408673D01*
X142468761Y-62205467D01*
X142287645Y-62024351D01*
X142084439Y-61868425D01*
X141862618Y-61740356D01*
X141862615Y-61740355D01*
X141862612Y-61740353D01*
X141740809Y-61689901D01*
X141625979Y-61642337D01*
X141625975Y-61642336D01*
X141625973Y-61642335D01*
X141625974Y-61642335D01*
X141378574Y-61576044D01*
X141124628Y-61542612D01*
X141124624Y-61542612D01*
X140868488Y-61542612D01*
X140868483Y-61542612D01*
X140614538Y-61576044D01*
X140614537Y-61576044D01*
X140367138Y-61642335D01*
X140130499Y-61740353D01*
X140130488Y-61740359D01*
X139908679Y-61868421D01*
X139908676Y-61868423D01*
X139908673Y-61868425D01*
X139871542Y-61896917D01*
X139705465Y-62024352D01*
X139524352Y-62205465D01*
X139496390Y-62241906D01*
X139368425Y-62408673D01*
X139368423Y-62408676D01*
X139368421Y-62408679D01*
X139240359Y-62630488D01*
X139240353Y-62630499D01*
X139142335Y-62867138D01*
X139076044Y-63114537D01*
X139076044Y-63114538D01*
X139042612Y-63368483D01*
X73420500Y-63368483D01*
X73420500Y-63225326D01*
X73405966Y-63152260D01*
X73350601Y-63069399D01*
X73309170Y-63041716D01*
X73267741Y-63014034D01*
X73267739Y-63014033D01*
X73194674Y-62999500D01*
X71445326Y-62999500D01*
X71372260Y-63014033D01*
X71372258Y-63014034D01*
X71289399Y-63069399D01*
X71234034Y-63152258D01*
X71234033Y-63152260D01*
X71219500Y-63225325D01*
X70447545Y-63225325D01*
X70356528Y-63159198D01*
X70202256Y-63080591D01*
X70202250Y-63080589D01*
X70037591Y-63027088D01*
X70037575Y-63027084D01*
X70030000Y-63025883D01*
X70030000Y-63666988D01*
X69972993Y-63634075D01*
X69845826Y-63600000D01*
X69714174Y-63600000D01*
X69587007Y-63634075D01*
X69530000Y-63666988D01*
X69530000Y-63025884D01*
X69529999Y-63025883D01*
X69522424Y-63027084D01*
X69522408Y-63027088D01*
X69357749Y-63080589D01*
X69357743Y-63080591D01*
X69203471Y-63159198D01*
X69063395Y-63260968D01*
X68940968Y-63383395D01*
X68839198Y-63523471D01*
X68760591Y-63677743D01*
X68760590Y-63677745D01*
X68707086Y-63842414D01*
X68707085Y-63842418D01*
X68705885Y-63849999D01*
X68314114Y-63849999D01*
X68312914Y-63842418D01*
X68312913Y-63842414D01*
X68259409Y-63677745D01*
X68259408Y-63677743D01*
X68180801Y-63523471D01*
X68079031Y-63383395D01*
X67956604Y-63260968D01*
X67816528Y-63159198D01*
X67662256Y-63080591D01*
X67662250Y-63080589D01*
X67497591Y-63027088D01*
X67497575Y-63027084D01*
X67490000Y-63025883D01*
X67490000Y-63666988D01*
X67432993Y-63634075D01*
X67305826Y-63600000D01*
X67174174Y-63600000D01*
X67047007Y-63634075D01*
X66990000Y-63666988D01*
X66990000Y-63025884D01*
X66989999Y-63025883D01*
X66982424Y-63027084D01*
X66982408Y-63027088D01*
X66817749Y-63080589D01*
X66817743Y-63080591D01*
X66663471Y-63159198D01*
X66523395Y-63260968D01*
X66400968Y-63383395D01*
X66299198Y-63523471D01*
X66220591Y-63677743D01*
X66220590Y-63677745D01*
X66167086Y-63842414D01*
X66167085Y-63842418D01*
X66165885Y-63849999D01*
X65774622Y-63849999D01*
X65773402Y-63842299D01*
X65719873Y-63677555D01*
X65641232Y-63523212D01*
X65539414Y-63383072D01*
X65539407Y-63383064D01*
X65416935Y-63260592D01*
X65416927Y-63260585D01*
X65276790Y-63158769D01*
X65122451Y-63080130D01*
X65122443Y-63080126D01*
X64957699Y-63026597D01*
X64786624Y-62999501D01*
X64786612Y-62999500D01*
X64786611Y-62999500D01*
X64613389Y-62999500D01*
X64613387Y-62999500D01*
X64613375Y-62999501D01*
X64442301Y-63026597D01*
X64442300Y-63026597D01*
X64277556Y-63080126D01*
X64277548Y-63080130D01*
X64123209Y-63158769D01*
X63983072Y-63260585D01*
X63983064Y-63260592D01*
X63860592Y-63383064D01*
X63860585Y-63383072D01*
X63758769Y-63523209D01*
X63680130Y-63677548D01*
X63680126Y-63677556D01*
X63626597Y-63842300D01*
X63626597Y-63842301D01*
X63599501Y-64013375D01*
X63599500Y-64013391D01*
X59750500Y-64013391D01*
X59750500Y-63538631D01*
X59750598Y-63535126D01*
X59759120Y-63383395D01*
X59767908Y-63226930D01*
X59768693Y-63219973D01*
X59768701Y-63219931D01*
X59820106Y-62917389D01*
X59821665Y-62910561D01*
X59865065Y-62759920D01*
X59906636Y-62615625D01*
X59908940Y-62609040D01*
X60026401Y-62325468D01*
X60029441Y-62319158D01*
X60034977Y-62309142D01*
X60177912Y-62050523D01*
X60181628Y-62044610D01*
X60359243Y-61794287D01*
X60363602Y-61788821D01*
X60568125Y-61559961D01*
X60573066Y-61555019D01*
X60801937Y-61350489D01*
X60807402Y-61346130D01*
X61057744Y-61168506D01*
X61063644Y-61164799D01*
X61332285Y-61016327D01*
X61338561Y-61013304D01*
X61622168Y-60895830D01*
X61628753Y-60893527D01*
X61923693Y-60808557D01*
X61930498Y-60807004D01*
X62233100Y-60755589D01*
X62240051Y-60754805D01*
X62548316Y-60737494D01*
X62551733Y-60737398D01*
X140879892Y-60724286D01*
X140880085Y-60724300D01*
G37*
%TD.AperFunction*%
%TD*%
M02*
